<?xml version="1.0" standalone="no"?>
<!DOCTYPE svg PUBLIC "-//W3C//DTD SVG 20010904//EN"
 "http://www.w3.org/TR/2001/REC-SVG-20010904/DTD/svg10.dtd">
<svg version="1.0" xmlns="http://www.w3.org/2000/svg"
 width="400.000000pt" height="400.000000pt" viewBox="0 0 400.000000 400.000000"
 preserveAspectRatio="xMidYMid meet">
<metadata>
Created by potrace 1.10, written by Peter Selinger 2001-2011
</metadata>
<g transform="translate(0.000000,400.000000) scale(0.100000,-0.100000)"
fill="#36b8d9" stroke="none">
<path d="M0 2000 l0 -2000 931 0 930 0 -26 35 c-15 19 -25 40 -23 46 2 7 17
-9 34 -34 l29 -47 168 0 167 0 -17 26 c-19 29 -50 44 -95 44 -48 0 -28 10 38
18 47 6 59 11 63 27 3 16 1 17 -12 7 -13 -11 -15 -10 -10 6 3 11 -8 36 -29 63
-51 67 -52 71 -11 47 21 -12 40 -25 43 -28 3 -4 32 -15 64 -26 51 -16 62 -25
79 -57 18 -36 19 -40 3 -55 -9 -9 -26 -17 -39 -17 -17 0 -23 -7 -25 -27 l-3
-28 103 0 c69 0 108 4 117 12 11 11 12 10 7 0 -6 -10 6 -13 58 -11 36 1 63 5
61 9 -7 11 38 48 68 55 15 4 26 10 23 12 -7 8 -79 -18 -99 -35 -16 -14 -17
-13 -17 12 0 18 4 25 12 20 8 -5 9 -2 5 10 -4 11 1 30 15 49 l22 32 -22 -19
c-12 -11 -29 -40 -36 -65 -13 -42 -14 -44 -20 -21 -8 31 7 76 36 108 29 30 25
115 -8 190 -14 31 -22 63 -19 71 3 9 3 12 -1 8 -10 -9 -65 74 -57 86 4 6 1 7
-7 2 -10 -6 -12 -4 -7 9 4 10 3 15 -3 11 -6 -3 -10 -2 -10 3 0 6 -7 12 -14 15
-10 4 -13 1 -9 -9 3 -8 -1 -14 -11 -14 -21 0 -21 26 0 34 9 3 31 6 50 6 19 0
49 7 65 16 17 8 44 16 60 16 22 1 26 4 17 10 -9 7 -6 8 10 5 12 -3 20 -1 17 3
-5 8 33 26 48 22 4 -1 7 2 7 7 0 5 19 12 43 16 23 4 35 10 26 12 -18 4 -83
-17 -189 -62 -90 -39 -151 -44 -177 -16 -11 12 -20 34 -21 50 0 24 3 28 21 25
21 -4 21 -4 1 5 -21 9 -113 107 -115 122 -1 5 -2 14 -3 20 0 6 -10 17 -21 26
-19 15 -19 15 5 8 42 -13 46 -12 13 3 -39 17 -50 49 -19 55 21 4 21 4 0 6 -22
1 -49 45 -38 62 9 16 74 53 142 82 70 30 76 31 67 17 -3 -6 1 -7 10 -3 14 5
14 8 3 15 -9 7 -7 8 10 5 12 -3 20 -2 17 2 -2 5 14 14 36 20 23 7 39 14 37 17
-13 12 -244 -83 -296 -122 -17 -14 -37 -22 -43 -18 -18 11 -39 71 -39 111 0
30 -3 35 -11 23 -8 -12 -10 -9 -6 12 2 16 0 28 -5 28 -5 0 -6 6 -1 13 4 6 8
43 8 81 0 66 2 70 35 98 19 17 53 39 75 49 35 17 36 19 10 13 -16 -3 -34 -6
-39 -7 -5 -1 -17 -10 -27 -19 -11 -10 -26 -15 -36 -12 -13 4 -14 3 -5 -3 10
-8 10 -12 -2 -22 -9 -7 -18 -29 -22 -48 -8 -40 -23 -32 -30 17 -4 21 -2 30 5
26 6 -4 9 -1 6 6 -9 22 37 57 116 89 47 19 61 27 39 24 -101 -18 -199 -100
-175 -147 4 -7 -3 -2 -14 12 -32 39 -31 69 5 117 35 46 104 74 204 83 l85 9
-95 -3 c-80 -3 -102 -7 -139 -29 -25 -14 -50 -23 -55 -20 -6 4 -8 3 -4 -2 4
-4 -1 -20 -12 -35 -11 -16 -20 -34 -21 -42 0 -7 -5 -2 -10 12 -6 13 -8 34 -5
46 11 43 146 123 224 132 l47 6 -45 7 c-46 8 -133 -12 -146 -33 -4 -6 1 -6 14
1 11 6 27 11 34 11 7 0 -12 -14 -42 -30 -30 -17 -60 -37 -66 -45 -6 -8 -15
-11 -19 -7 -5 4 -5 1 0 -7 6 -10 4 -12 -4 -7 -15 10 -5 85 19 141 10 22 38 67
62 100 25 33 51 71 58 85 12 23 12 24 -3 11 -10 -7 -17 -17 -17 -22 0 -15 -72
-104 -82 -101 -5 1 -7 -1 -4 -6 2 -4 -8 -34 -24 -67 -28 -58 -29 -58 -34 -30
-3 17 -13 57 -22 90 -8 33 -17 74 -19 90 -5 39 -15 86 -22 105 -4 8 -6 18 -5
21 0 3 -5 6 -13 6 -11 0 -11 -5 0 -31 16 -36 29 -87 26 -100 -1 -5 2 -21 8
-35 5 -14 12 -39 16 -54 5 -25 4 -27 -14 -18 -31 17 -106 13 -163 -9 -29 -11
-63 -20 -74 -20 l-22 0 20 63 c24 74 19 154 -13 221 -11 25 -17 50 -13 57 4 8
3 9 -4 5 -7 -4 -34 15 -64 47 -57 57 -157 106 -221 108 l-32 1 35 17 c70 33
76 40 72 81 -4 36 0 42 56 94 58 55 59 58 66 122 4 37 16 85 27 108 12 22 15
35 8 29 -21 -21 -26 -16 -49 51 -12 36 -28 70 -37 78 -17 14 -16 11 7 -35 11
-22 11 -30 1 -40 -10 -9 -12 -9 -10 3 1 8 -3 27 -9 42 -6 15 -9 34 -6 42 4 9
-9 24 -34 41 -34 22 -44 25 -62 15 -12 -6 -24 -9 -28 -6 -3 3 -1 6 5 6 6 0 25
30 43 68 22 43 54 87 91 123 49 46 71 60 143 83 73 25 86 33 95 57 15 43 26
35 28 -18 0 -27 3 -72 5 -101 3 -44 1 -50 -9 -35 -12 15 -13 14 -13 -10 0 -14
-6 -30 -14 -34 -8 -4 -15 -29 -17 -55 -2 -25 -2 -45 0 -42 6 5 30 -29 31 -43
0 -7 -16 -23 -35 -36 -19 -13 -48 -41 -65 -62 -25 -32 -30 -35 -30 -16 0 11 5
21 11 21 5 0 8 4 5 8 -3 5 13 55 35 112 21 57 39 113 39 125 0 15 2 17 9 6 16
-25 32 48 22 99 l-9 45 1 -53 c0 -57 -12 -86 -14 -31 -1 27 -3 22 -10 -21 -11
-62 -38 -103 -40 -60 -1 16 -3 19 -6 8 -2 -9 1 -26 7 -38 9 -16 6 -34 -11 -83
-23 -63 -39 -92 -39 -68 0 10 -4 10 -12 3 -7 -5 -22 -12 -33 -16 -11 -3 -5 -4
13 -2 35 3 35 4 23 -67 -4 -26 -5 -44 -1 -40 3 4 23 30 45 57 21 26 52 57 69
67 39 24 101 24 148 1 20 -11 51 -17 70 -16 31 3 31 3 5 -4 l-29 -7 27 -25
c15 -14 35 -41 46 -62 12 -24 25 -35 36 -34 10 2 12 1 6 -1 -17 -6 -17 -9 9
-57 31 -56 86 -130 142 -192 45 -50 47 -52 83 -43 28 6 44 4 59 -6 12 -8 25
-11 28 -8 3 4 -18 19 -46 34 -29 15 -52 32 -50 39 1 6 -1 9 -6 6 -13 -8 -55
53 -48 70 3 9 1 12 -4 9 -15 -9 -12 -26 7 -47 9 -10 11 -18 5 -18 -6 0 -17 9
-25 20 -8 11 -16 17 -20 14 -3 -3 -12 16 -19 43 -8 26 -20 47 -26 45 -19 -3
-14 15 6 23 16 6 16 7 0 16 -13 7 -25 5 -42 -6 -23 -15 -25 -15 -35 4 -9 16
-6 23 18 40 26 18 30 19 47 5 10 -9 12 -12 4 -8 -8 3 -4 -5 10 -18 14 -14 28
-23 33 -21 4 2 7 -1 7 -6 0 -6 -9 -11 -21 -11 -11 0 -18 -4 -14 -10 3 -5 12
-7 20 -3 17 6 20 -8 6 -22 -6 -6 1 -10 20 -11 16 -1 35 -8 42 -16 7 -8 36 -34
65 -57 28 -24 49 -48 45 -53 -3 -6 -1 -8 5 -4 6 3 26 0 44 -8 18 -8 50 -22 71
-31 26 -11 37 -21 33 -31 -4 -10 -2 -12 6 -8 7 5 9 2 5 -8 -3 -10 5 -25 21
-39 14 -13 20 -16 13 -7 -7 10 -17 33 -21 53 -7 30 -5 35 10 35 10 0 21 -8 24
-17 4 -14 4 -14 3 2 -1 11 2 26 7 33 7 11 4 12 -12 3 -11 -6 -34 -11 -51 -11
-27 0 -31 4 -32 28 -1 16 -3 20 -6 10 -6 -25 -32 -22 -43 5 -5 12 -9 16 -9 9
-1 -22 -54 13 -56 37 -1 14 3 20 11 17 7 -3 16 0 20 6 5 7 2 8 -6 3 -10 -6
-12 -4 -6 11 6 15 3 14 -18 -5 -27 -25 -34 -37 -16 -26 5 3 10 1 10 -4 0 -20
-19 -11 -35 17 -9 15 -14 19 -11 10 8 -26 -10 -22 -33 8 -27 34 -29 63 -4 43
9 -8 14 -9 10 -2 -4 6 -2 13 5 15 6 2 12 11 14 20 1 11 -3 15 -13 11 -10 -4
-11 -8 -3 -13 8 -5 7 -9 -4 -13 -11 -5 -17 1 -22 21 -9 44 -12 49 -13 22 -1
-19 -4 -21 -13 -12 -17 17 -26 15 -31 -5 -4 -15 -5 -15 -6 -2 0 9 21 31 48 50
28 18 48 35 46 38 -3 2 -11 -2 -20 -9 -13 -11 -15 -8 -15 22 0 34 -15 55 -50
72 -8 4 -7 1 3 -7 10 -9 19 -19 20 -24 1 -4 5 -7 8 -6 12 4 -4 -47 -19 -59
-13 -11 -14 -10 -4 9 10 19 8 24 -14 42 -15 12 -33 21 -40 21 -7 0 -18 8 -23
18 -10 16 -10 16 -11 0 0 -9 4 -19 10 -23 13 -8 1 -35 -14 -29 -9 4 -11 15 -7
37 7 31 8 32 64 35 40 2 60 8 64 18 4 12 8 12 22 2 14 -11 14 -10 -1 7 -9 11
-18 34 -21 50 -4 29 -4 29 -5 -5 l-2 -35 -60 3 c-51 3 -60 7 -60 23 0 18 -9
19 -135 19 -101 0 -135 -3 -135 -12 0 -9 -3 -9 -9 1 -5 8 -9 44 -8 79 1 45 -2
67 -11 69 -8 3 -10 -1 -6 -14 6 -15 4 -16 -7 -5 -16 15 -30 16 -27 1 2 -6 -5
-13 -14 -14 -15 -3 -16 0 -8 16 13 23 47 42 64 36 8 -3 11 6 11 27 -2 54 0 56
93 56 47 0 83 3 79 6 -11 11 -181 4 -188 -7 -9 -15 -15 -2 -24 48 -9 59 -1 66
42 38 21 -15 49 -25 67 -24 l31 1 -35 7 c-19 4 -43 12 -54 18 -33 18 1 25 62
12 102 -21 324 7 417 53 22 11 55 31 73 45 22 16 32 20 32 10 0 -24 -54 -65
-123 -92 -37 -15 -66 -30 -63 -32 2 -3 14 1 26 7 12 6 28 9 35 6 7 -2 46 11
85 30 49 23 79 32 96 28 32 -8 30 -17 -5 -31 -29 -11 -91 -102 -90 -133 0 -8
9 1 20 20 16 28 19 30 14 10 -4 -17 1 -12 14 14 11 21 25 44 32 52 6 8 8 14 3
14 -14 0 20 20 34 20 7 0 10 -5 7 -10 -4 -7 2 -6 17 0 21 10 23 16 18 58 l-5
47 -3 -48 -3 -49 -25 27 c-17 18 -32 26 -47 23 -20 -4 -23 0 -24 31 0 20 -4
55 -8 79 -6 33 -5 42 7 42 8 0 23 7 34 15 13 11 14 13 3 9 -10 -3 -19 2 -23
12 -5 12 -9 14 -20 5 -11 -9 -16 -5 -25 20 -14 40 -14 124 -1 150 14 25 55 27
46 2 -4 -10 -4 -14 0 -10 12 12 44 -24 45 -52 1 -18 3 -21 6 -8 3 11 10 16 20
13 8 -3 17 -6 19 -6 2 0 5 -28 6 -62 1 -53 2 -56 5 -19 l4 45 34 -70 c25 -50
33 -77 29 -99 -4 -23 -3 -26 5 -15 8 11 11 -4 11 -57 l0 -73 -28 0 c-31 0
-115 -56 -106 -71 3 -5 8 -9 11 -9 4 0 3 3 0 6 -4 4 10 20 30 35 41 33 92 38
118 12 15 -15 15 -17 1 -25 -9 -5 -21 -6 -26 -3 -6 3 -10 1 -10 -6 0 -7 -3 -9
-7 -6 -7 8 -33 -11 -33 -25 0 -5 19 -18 43 -28 24 -11 52 -28 62 -40 22 -24
42 -25 83 -4 36 18 67 11 82 -17 9 -17 7 -19 -18 -19 -30 0 -113 -48 -144 -83
-41 -49 -62 -101 -62 -162 l-1 -61 -29 14 c-26 13 -28 18 -23 56 3 22 8 50 11
61 3 11 0 7 -8 -10 -8 -16 -15 -45 -16 -63 0 -20 -4 -31 -10 -27 -5 3 -10 1
-10 -5 0 -6 -4 -8 -10 -5 -5 3 -10 1 -10 -5 0 -8 9 -10 26 -6 15 4 23 3 20 -3
-11 -17 -65 -23 -101 -11 -19 6 -35 15 -35 18 0 4 -16 25 -35 47 l-36 40 17
-36 c23 -51 88 -92 137 -86 28 4 36 2 30 -7 -4 -7 0 -3 10 7 32 35 27 12 -8
-43 -34 -53 -39 -70 -37 -140 1 -35 1 -35 -6 -5 -5 18 -10 25 -15 18 -4 -6 -4
-19 0 -29 4 -12 3 -15 -5 -10 -9 5 -9 1 0 -19 12 -27 12 -27 22 -6 5 12 17 21
27 21 10 0 20 4 24 9 3 6 -4 8 -15 6 -14 -3 -18 0 -13 8 4 7 6 21 4 31 -1 11
0 39 4 64 l7 44 26 -23 c25 -22 26 -22 8 -2 -17 20 -17 26 -5 55 8 18 13 36
11 41 -1 4 5 7 14 7 14 0 15 -24 9 -240 -7 -259 -8 -271 -31 -342 -13 -40 -18
-46 -39 -43 -34 3 -55 23 -55 52 0 13 -7 37 -15 54 -10 19 -12 28 -4 27 6 -2
14 3 16 10 3 6 -2 12 -10 12 -17 0 -31 27 -16 32 6 2 5 15 -2 36 -6 18 -13 31
-15 29 -3 -2 0 -16 5 -30 15 -40 -2 -41 -41 -3 -25 24 -39 31 -49 25 -11 -7
-12 -9 0 -9 22 0 91 -60 91 -80 0 -9 6 -33 14 -52 8 -19 18 -58 22 -87 7 -52
6 -53 -14 -42 -11 6 -24 11 -29 11 -4 -1 3 -7 17 -14 14 -8 29 -12 34 -8 5 3
7 -2 3 -12 -4 -9 -3 -15 3 -11 5 3 9 -3 9 -12 -1 -10 3 -42 9 -70 8 -48 7 -52
-7 -40 -14 10 -14 10 -3 -5 29 -37 73 -47 186 -43 59 2 105 1 102 -2 -3 -4 2
-12 12 -19 14 -10 17 -29 17 -114 l0 -102 35 -29 c40 -34 64 -36 169 -13 85
17 94 21 85 36 -5 7 -2 8 5 3 33 -20 -105 -95 -176 -95 -30 0 -104 30 -98 40
3 4 -2 10 -10 13 -22 9 -37 81 -29 145 5 50 3 61 -17 86 -22 28 -23 28 -98 22
-69 -6 -92 -3 -156 19 -18 6 -18 5 -2 -5 12 -8 17 -24 17 -61 l0 -49 -37 20
c-59 32 -64 23 -5 -10 28 -17 52 -31 52 -33 1 -1 3 -19 6 -41 l6 -38 -44 29
c-51 34 -93 53 -116 53 -9 -1 -1 -7 20 -14 59 -21 126 -65 133 -86 3 -11 13
-20 20 -20 8 0 14 -8 15 -17 0 -10 3 -42 6 -72 l6 -55 -26 17 c-14 9 -29 17
-33 17 -4 0 6 -10 24 -21 32 -21 38 -31 47 -82 3 -19 1 -26 -7 -21 -7 3 -5 0
3 -8 30 -25 62 -89 58 -113 -3 -13 -1 -23 5 -22 12 2 20 -27 19 -71 0 -17 3
-32 8 -32 10 0 22 29 15 40 -3 5 -1 11 4 15 19 11 43 -45 60 -147 11 -57 16
-107 13 -112 -3 -5 0 -6 6 -2 8 5 12 -6 13 -36 l2 -43 6 35 c6 33 7 34 14 10
13 -48 7 -72 -27 -106 -19 -19 -30 -34 -26 -34 5 0 15 7 23 15 13 13 18 1 42
-98 16 -62 38 -134 51 -162 21 -48 54 -149 54 -167 0 -5 -6 -6 -12 -2 -10 6
-10 4 0 -7 6 -7 12 -38 12 -68 l0 -54 -27 24 -28 24 21 -25 c12 -14 31 -43 43
-65 12 -22 21 -33 21 -24 0 8 -6 24 -14 35 -13 17 -12 21 2 37 10 11 17 38 18
70 0 29 4 70 8 92 6 34 3 46 -19 80 -21 33 -22 36 -3 14 13 -15 31 -36 40 -47
39 -48 106 -35 93 17 l-6 26 16 -22 c22 -31 68 -31 89 -1 22 31 20 54 -6 72
-19 13 -20 16 -5 16 24 0 87 -67 87 -92 0 -28 -38 -77 -69 -90 -14 -6 -53 -21
-86 -33 -64 -23 -85 -47 -85 -98 0 -31 -37 -110 -48 -103 -4 2 -12 -11 -18
-30 l-11 -34 483 0 484 0 0 2000 0 2000 -1404 0 c-1329 0 -1405 -1 -1409 -17
-4 -17 -5 -17 -6 0 -1 16 -36 17 -591 17 l-590 0 0 -2000z m1757 1943 c-4 -3
-7 0 -7 7 0 7 3 10 7 7 3 -4 3 -10 0 -14z m537 -106 c70 -32 124 -84 161 -154
l27 -53 -20 -41 c-19 -38 -21 -40 -31 -20 -19 34 -114 98 -171 115 -70 21
-215 21 -286 0 -67 -19 -132 -67 -161 -119 -43 -76 -25 -2 22 90 50 99 90 147
150 177 64 33 85 38 170 35 61 -3 94 -9 139 -30z m-497 -64 c-4 -3 -7 0 -7 7
0 7 3 10 7 7 3 -4 3 -10 0 -14z m958 -18 l18 -30 -21 19 c-12 11 -22 26 -22
34 0 17 -1 18 25 -23z m0 -65 c3 -5 4 -10 1 -10 -3 0 -8 5 -11 10 -3 6 -4 10
-1 10 3 0 8 -4 11 -10z m-1658 -7 c-4 -3 -10 -3 -14 0 -3 4 0 7 7 7 7 0 10 -3
7 -7z m1500 -10 c-4 -3 -10 -3 -14 0 -3 4 0 7 7 7 7 0 10 -3 7 -7z m-1337 -18
c0 -8 -4 -15 -10 -15 -5 0 -10 7 -10 15 0 8 5 15 10 15 6 0 10 -7 10 -15z
m-513 -12 c-4 -3 -7 0 -7 7 0 7 3 10 7 7 3 -4 3 -10 0 -14z m1249 -28 c-4 -19
-11 -35 -16 -35 -13 0 -12 7 2 47 15 41 22 35 14 -12z m-849 -6 c-16 -21 -41
-37 -69 -45 -38 -12 -41 -11 -24 2 11 7 28 14 37 14 9 0 30 15 46 33 36 43 44
39 10 -4z m343 -9 c0 -5 -5 -10 -11 -10 -5 0 -7 5 -4 10 3 6 8 10 11 10 2 0 4
-4 4 -10z m-655 -70 c-5 -8 -11 -8 -17 -2 -6 6 -7 16 -3 22 5 8 11 8 17 2 6
-6 7 -16 3 -22z m1159 15 c-4 -8 -12 -15 -20 -15 -8 0 -14 7 -14 15 0 8 9 15
20 15 13 0 18 -5 14 -15z m-967 -2 c-4 -3 -10 -3 -14 0 -3 4 0 7 7 7 7 0 10
-3 7 -7z m1740 -25 c-3 -7 -5 -2 -5 12 0 14 2 19 5 13 2 -7 2 -19 0 -25z
m-1792 10 c-11 -6 -23 -16 -27 -22 -5 -7 -8 -8 -8 0 0 15 22 34 40 34 11 -1
10 -4 -5 -12z m782 -5 c-4 -3 -7 0 -7 7 0 7 3 10 7 7 3 -4 3 -10 0 -14z m-295
-50 c22 -20 23 -70 1 -95 -29 -32 -113 -16 -113 22 0 5 -2 15 -5 22 -3 8 4 26
15 41 25 32 73 36 102 10z m258 1 c0 -8 -4 -12 -10 -9 -5 3 -10 10 -10 16 0 5
5 9 10 9 6 0 10 -7 10 -16z m1190 -20 c0 -10 -20 -3 -41 16 l-24 20 33 -16
c17 -8 32 -17 32 -20z m-160 0 c0 -8 -4 -12 -10 -9 -5 3 -10 13 -10 21 0 8 5
12 10 9 6 -3 10 -13 10 -21z m250 16 c0 -5 -14 -10 -31 -10 -17 0 -28 4 -24
10 3 6 17 10 31 10 13 0 24 -4 24 -10z m-1263 -32 c-3 -7 -5 -2 -5 12 0 14 2
19 5 13 2 -7 2 -19 0 -25z m-160 -5 c-4 -3 -7 0 -7 7 0 7 3 10 7 7 3 -4 3 -10
0 -14z m1224 -77 c16 -9 48 -21 71 -25 l43 -9 -38 -1 c-72 -2 -138 44 -136 94
0 16 3 14 16 -11 8 -17 28 -39 44 -48z m-1553 52 c-3 -7 -11 -13 -18 -13 -7 0
-15 6 -17 13 -3 7 4 12 17 12 13 0 20 -5 18 -12z m-509 -100 c-10 -31 -20 -40
-56 -54 -33 -13 -47 -25 -58 -51 -14 -34 -34 -40 -43 -13 -3 7 0 10 6 6 6 -3
8 1 5 12 -3 14 14 35 60 76 36 31 71 71 78 89 l14 32 3 -30 c2 -16 -2 -46 -9
-67z m1741 41 c0 -59 -13 -75 -92 -115 -88 -44 -186 -66 -301 -66 -91 0 -191
18 -182 32 3 4 -3 14 -13 21 -16 13 -16 13 -2 -5 13 -17 13 -19 0 -14 -8 2
-15 11 -15 19 0 8 -11 30 -24 49 l-23 35 29 -31 c15 -18 48 -45 72 -60 43 -28
49 -29 170 -29 124 0 127 0 189 34 64 35 130 94 160 144 23 38 32 34 32 -14z
m-1800 7 c0 -2 -8 -10 -17 -17 -16 -13 -17 -12 -4 4 13 16 21 21 21 13z m-170
-26 c0 -5 -4 -10 -10 -10 -5 0 -10 5 -10 10 0 6 5 10 10 10 6 0 10 -4 10 -10z
m2528 3 c-21 -2 -57 -2 -80 0 -24 2 -7 4 37 4 44 0 63 -2 43 -4z m-1423 -24
c0 -7 -8 -15 -17 -17 -18 -3 -25 18 -11 32 10 10 28 1 28 -15z m-65 1 c0 -5
-7 -10 -15 -10 -8 0 -15 5 -15 10 0 6 7 10 15 10 8 0 15 -4 15 -10z m-1077
-25 c-3 -9 -8 -14 -10 -11 -3 3 -2 9 2 15 9 16 15 13 8 -4z m124 -2 c-4 -3 -7
0 -7 7 0 7 3 10 7 7 3 -4 3 -10 0 -14z m173 -47 c0 -3 -5 -8 -12 -12 -7 -4 -8
-3 -4 4 7 12 16 16 16 8z m1121 -59 c-1 -12 -15 -9 -19 4 -3 6 1 10 8 8 6 -3
11 -8 11 -12z m1597 0 c14 -17 -2 -42 -22 -34 -20 8 -21 47 -2 47 7 0 18 -6
24 -13z m53 -10 c-1 -12 -15 -9 -19 4 -3 6 1 10 8 8 6 -3 11 -8 11 -12z
m-1814 -14 c-4 -3 -10 -3 -14 0 -3 4 0 7 7 7 7 0 10 -3 7 -7z m803 3 c0 -3 -5
-8 -12 -12 -7 -4 -8 -3 -4 4 7 12 16 16 16 8z m-1957 -47 c-10 -17 -33 -37
-51 -46 -18 -9 -41 -27 -52 -41 -11 -13 -20 -19 -20 -12 0 18 30 50 46 50 7 0
28 18 46 40 39 47 56 52 31 9z m87 -11 c-25 -24 -47 -39 -48 -35 -6 12 28 58
37 52 5 -2 14 2 21 10 7 8 18 15 24 15 6 0 -9 -19 -34 -42z m2177 6 c24 -19
40 -40 37 -46 -4 -6 -2 -8 4 -4 6 3 13 2 17 -4 4 -6 -6 -10 -25 -10 -17 0 -41
-7 -54 -15 -21 -14 -24 -13 -39 3 -10 10 -39 29 -67 42 -27 13 -47 26 -45 31
7 10 29 6 35 -6 5 -12 47 -35 63 -35 6 0 1 9 -11 20 -12 12 -22 24 -22 27 0 4
3 3 7 0 3 -4 12 2 20 13 19 27 29 25 80 -16z m-327 22 c0 -3 -5 -8 -12 -12 -7
-4 -8 -3 -4 4 7 12 16 16 16 8z m1080 -38 c0 -12 -7 -10 -24 8 -9 8 -13 20
-10 26 7 11 34 -17 34 -34z m-2724 7 c-11 -8 -25 -15 -30 -15 -6 1 0 7 14 15
32 19 40 18 16 0z m234 -35 c0 -5 -4 -10 -10 -10 -5 0 -10 5 -10 10 0 6 5 10
10 10 6 0 10 -4 10 -10z m2475 -76 c4 -25 14 -35 45 -49 75 -34 82 -68 8 -36
-51 22 -69 55 -67 125 1 24 3 31 6 16 2 -14 6 -39 8 -56z m45 15 c0 -37 -13
-53 -23 -26 -7 19 4 77 14 71 5 -3 9 -23 9 -45z m-2843 24 c-4 -3 -7 0 -7 7 0
7 3 10 7 7 3 -4 3 -10 0 -14z m1100 -13 c1 -11 -2 -20 -8 -20 -5 0 -9 9 -9 20
0 11 4 20 8 20 4 0 8 -9 9 -20z m1682 -55 c0 -5 -4 -3 -9 5 -5 8 -9 22 -9 30
0 16 17 -16 18 -35z m-3092 18 c-4 -3 -7 0 -7 7 0 7 3 10 7 7 3 -4 3 -10 0
-14z m2439 -16 c-25 -8 -40 -19 -42 -30 -2 -13 2 -17 12 -13 20 8 18 2 -8 -20
-20 -18 -21 -18 -15 -1 5 13 3 17 -5 14 -7 -2 -12 -10 -10 -16 1 -6 -3 -10
-10 -8 -7 1 -13 -4 -14 -10 -1 -7 -2 -18 -3 -24 0 -5 -6 -7 -13 -3 -7 4 -8 3
-4 -4 8 -14 -18 -55 -28 -45 -4 4 -4 0 0 -10 3 -9 2 -17 -2 -17 -5 0 -14 16
-20 35 -7 22 -7 32 -1 28 6 -4 8 1 4 11 -4 10 -3 15 3 11 6 -3 10 0 10 8 0 8
7 17 15 21 8 3 14 10 13 16 -4 16 93 69 127 68 28 0 28 0 -9 -11z m49 -25 c-3
-3 -11 0 -18 7 -9 10 -8 11 6 5 10 -3 15 -9 12 -12z m91 -56 c29 -22 62 -48
74 -56 12 -8 38 -27 57 -42 l36 -28 -29 3 c-16 2 -38 0 -49 -4 -13 -5 1 -8 40
-8 97 -2 163 -33 209 -100 14 -20 26 -50 26 -67 0 -22 -3 -26 -10 -14 -5 8
-10 26 -11 40 -1 17 -3 19 -6 8 -3 -14 -13 -8 -45 30 -53 61 -70 73 -89 61
-12 -8 -12 -9 1 -7 13 2 58 -37 122 -109 16 -18 15 -18 -55 -17 -40 0 -81 6
-92 11 -22 12 -71 62 -67 69 1 2 -1 3 -4 2 -10 -5 -33 47 -24 52 5 3 5 12 0
20 -6 10 -10 7 -16 -16 -3 -16 -23 -47 -44 -69 -21 -22 -42 -55 -49 -74 -18
-56 -13 -57 17 -4 15 28 37 63 50 78 l22 28 30 -28 30 -29 -28 -30 c-44 -47
-78 -107 -52 -91 6 3 7 -1 3 -10 -5 -13 -7 -14 -14 -3 -7 10 -9 10 -9 -2 0
-37 17 -39 33 -4 10 19 12 32 6 28 -7 -4 -10 -2 -7 6 4 12 38 24 38 14 0 -3
-9 -22 -20 -44 -21 -40 -27 -67 -10 -40 12 18 12 2 0 -25 -8 -18 -9 -18 -9 -2
-1 10 -5 16 -10 12 -5 -3 -12 4 -16 14 -3 11 -12 18 -19 15 -7 -3 -24 5 -39
16 -21 17 -27 31 -29 63 -1 37 -2 38 -5 10 -2 -18 -7 -33 -11 -33 -11 0 -36
44 -34 58 2 6 -1 12 -7 12 -5 0 -8 -11 -6 -25 2 -24 1 -24 -15 -10 -9 8 -17
30 -18 47 -1 25 2 29 10 18 8 -12 9 -12 4 3 -3 9 -2 17 2 17 4 0 16 12 26 27
l19 26 -31 -23 c-30 -22 -49 -54 -44 -73 1 -5 -2 -6 -8 -2 -13 8 -13 71 0 95
7 13 7 21 0 25 -6 4 -10 3 -9 -2 1 -4 -3 -21 -10 -38 -7 -16 -10 -43 -7 -60
l6 -30 -20 24 c-11 13 -20 19 -20 15 -1 -5 -9 1 -19 14 -13 15 -21 18 -24 10
-3 -7 -6 12 -6 43 -1 81 44 168 111 213 30 21 44 36 36 39 -7 2 10 2 37 -1 39
-4 61 -13 101 -46z m-2589 27 c-4 -3 -7 0 -7 7 0 7 3 10 7 7 3 -4 3 -10 0 -14z
m1418 7 c-3 -5 -14 -10 -23 -10 -15 0 -15 2 -2 10 20 13 33 13 25 0z m-498 -7
c-4 -3 -10 -3 -14 0 -3 4 0 7 7 7 7 0 10 -3 7 -7z m499 -41 c0 -25 -3 -28 -27
-24 -40 6 -45 29 -5 26 18 -2 23 -1 11 3 -20 6 -20 6 0 14 11 4 20 8 21 8 0 1
0 -12 0 -27z m1824 -37 c24 -39 25 -62 5 -102 -8 -16 -16 -42 -17 -56 l-2 -27
-24 28 c-21 24 -22 34 -18 101 3 41 0 83 -5 93 -18 33 39 -2 61 -37z m-2975
-23 c4 -10 -6 -5 -24 12 -17 17 -31 31 -31 33 0 10 49 -31 55 -45z m1135 13
c0 -8 -4 -15 -10 -15 -5 0 -10 7 -10 15 0 8 5 15 10 15 6 0 10 -7 10 -15z
m-340 -14 c13 -11 25 -31 26 -45 1 -26 -10 -34 -21 -16 -3 6 -2 10 3 10 5 0 9
7 9 15 0 18 -9 19 -25 3 -8 -8 -15 -8 -24 -1 -7 6 -26 15 -43 21 l-30 10 27 1
c15 1 30 6 33 11 9 14 16 12 45 -9z m1214 -32 c-4 -26 -3 -39 5 -39 6 0 11
-11 11 -25 0 -34 -20 -32 -21 3 0 24 -1 24 -8 7 -5 -11 -6 -24 -3 -29 3 -5 0
-6 -6 -3 -11 7 -10 20 3 50 4 9 5 27 2 38 -7 25 2 51 14 43 5 -3 6 -23 3 -45z
m-574 31 c0 -6 -47 -10 -120 -10 -68 0 -120 4 -120 9 0 6 53 10 120 10 73 1
120 -3 120 -9z m-689 -35 c16 -9 35 -13 42 -9 7 4 9 3 4 -1 -10 -11 23 -46 36
-38 5 3 7 2 4 -4 -12 -20 12 -126 34 -149 12 -13 25 -21 30 -19 4 3 6 -7 4
-21 -1 -16 -19 -41 -46 -64 -49 -42 -60 -44 -35 -5 9 14 13 25 8 25 -16 0 -32
-24 -32 -49 0 -24 -25 -61 -41 -61 -5 0 -4 12 1 26 12 32 12 34 0 34 -5 0 -10
-6 -10 -14 0 -20 -40 -68 -53 -63 -7 2 -18 -5 -27 -15 -14 -17 -15 -16 -16 26
-1 25 -9 57 -18 72 -10 14 -15 31 -13 38 3 7 -1 13 -9 13 -18 0 -18 0 6 -47
11 -22 20 -57 20 -80 0 -34 -4 -42 -24 -50 -13 -5 -27 -14 -31 -19 -3 -6 -11
-11 -17 -11 -7 0 -6 5 2 14 14 18 10 58 -7 63 -8 3 -12 -7 -11 -31 1 -43 -4
-49 -40 -51 -15 -1 -41 -5 -59 -9 -28 -6 -31 -5 -26 13 7 28 -23 124 -48 152
l-21 24 16 -25 c22 -35 19 -50 -4 -21 -26 31 -26 17 0 -16 11 -14 20 -33 20
-42 0 -14 2 -14 11 -1 9 12 10 12 5 -3 -3 -11 -9 -30 -12 -44 l-7 -26 -12 29
c-11 26 -12 27 -17 9 -16 -53 -19 -80 -10 -70 6 6 12 21 15 35 l4 25 2 -27 c2
-50 -97 -94 -158 -68 -36 14 -91 81 -91 110 0 12 5 18 10 15 6 -3 10 1 10 10
0 14 6 16 28 10 15 -3 34 -13 42 -20 8 -7 29 -17 45 -21 17 -4 43 -16 59 -27
28 -20 28 -20 22 0 -4 13 0 26 13 37 18 17 20 17 30 -1 8 -14 10 -15 11 -3 0
16 -46 90 -64 102 -25 17 -26 6 -2 -23 14 -17 26 -38 25 -47 0 -14 -2 -13 -9
3 -4 11 -20 31 -36 45 -26 24 -26 22 6 -23 24 -34 31 -50 23 -58 -15 -15 -86
8 -76 24 4 7 -1 6 -10 -2 -16 -12 -22 -8 -18 12 1 5 -3 6 -9 2 -5 -3 -12 0
-15 7 -3 8 -25 14 -57 15 -55 2 -83 19 -72 46 5 13 17 17 55 16 27 -1 49 -5
49 -9 0 -4 11 -5 25 -2 14 2 32 -1 40 -8 10 -9 15 -9 15 -1 0 6 9 11 20 11 11
0 20 3 20 8 0 4 11 20 25 36 22 26 27 28 52 16 43 -18 85 -76 99 -133 13 -53
19 -35 8 22 -8 38 -77 119 -110 127 -33 8 -23 19 49 55 34 17 69 37 78 45 8 8
23 14 32 14 9 0 17 5 17 10 0 6 4 10 9 10 5 0 22 13 38 28 15 16 33 31 38 33
6 2 23 21 38 42 32 42 36 43 78 22z m596 8 c-4 -3 -10 -3 -14 0 -3 4 0 7 7 7
7 0 10 -3 7 -7z m90 0 c-4 -3 -10 -3 -14 0 -3 4 0 7 7 7 7 0 10 -3 7 -7z m143
-19 c0 -2 -51 -3 -112 -2 l-113 2 85 5 c81 6 140 3 140 -5z m460 -5 c0 -6 -4
-7 -10 -4 -5 3 -10 11 -10 16 0 6 5 7 10 4 6 -3 10 -11 10 -16z m997 -6 c-4
-3 -7 0 -7 7 0 7 3 10 7 7 3 -4 3 -10 0 -14z m-3000 -20 c-4 -3 -7 0 -7 7 0 7
3 10 7 7 3 -4 3 -10 0 -14z m1319 -4 c13 -22 -12 -30 -31 -9 -18 19 -18 20 3
20 11 0 24 -5 28 -11z m1665 -12 c-10 -9 -11 -8 -5 6 3 10 9 15 12 12 3 -3 0
-11 -7 -18z m-2974 -14 c-4 -3 -7 0 -7 7 0 7 3 10 7 7 3 -4 3 -10 0 -14z m800
-10 c-4 -3 -7 0 -7 7 0 7 3 10 7 7 3 -4 3 -10 0 -14z m520 -10 c-4 -3 -7 0 -7
7 0 7 3 10 7 7 3 -4 3 -10 0 -14z m62 3 c10 -12 8 -17 -9 -26 -11 -6 -25 -8
-30 -5 -14 9 -12 32 3 38 20 9 24 8 36 -7z m-515 -65 c8 -11 8 -15 -2 -19 -10
-3 -10 -7 0 -20 12 -15 11 -16 -4 -3 -10 7 -18 10 -18 6 0 -4 -7 -2 -15 5 -10
8 -13 21 -9 33 4 12 2 17 -4 13 -5 -3 -9 6 -9 21 0 26 0 26 18 -8 10 -19 18
-27 19 -18 0 8 -5 20 -11 26 -6 6 -8 17 -3 24 5 9 11 4 17 -16 5 -17 15 -36
21 -44z m1093 52 c-4 -3 -10 -3 -14 0 -3 4 0 7 7 7 7 0 10 -3 7 -7z m-565 -35
c-7 -7 -12 -8 -12 -2 0 14 12 26 19 19 2 -3 -1 -11 -7 -17z m152 -6 c3 -5 -1
-9 -9 -9 -8 0 -12 4 -9 9 3 4 7 8 9 8 2 0 6 -4 9 -8z m-44 -26 c0 -3 -5 -8
-12 -12 -7 -4 -8 -3 -4 4 7 12 16 16 16 8z m1021 -42 c64 6 115 -5 135 -31 23
-31 16 -32 -35 -5 -44 24 -52 25 -89 14 -23 -7 -54 -24 -70 -37 -16 -13 -32
-21 -36 -18 -4 4 -4 0 -1 -9 5 -13 2 -16 -14 -13 -11 2 -24 -1 -27 -7 -4 -7
-2 -8 4 -4 7 4 12 1 12 -6 0 -10 3 -9 11 2 8 12 9 10 5 -10 -3 -14 -9 -42 -12
-62 -4 -21 -10 -35 -14 -33 -5 3 -4 21 2 41 5 20 7 38 4 41 -3 3 -9 -10 -15
-28 -8 -30 -9 -31 -11 -9 -1 23 -2 23 -10 5 -6 -14 -7 -3 -5 34 2 40 10 64 33
96 23 32 27 45 17 49 -7 2 -19 -3 -27 -12 -12 -15 -11 -16 5 -3 10 8 17 9 17
3 0 -12 -18 -25 -37 -28 -20 -3 -15 12 13 45 l26 31 31 -26 c28 -24 37 -26 88
-20z m451 -31 c-10 -28 -10 -28 -11 12 -1 28 2 36 10 28 8 -8 8 -19 1 -40z
m-1429 9 c4 9 6 9 6 1 2 -23 -18 -23 -29 -1 -10 21 -10 22 3 5 11 -14 16 -15
20 -5z m1088 -28 c16 -8 29 -19 29 -25 0 -6 4 -8 9 -5 5 4 7 -4 4 -15 -4 -15
0 -27 13 -37 19 -14 18 -15 -1 -8 -11 4 -24 8 -30 9 -5 1 -15 8 -21 16 -9 11
-11 11 -11 -3 0 -9 4 -17 9 -17 4 -1 13 -3 18 -4 6 -1 14 -3 19 -4 31 -4 171
-188 171 -225 0 -26 -34 -18 -52 12 -14 23 -15 32 -5 42 10 12 9 12 -5 2 -10
-8 -18 -9 -22 -3 -4 5 2 14 11 20 10 6 13 11 7 11 -5 0 -15 -5 -22 -12 -16
-16 -16 4 1 22 9 11 8 11 -7 0 -18 -14 -19 -13 -12 5 6 16 5 18 -6 7 -10 -10
-10 -17 1 -34 12 -19 11 -24 -9 -40 -26 -21 -39 -16 -20 7 11 13 10 15 -6 9
-18 -5 -18 -5 0 10 11 9 15 16 9 16 -6 0 -16 -7 -23 -15 -11 -13 -10 -21 1
-43 7 -15 15 -30 17 -34 2 -5 -3 -8 -12 -8 -8 0 -18 -4 -21 -10 -4 -7 2 -7 19
-1 26 11 36 -1 36 -41 0 -14 -5 -18 -16 -14 -8 3 -12 2 -9 -4 3 -6 2 -10 -4
-10 -6 0 -18 15 -27 33 -9 17 -22 35 -28 39 -7 5 -6 8 4 9 12 0 12 2 -1 7 -9
4 -33 28 -53 54 l-36 48 23 21 22 21 -22 -11 c-13 -6 -23 -16 -23 -21 0 -5 -6
-7 -14 -4 -23 9 -26 -9 -9 -60 12 -36 13 -50 4 -59 -15 -15 -41 1 -58 34 -10
20 -10 25 4 30 12 4 13 8 5 13 -7 4 -9 12 -6 18 4 7 2 8 -5 4 -6 -4 -9 -12 -6
-17 4 -5 2 -9 -4 -9 -29 0 -7 44 34 68 18 10 17 10 -10 7 -16 -2 -32 -4 -35
-5 -3 -2 -9 -2 -13 -1 -5 1 -6 -3 -2 -9 3 -6 12 -7 18 -3 7 4 6 -1 -2 -11 -28
-33 -37 3 -28 116 1 14 4 26 7 25 10 -3 45 28 48 43 2 10 -4 7 -18 -7 -33 -36
-34 -26 -1 15 45 58 106 71 172 36z m-2616 -101 c0 -24 -4 -28 -27 -27 -15 1
-25 -3 -22 -7 3 -5 -4 -9 -16 -9 -11 0 -23 7 -27 17 -8 21 31 53 66 53 23 0
27 -4 26 -27z m1547 -30 l42 -28 -30 -5 c-22 -4 -35 0 -55 20 -26 24 -29 40
-8 40 5 0 28 -12 51 -27z m-1215 0 c-4 -3 -7 0 -7 7 0 7 3 10 7 7 3 -4 3 -10
0 -14z m-273 -13 c-7 -7 -19 -7 -35 -1 -23 9 -22 10 11 10 23 1 31 -2 24 -9z
m-36 -21 c2 -5 7 -7 12 -4 4 2 8 -7 8 -22 0 -24 -2 -25 -13 -9 -10 13 -14 14
-17 4 -4 -11 -8 -11 -21 0 -18 15 -41 7 -31 -10 4 -7 9 -6 14 2 5 8 10 8 14 2
9 -15 -53 -37 -73 -25 -26 16 -19 32 24 57 38 23 76 25 83 5z m2958 -6 c-10
-10 -19 5 -10 18 6 11 8 11 12 0 2 -7 1 -15 -2 -18z m-2629 -30 c-4 -3 -7 0
-7 7 0 7 3 10 7 7 3 -4 3 -10 0 -14z m-290 -36 c3 -5 0 -8 -8 -5 -8 3 -19 -1
-26 -8 -7 -7 -21 -11 -30 -9 -10 2 -21 4 -25 4 -5 1 -8 6 -8 12 0 5 5 7 10 4
6 -3 10 -2 10 4 0 13 69 11 77 -2z m43 -42 l20 -22 -50 -2 c-38 -1 -50 2 -50
13 0 16 23 33 46 33 7 0 23 -10 34 -22z m1887 8 c-4 -3 -7 0 -7 7 0 7 3 10 7
7 3 -4 3 -10 0 -14z m283 -13 c0 -5 -5 -10 -11 -10 -5 0 -7 5 -4 10 3 6 8 10
11 10 2 0 4 -4 4 -10z m501 -73 c23 -55 -23 -61 -54 -7 -17 27 -16 29 0 40 16
10 15 11 -4 7 -28 -6 -28 -3 -5 21 16 17 18 17 34 -7 10 -14 23 -39 29 -54z
m-2021 -15 c59 -23 133 -87 164 -143 11 -19 15 -31 11 -27 -4 4 -14 3 -22 -4
-8 -6 -13 -7 -11 -1 4 14 -63 87 -101 109 -30 18 -41 34 -22 34 6 0 13 -4 16
-10 3 -5 16 -15 28 -21 20 -10 19 -8 -3 13 -35 34 -139 68 -198 66 l-47 -1 50
-7 50 -7 -50 -3 c-72 -4 -73 -5 -81 -13 -4 -4 -12 -7 -18 -7 -6 0 5 11 24 25
30 22 44 25 95 22 33 -2 85 -14 115 -25z m1267 11 c-4 -3 -10 -3 -14 0 -3 4 0
7 7 7 7 0 10 -3 7 -7z m-2001 -66 c-5 -18 -73 -77 -89 -77 -2 0 15 20 39 44
26 25 44 53 45 67 1 18 2 20 6 6 3 -10 2 -28 -1 -40z m739 22 c-7 -10 -35 -1
-35 11 0 5 9 6 20 3 11 -3 17 -9 15 -14z m-12 -18 c47 -23 121 -92 144 -134 6
-12 17 -52 24 -89 12 -65 6 -126 -16 -183 -7 -17 -5 -17 19 5 18 16 25 19 21
8 -8 -20 -31 -31 -65 -33 -14 -1 -47 -11 -73 -24 -73 -35 -81 -29 -88 62 -4
43 -8 80 -10 82 -2 2 -4 -51 -4 -118 0 -122 0 -122 -40 -202 -30 -61 -40 -75
-43 -57 -5 30 -22 28 -22 -3 0 -25 -18 -60 -50 -98 -14 -16 -16 -16 -32 5 -17
23 -17 23 -6 -9 9 -23 9 -36 2 -43 -14 -14 -56 -22 -49 -9 4 5 10 7 15 4 4 -3
13 2 19 9 14 16 -14 79 -76 172 -19 28 -36 60 -38 70 -1 11 -8 18 -14 16 -6
-1 -11 7 -11 17 0 11 -4 23 -10 26 -26 16 -5 86 30 98 12 4 12 6 -2 6 -23 1
-48 -37 -48 -72 0 -35 22 -88 55 -131 14 -19 22 -37 17 -40 -13 -8 -34 18 -24
29 4 5 2 5 -4 2 -5 -3 -23 2 -39 13 -15 10 -35 16 -43 12 -10 -3 -13 -1 -8 6
4 7 2 12 -4 12 -17 0 -6 -25 11 -26 8 -1 20 -2 28 -3 7 0 11 -7 8 -14 -3 -7 4
-24 15 -38 l20 -24 -16 28 c-14 23 -14 27 -2 27 22 0 55 -47 61 -89 4 -20 10
-45 15 -56 8 -18 9 -17 9 8 1 15 -6 44 -14 64 -18 42 -18 43 -6 43 5 0 22 -25
36 -55 20 -39 25 -63 21 -82 -4 -16 -7 -36 -7 -45 0 -17 -71 -88 -88 -88 -5 0
-11 9 -14 20 -3 11 -1 20 4 20 5 0 9 14 9 32 0 35 -7 34 -14 -3 -2 -13 -5 -26
-6 -29 -2 -3 -2 -9 -1 -14 1 -4 -1 -18 -5 -30 -7 -21 -7 -21 -15 -1 -7 17 -8
17 -8 -7 -1 -15 -8 -53 -17 -85 -9 -32 -20 -80 -23 -107 -11 -69 -66 -111
-163 -122 -78 -9 -135 24 -173 101 -15 28 24 59 121 97 83 32 182 49 170 30
-4 -7 -3 -12 3 -12 6 0 17 -12 25 -27 11 -20 15 -23 16 -11 0 10 -15 35 -33
55 -52 59 -77 107 -77 147 0 20 -8 53 -19 74 -10 20 -22 63 -26 96 -4 32 -13
76 -21 98 -8 22 -11 44 -8 49 3 5 0 9 -6 9 -6 0 -9 4 -6 9 3 5 -1 11 -9 15 -8
3 -15 10 -15 16 0 6 6 8 13 4 8 -5 8 -3 -2 9 -7 9 -18 14 -24 10 -6 -4 -8 0
-4 9 3 10 -5 25 -20 39 -15 13 -23 18 -19 12 11 -19 -2 -16 -31 7 -36 28 -98
43 -147 35 -45 -8 -114 -44 -137 -72 -10 -13 -6 -12 17 5 17 12 35 18 39 14 5
-4 5 -2 2 4 -10 17 46 36 107 37 56 1 133 -31 128 -53 -1 -6 2 -9 7 -6 31 20
110 -133 118 -227 3 -36 16 -82 29 -110 14 -28 24 -67 24 -91 0 -29 7 -52 21
-70 23 -29 18 -46 -14 -46 -56 0 -177 -52 -211 -89 l-19 -21 -25 42 c-34 57
-77 106 -128 146 -117 89 -180 296 -124 407 11 21 18 41 15 43 -2 3 8 21 24
41 15 20 26 42 23 49 -8 23 27 97 61 129 17 17 51 36 75 43 23 6 42 15 42 20
0 15 63 58 95 65 l30 6 -30 -14 c-20 -9 -39 -33 -65 -83 l-35 -69 -50 -5 c-45
-5 -105 -32 -105 -49 0 -3 -3 -16 -6 -29 l-7 -23 48 26 c26 14 61 25 76 25 48
0 141 -41 186 -83 24 -22 44 -37 44 -33 1 3 2 10 3 16 1 11 47 69 83 107 14
15 28 20 39 16 11 -4 15 -2 11 4 -16 25 131 32 206 9 25 -8 46 -11 45 -7 -3
12 14 71 20 71 15 0 68 -41 100 -77 18 -21 29 -29 23 -17 -12 24 -96 104 -111
104 -16 0 -12 14 16 56 15 21 19 32 10 25 -12 -10 -23 -11 -47 -2 -18 6 -46
10 -63 10 -27 -2 -28 -2 -6 -6 51 -8 91 -25 87 -36 -3 -7 -9 -11 -15 -10 -5 1
-8 -7 -5 -18 6 -20 4 -20 -18 -8 -34 18 -194 18 -211 0 -11 -12 -10 -13 7 -7
43 16 87 18 149 6 53 -10 66 -16 66 -31 0 -10 -5 -21 -10 -24 -6 -4 -8 -10 -5
-15 3 -4 -16 -2 -42 6 -54 16 -140 18 -179 4 -15 -6 -29 -9 -31 -6 -8 8 49
109 82 145 21 22 45 37 61 39 15 1 30 5 33 8 3 4 -6 5 -21 2 -18 -3 -25 -1
-22 7 8 19 51 35 95 35 22 0 38 4 35 9 -3 5 13 26 35 46 l41 37 82 -4 c58 -3
94 -10 129 -27z m1413 13 c18 -15 18 -15 0 -10 -10 4 -24 2 -31 -4 -16 -13
-45 -2 -45 16 0 19 51 18 76 -2z m-2242 -50 c-9 -14 -30 -32 -46 -40 -28 -15
-28 -13 9 25 43 46 62 54 37 15z m2080 5 c-3 -5 -10 -7 -15 -3 -5 3 -7 10 -3
15 3 5 10 7 15 3 5 -3 7 -10 3 -15z m-174 -4 c6 3 10 -1 10 -9 0 -11 -9 -16
-30 -16 -24 0 -30 4 -30 20 0 18 3 19 20 10 11 -6 25 -8 30 -5z m551 -23 c-13
-25 -2 -65 33 -116 14 -21 26 -51 26 -65 0 -23 -2 -22 -19 14 -10 22 -28 49
-40 59 -13 12 -21 31 -21 52 0 32 19 88 27 80 3 -2 0 -13 -6 -24z m-184 -9
c-4 -3 -7 0 -7 7 0 7 3 10 7 7 3 -4 3 -10 0 -14z m-2150 -30 c-4 -3 -7 0 -7 7
0 7 3 10 7 7 3 -4 3 -10 0 -14z m1983 -3 c0 -5 -4 -10 -9 -10 -6 0 -13 5 -16
10 -3 6 1 10 9 10 9 0 16 -4 16 -10z m56 -7 c-4 -25 -26 -28 -26 -4 0 12 6 21
14 21 8 0 13 -8 12 -17z m-2049 -20 c-4 -3 -7 0 -7 7 0 7 3 10 7 7 3 -4 3 -10
0 -14z m900 -28 c-10 -20 -13 -22 -18 -7 -8 21 -2 32 16 32 10 0 11 -5 2 -25z
m1331 14 c-2 -6 -8 -10 -13 -10 -5 0 -11 4 -13 10 -2 6 4 11 13 11 9 0 15 -5
13 -11z m362 -3 c0 -2 -13 -33 -30 -68 -16 -34 -30 -76 -30 -91 0 -39 23 -88
54 -116 40 -37 34 -91 -10 -105 -30 -9 -35 -39 -12 -76 10 -18 17 -34 15 -37
-3 -2 -14 11 -26 30 -32 52 -26 98 14 103 6 0 16 2 23 2 22 3 13 47 -18 84
-38 46 -50 78 -50 132 0 39 27 120 46 139 8 8 24 10 24 3z m-1665 -50 c4 -24
5 -52 2 -62 -3 -12 -5 -8 -6 11 0 17 -5 45 -10 63 -5 17 -6 32 -1 32 5 0 12
-20 15 -44z m1170 34 c3 -5 1 -10 -4 -10 -6 0 -11 5 -11 10 0 6 2 10 4 10 3 0
8 -4 11 -10z m-1185 -74 c0 -26 -6 -18 -14 19 -5 22 -4 26 4 15 5 -8 10 -24
10 -34z m1418 -23 c-2 -10 6 -26 18 -35 12 -10 24 -28 27 -40 5 -20 4 -21 -6
-7 -15 20 -58 33 -124 38 -16 1 -23 7 -23 21 0 17 5 18 50 13 42 -5 50 -3 50
11 0 9 3 16 6 16 3 0 4 -8 2 -17z m-131 -20 c-4 -3 -7 0 -7 7 0 7 3 10 7 7 3
-4 3 -10 0 -14z m-1270 -50 c-3 -10 -5 -2 -5 17 0 19 2 27 5 18 2 -10 2 -26 0
-35z m909 -9 c-6 -19 -12 -28 -14 -20 -3 13 14 56 22 56 2 0 -2 -16 -8 -36z
m311 19 c-4 -3 -7 0 -7 7 0 7 3 10 7 7 3 -4 3 -10 0 -14z m-1240 -10 c-4 -3
-7 0 -7 7 0 7 3 10 7 7 3 -4 3 -10 0 -14z m1383 8 c0 -5 -7 -12 -16 -15 -14
-5 -15 -4 -4 9 14 17 20 19 20 6z m-1393 -48 c-4 -3 -7 0 -7 7 0 7 3 10 7 7 3
-4 3 -10 0 -14z m20 0 c-4 -3 -7 0 -7 7 0 7 3 10 7 7 3 -4 3 -10 0 -14z m1280
-10 c-4 -3 -7 0 -7 7 0 7 3 10 7 7 3 -4 3 -10 0 -14z m53 13 c0 -3 -5 -8 -12
-12 -7 -4 -8 -3 -4 4 7 12 16 16 16 8z m121 -87 l-9 -34 -1 30 c0 17 2 41 6
55 7 23 8 24 11 4 2 -12 -1 -37 -7 -55z m-455 10 c28 -1 28 -1 4 -8 -31 -9
-62 -2 -53 12 4 6 0 8 -10 4 -11 -4 -14 -2 -11 7 3 8 1 17 -5 21 -6 3 -11 1
-11 -5 0 -6 -5 -8 -11 -4 -8 4 -7 9 2 15 9 5 23 0 39 -16 15 -14 39 -25 56
-26z m563 -39 c-20 -73 -25 -76 -32 -19 -11 93 -11 96 16 68 17 -18 21 -30 16
-49z m-2974 30 c-4 -12 -9 -19 -12 -17 -3 3 -2 15 2 27 4 12 9 19 12 17 3 -3
2 -15 -2 -27z m2592 24 c-3 -3 -12 -4 -19 -1 -8 3 -5 6 6 6 11 1 17 -2 13 -5z
m-70 -11 c-4 -3 -10 -3 -14 0 -3 4 0 7 7 7 7 0 10 -3 7 -7z m-2036 -30 c13
-16 12 -17 -3 -4 -10 7 -18 15 -18 17 0 8 8 3 21 -13z m1434 7 c-11 -5 -27 -9
-35 -9 -9 0 -8 4 5 9 11 5 27 9 35 9 9 0 8 -4 -5 -9z m1097 -12 c-7 -7 -12 -8
-12 -2 0 14 12 26 19 19 2 -3 -1 -11 -7 -17z m-1355 -15 c-4 -3 -7 0 -7 7 0 7
3 10 7 7 3 -4 3 -10 0 -14z m-351 -69 c-55 -20 -74 -40 -85 -88 l-9 -41 -1 35
c-1 20 6 46 15 59 18 25 68 50 99 50 12 0 3 -6 -19 -15z m404 6 c0 -5 -5 -10
-11 -10 -5 0 -7 5 -4 10 3 6 8 10 11 10 2 0 4 -4 4 -10z m660 -10 c0 -5 -4
-10 -10 -10 -5 0 -10 5 -10 10 0 6 5 10 10 10 6 0 10 -4 10 -10z m-13 -47 c-4
-3 -7 0 -7 7 0 7 3 10 7 7 3 -4 3 -10 0 -14z m23 -34 c0 -5 -7 -9 -15 -9 -15
0 -20 12 -9 23 8 8 24 -1 24 -14z m810 -41 c0 -16 9 -41 20 -55 22 -28 26 -76
10 -119 -13 -32 -159 -176 -215 -211 -51 -32 -102 -79 -127 -118 -18 -27 -19
-28 -12 -5 10 36 63 94 151 168 43 35 87 79 98 97 11 18 33 52 49 75 24 37 27
49 21 84 -21 129 -22 136 -8 124 7 -6 13 -24 13 -40z m-333 25 c-4 -3 -10 -3
-14 0 -3 4 0 7 7 7 7 0 10 -3 7 -7z m-130 -80 c-4 -3 -7 0 -7 7 0 7 3 10 7 7
3 -4 3 -10 0 -14z m-240 -60 c-4 -3 -7 0 -7 7 0 7 3 10 7 7 3 -4 3 -10 0 -14z
m-2396 -59 c15 -13 24 -16 36 -8 13 8 23 2 50 -27 39 -43 39 -45 12 -52 -17
-5 -19 -9 -9 -26 8 -15 19 -20 41 -18 36 2 74 -37 63 -66 -8 -21 -24 -13 -24
12 0 10 -10 26 -22 37 -13 10 -18 12 -12 4 7 -8 15 -26 19 -40 4 -14 15 -30
24 -37 14 -10 13 -13 -10 -22 -36 -13 -70 -58 -65 -86 6 -33 35 -85 67 -123
34 -39 79 -124 79 -149 0 -10 -14 7 -30 36 -17 30 -54 76 -83 102 -75 66 -102
124 -102 214 0 81 -5 91 -70 132 -42 26 -65 64 -45 71 6 2 8 7 5 11 -2 5 7 23
20 41 14 19 26 41 26 49 1 9 4 4 6 -10 2 -15 13 -35 24 -45z m2693 30 c3 -9 6
-34 6 -56 0 -60 -24 -43 -28 20 -3 50 9 70 22 36z m-1074 -4 c0 -5 -4 -10 -10
-10 -5 0 -10 5 -10 10 0 6 5 10 10 10 6 0 10 -4 10 -10z m-470 -10 c0 -5 -5
-10 -11 -10 -5 0 -7 5 -4 10 3 6 8 10 11 10 2 0 4 -4 4 -10z m537 -20 c1 -11
-2 -20 -8 -20 -10 0 -12 23 -2 33 9 9 9 10 10 -13z m49 -7 c-10 -10 -19 5 -10
18 6 11 8 11 12 0 2 -7 1 -15 -2 -18z m-606 -7 c0 -16 -24 -38 -33 -30 -8 9
11 44 23 44 6 0 10 -6 10 -14z m353 3 c30 -16 37 -28 37 -65 0 -43 -20 -65
-66 -71 -36 -5 -43 -2 -62 22 -29 36 -28 70 3 100 26 27 54 31 88 14z m1094
-24 c-13 -27 -27 -33 -27 -10 0 11 22 32 37 35 0 0 -4 -11 -10 -25z m-1317 -5
c0 -5 -4 -10 -10 -10 -5 0 -10 5 -10 10 0 6 5 10 10 10 6 0 10 -4 10 -10z
m430 1 c0 -14 -18 -23 -30 -16 -6 4 -8 11 -5 16 8 12 35 12 35 0z m40 -1 c0
-5 -4 -10 -10 -10 -5 0 -10 5 -10 10 0 6 5 10 10 10 6 0 10 -4 10 -10z m-38
-42 c-7 -7 -12 -8 -12 -2 0 14 12 26 19 19 2 -3 -1 -11 -7 -17z m828 -23 c0
-14 -4 -25 -10 -25 -5 0 -10 11 -10 25 0 14 5 25 10 25 6 0 10 -11 10 -25z
m-1628 -5 c-12 -12 -22 -26 -22 -32 0 -6 -3 -8 -6 -5 -9 9 24 57 38 57 7 0 2
-9 -10 -20z m1695 3 c-4 -3 -7 0 -7 7 0 7 3 10 7 7 3 -4 3 -10 0 -14z m73 -7
c0 -8 -4 -18 -10 -21 -5 -3 -10 3 -10 14 0 12 5 21 10 21 6 0 10 -6 10 -14z
m-1063 -23 c-4 -3 -10 -3 -14 0 -3 4 0 7 7 7 7 0 10 -3 7 -7z m83 -7 c0 -2 -7
-7 -16 -10 -8 -3 -12 -2 -9 4 6 10 25 14 25 6z m957 -23 c-4 -3 -7 0 -7 7 0 7
3 10 7 7 3 -4 3 -10 0 -14z m-1289 -28 c-3 -3 -9 2 -12 12 -6 14 -5 15 5 6 7
-7 10 -15 7 -18z m239 8 c-4 -3 -7 0 -7 7 0 7 3 10 7 7 3 -4 3 -10 0 -14z
m1407 -14 c-3 -5 -10 -7 -15 -3 -5 3 -7 10 -3 15 3 5 10 7 15 3 5 -3 7 -10 3
-15z m-1364 -9 c0 -14 -33 -21 -44 -10 -8 8 -7 13 3 19 15 10 41 4 41 -9z
m-460 -20 c0 -5 -4 -10 -10 -10 -5 0 -10 5 -10 10 0 6 5 10 10 10 6 0 10 -4
10 -10z m1800 2 c0 -4 -15 -16 -32 -26 -18 -11 -43 -28 -55 -39 -35 -31 -40
-11 -7 24 37 39 94 64 94 41z m-1303 -34 c-3 -8 -6 -5 -6 6 -1 11 2 17 5 13 3
-3 4 -12 1 -19z m61 -1 c4 -20 -25 -34 -39 -20 -14 14 1 45 20 41 9 -2 17 -11
19 -21z m-1473 -29 c6 -6 0 -8 -19 -6 -16 2 -31 9 -34 17 -3 10 2 11 19 6 13
-4 29 -12 34 -17z m2421 7 c8 -21 -6 -41 -17 -24 -12 19 -11 39 1 39 6 0 13
-7 16 -15z m-1906 -35 c-8 -5 -24 -9 -35 -9 -20 0 -20 0 0 9 11 5 27 9 35 9
13 1 13 0 0 -9z m540 6 c0 -2 -9 -6 -20 -9 -11 -3 -18 -1 -14 4 5 9 34 13 34
5z m1570 -35 c0 -13 -29 -35 -37 -28 -7 8 15 37 28 37 5 0 9 -4 9 -9z m-1600
-21 c0 -12 -26 -25 -65 -34 -28 -6 -28 -5 10 19 43 27 55 30 55 15z m-930 -15
c10 -12 9 -15 -8 -15 -27 0 -52 10 -52 21 0 15 47 10 60 -6z m74 -36 c29 -6
29 -7 5 -8 -14 -1 -34 6 -45 15 -10 8 -13 12 -5 8 8 -4 28 -11 45 -15z m-74
-88 c-1 -11 -8 -8 -25 12 -33 37 -32 57 0 27 14 -13 25 -31 25 -39z m347 13
c2 -7 -8 -9 -27 -6 -16 2 -30 9 -30 14 0 13 53 6 57 -8z m-257 -36 c0 -11 -4
-10 -35 4 -14 6 -25 17 -25 25 0 11 6 11 30 -4 17 -9 30 -21 30 -25z m1145 32
c3 -5 1 -10 -4 -10 -6 0 -11 5 -11 10 0 6 2 10 4 10 3 0 8 -4 11 -10z m-171
-24 c-6 -17 -34 -30 -34 -16 0 5 8 14 18 19 22 13 22 13 16 -3z m-1074 -11 c7
-8 17 -15 23 -15 6 0 18 -7 28 -16 12 -11 48 -18 112 -23 51 -4 98 -11 105
-15 22 -13 14 -56 -12 -66 -67 -25 -234 49 -272 122 -15 30 -5 38 16 13z m388
-11 c12 -8 22 -24 22 -35 0 -28 -34 -24 -54 6 -9 13 -31 29 -49 34 -32 9 -32
9 13 10 26 1 55 -6 68 -15z m319 -11 c-4 -3 -7 0 -7 7 0 7 3 10 7 7 3 -4 3
-10 0 -14z m287 -8 c9 -23 -15 -65 -45 -81 -37 -19 -38 -18 -36 14 l2 27 -63
-3 c-35 -2 -74 -7 -88 -12 -46 -18 -24 1 32 27 48 22 111 37 175 42 9 0 19 -6
23 -14z m468 3 c35 -29 26 -82 -16 -90 -56 -11 -90 54 -44 86 27 19 39 20 60
4z m-1717 -38 c3 -5 4 -10 1 -10 -3 0 -8 5 -11 10 -3 6 -4 10 -1 10 3 0 8 -4
11 -10z m2842 -17 c-4 -3 -7 0 -7 7 0 7 3 10 7 7 3 -4 3 -10 0 -14z m20 -35
c-2 -13 -4 -5 -4 17 -1 22 1 32 4 23 2 -10 2 -28 0 -40z m-2782 22 c3 -5 4
-10 1 -10 -3 0 -8 5 -11 10 -3 6 -4 10 -1 10 3 0 8 -4 11 -10z m1071 3 c-10
-11 -37 -12 -30 -2 3 5 12 9 21 9 9 0 13 -3 9 -7z m706 -8 c0 -5 -5 -11 -11
-13 -6 -2 -11 4 -11 13 0 9 5 15 11 13 6 -2 11 -8 11 -13z m-1750 -52 l21 -23
-20 0 c-26 0 -83 46 -83 66 0 13 5 12 31 -3 16 -10 40 -28 51 -40z m624 42
c-23 -17 -36 -19 -36 -6 0 11 18 19 40 20 11 0 10 -3 -4 -14z m-66 -15 c-8 -5
-19 -10 -25 -10 -5 0 -3 5 5 10 8 5 20 10 25 10 6 0 3 -5 -5 -10z m-503 -17
c-4 -3 -7 0 -7 7 0 7 3 10 7 7 3 -4 3 -10 0 -14z m1333 -3 c0 -5 -4 -10 -10
-10 -5 0 -10 5 -10 10 0 6 5 10 10 10 6 0 10 -4 10 -10z m1337 -7 c-4 -3 -10
-3 -14 0 -3 4 0 7 7 7 7 0 10 -3 7 -7z m-2553 -35 c17 -12 36 -26 41 -32 16
-18 50 -34 117 -58 50 -18 84 -23 163 -23 90 0 107 3 177 33 101 42 112 40 19
-4 -107 -51 -181 -69 -291 -69 -134 0 -205 18 -244 61 -18 19 -45 38 -61 42
-43 12 -55 39 -27 62 27 22 62 18 106 -12z m1691 22 c-3 -5 -10 -10 -16 -10
-5 0 -9 5 -9 10 0 6 7 10 16 10 8 0 12 -4 9 -10z m-68 -7 c-4 -3 -10 -3 -14 0
-3 4 0 7 7 7 7 0 10 -3 7 -7z m-1511 -54 c13 -22 -24 -6 -51 22 l-30 31 38
-22 c20 -12 40 -26 43 -31z m597 24 c-7 -2 -19 -2 -25 0 -7 3 -2 5 12 5 14 0
19 -2 13 -5z m531 -48 c34 -19 53 -35 44 -35 -21 0 -21 -1 -9 -32 22 -61 22
-75 -4 -86 -29 -13 -32 -40 -10 -82 14 -26 14 -30 1 -30 -22 0 -51 35 -66 81
-11 32 -11 47 -2 73 26 72 6 106 -62 106 -36 0 -45 4 -54 25 -7 14 -12 27 -12
29 0 2 26 -1 57 -6 32 -5 82 -23 117 -43z m-584 41 c0 -2 -13 -9 -30 -15 -35
-12 -41 -5 -7 9 25 10 37 12 37 6z m251 -23 c23 -15 36 -29 30 -31 -6 -2 -27
10 -47 27 -43 38 -37 40 17 4z m1756 -5 c-3 -8 -6 -5 -6 6 -1 11 2 17 5 13 3
-3 4 -12 1 -19z m-397 2 c0 -5 -2 -10 -4 -10 -3 0 -8 5 -11 10 -3 6 -1 10 4
10 6 0 11 -4 11 -10z m-2005 -10 c30 0 36 -3 25 -10 -29 -18 -156 -8 -144 12
4 6 23 8 43 4 20 -3 54 -6 76 -6z m1391 -16 c-3 -9 -6 -20 -6 -25 0 -5 -7 -9
-15 -9 -18 0 -19 4 -3 30 15 24 33 27 24 4z m674 -22 c0 -15 -2 -15 -10 -2
-13 20 -13 33 0 25 6 -3 10 -14 10 -23z m-1135 -3 c11 -16 1 -19 -13 -3 -7 8
-8 14 -3 14 5 0 13 -5 16 -11z m252 -16 c-4 -3 -10 -3 -14 0 -3 4 0 7 7 7 7 0
10 -3 7 -7z m-256 -40 c-12 -20 -14 -14 -5 12 4 9 9 14 11 11 3 -2 0 -13 -6
-23z m349 -9 c0 -8 -4 -12 -10 -9 -5 3 -10 10 -10 16 0 5 5 9 10 9 6 0 10 -7
10 -16z m117 9 c-4 -3 -10 -3 -14 0 -3 4 0 7 7 7 7 0 10 -3 7 -7z m605 -91 c1
-34 -1 -64 -5 -68 -4 -4 -7 22 -7 59 0 36 -3 74 -6 84 -5 16 -4 16 5 2 6 -9
12 -44 13 -77z m-1451 66 c40 -13 93 -48 85 -56 -3 -3 -24 8 -46 23 -31 21
-58 30 -108 35 -65 7 -65 7 -16 9 28 0 66 -4 85 -11z m819 2 c0 -5 -7 -10 -15
-10 -8 0 -15 5 -15 10 0 6 7 10 15 10 8 0 15 -4 15 -10z m-453 -17 c-4 -3 -7
0 -7 7 0 7 3 10 7 7 3 -4 3 -10 0 -14z m533 -19 c0 -14 4 -23 10 -19 6 3 10 1
10 -4 0 -6 -10 -9 -22 -7 -13 1 -23 8 -22 14 1 7 2 19 3 27 2 26 21 16 21 -11z
m-311 -15 c-19 -12 -24 -2 -8 17 9 11 14 13 17 4 3 -7 -2 -16 -9 -21z m248 1
c-1 -11 -5 -20 -9 -20 -3 0 -6 9 -5 20 1 11 5 20 9 20 3 0 6 -9 5 -20z m-882
0 c12 -5 -4 -6 -40 -3 -33 3 -62 7 -64 9 -9 8 85 2 104 -6z m113 -63 c33 -30
79 -107 87 -146 5 -23 4 -31 -4 -27 -6 4 -11 12 -11 18 0 43 -106 188 -137
188 -7 0 -13 5 -13 11 0 12 41 -11 78 -44z m114 -9 c30 -40 40 -66 29 -72 -7
-5 -71 86 -71 100 0 14 21 0 42 -28z m-574 5 c-10 -2 -26 -2 -35 0 -10 3 -2 5
17 5 19 0 27 -2 18 -5z m1242 -3 c0 -5 -2 -10 -4 -10 -3 0 -8 5 -11 10 -3 6
-1 10 4 10 6 0 11 -4 11 -10z m1217 -7 c-4 -3 -10 -3 -14 0 -3 4 0 7 7 7 7 0
10 -3 7 -7z m-257 -7 c0 -2 -8 -10 -17 -17 -16 -13 -17 -12 -4 4 13 16 21 21
21 13z m-263 -48 c-3 -7 -5 -2 -5 12 0 14 2 19 5 13 2 -7 2 -19 0 -25z m-1667
2 c0 -5 -2 -10 -4 -10 -3 0 -8 5 -11 10 -3 6 -1 10 4 10 6 0 11 -4 11 -10z
m967 -27 c-4 -3 -10 -3 -14 0 -3 4 0 7 7 7 7 0 10 -3 7 -7z"/>
<path d="M634 3098 c-4 -7 -3 -8 4 -4 7 4 12 9 12 12 0 8 -9 4 -16 -8z"/>
<path d="M2766 3122 c-3 -5 5 -17 17 -25 19 -12 24 -13 24 -2 0 8 -4 12 -8 9
-4 -2 -12 3 -17 12 -6 10 -12 12 -16 6z"/>
<path d="M2761 3084 c13 -16 29 -19 29 -5 0 5 -9 11 -21 14 -16 4 -18 3 -8 -9z"/>
<path d="M2804 3038 c-4 -7 -3 -8 4 -4 12 7 16 16 8 16 -3 0 -8 -5 -12 -12z"/>
<path d="M2820 2917 c-27 -13 -37 -41 -19 -53 7 -4 9 -3 6 4 -4 5 7 22 24 36
33 28 29 32 -11 13z"/>
<path d="M2760 2819 c0 -5 5 -7 10 -4 6 3 10 8 10 11 0 2 -4 4 -10 4 -5 0 -10
-5 -10 -11z"/>
<path d="M2836 2832 l-19 -27 24 22 c12 12 21 24 18 27 -2 2 -13 -8 -23 -22z"/>
<path d="M2986 2815 c-3 -9 -6 -22 -5 -28 0 -7 5 -1 10 12 5 13 8 26 5 28 -2
2 -6 -3 -10 -12z"/>
<path d="M3052 2788 c-18 -18 -24 -20 -31 -10 -13 21 -23 -15 -11 -38 10 -18
11 -18 44 3 18 12 32 24 30 26 -2 3 -18 -5 -34 -18 -17 -12 -30 -18 -30 -13 0
13 53 60 75 65 20 5 20 5 0 6 -11 0 -31 -9 -43 -21z m-35 -35 c-4 -3 -7 0 -7
7 0 7 3 10 7 7 3 -4 3 -10 0 -14z"/>
<path d="M2801 2773 c-10 -26 -10 -27 4 -9 8 11 15 23 15 28 0 15 -7 8 -19
-19z"/>
<path d="M2830 2735 c-7 -9 -11 -17 -9 -20 3 -2 10 5 17 15 14 24 10 26 -8 5z"/>
<path d="M2913 2743 c4 -3 10 -3 14 0 3 4 0 7 -7 7 -7 0 -10 -3 -7 -7z"/>
<path d="M3093 2733 c4 -3 10 -3 14 0 3 4 0 7 -7 7 -7 0 -10 -3 -7 -7z"/>
<path d="M2866 2722 c-3 -5 1 -9 9 -9 8 0 12 4 9 9 -3 4 -7 8 -9 8 -2 0 -6 -4
-9 -8z"/>
<path d="M3060 2720 c-8 -5 -12 -12 -9 -15 4 -3 12 1 19 10 14 17 11 19 -10 5z"/>
<path d="M3173 2723 c4 -3 10 -3 14 0 3 4 0 7 -7 7 -7 0 -10 -3 -7 -7z"/>
<path d="M2995 2663 c-35 -33 -59 -73 -33 -57 5 3 7 8 5 11 -3 2 14 22 37 43
22 22 39 39 36 39 -3 0 -23 -16 -45 -36z"/>
<path d="M3153 2693 c4 -3 10 -3 14 0 3 4 0 7 -7 7 -7 0 -10 -3 -7 -7z"/>
<path d="M3023 2647 c-30 -29 -40 -44 -29 -44 9 0 14 2 12 4 -2 2 15 22 38 43
22 22 37 40 33 40 -5 0 -29 -19 -54 -43z"/>
<path d="M2900 2660 c0 -7 3 -10 7 -7 3 4 3 10 0 14 -4 3 -7 0 -7 -7z"/>
<path d="M2800 2630 c0 -7 3 -10 7 -7 3 4 3 10 0 14 -4 3 -7 0 -7 -7z"/>
<path d="M3096 2569 c-39 -55 -29 -58 12 -3 18 24 29 44 25 44 -4 0 -21 -19
-37 -41z"/>
<path d="M2936 2590 c7 -8 14 -24 17 -35 4 -19 5 -19 6 1 0 12 -7 28 -16 35
-16 12 -17 12 -7 -1z"/>
<path d="M3071 2578 c-14 -23 -14 -23 8 -4 22 20 25 26 13 26 -4 0 -13 -10
-21 -22z"/>
<path d="M3056 2495 c-3 -9 -6 -24 -5 -33 0 -9 5 -4 10 12 9 32 6 48 -5 21z"/>
<path d="M1475 2801 c-6 -11 29 -33 39 -24 7 7 -12 33 -25 33 -4 0 -10 -4 -14
-9z"/>
<path d="M1458 2713 c6 -2 18 -2 25 0 6 3 1 5 -13 5 -14 0 -19 -2 -12 -5z"/>
<path d="M1328 2633 c7 -3 16 -2 19 1 4 3 -2 6 -13 5 -11 0 -14 -3 -6 -6z"/>
<path d="M1385 2614 c17 -17 83 -64 90 -64 3 0 3 6 -1 13 -5 8 -2 8 9 -2 9 -7
17 -21 18 -30 0 -10 2 -11 6 -4 6 16 -32 79 -53 87 -8 3 -12 2 -9 -3 11 -19
-15 -21 -42 -5 -15 10 -23 13 -18 8z m72 -29 c0 -8 -4 -12 -9 -9 -5 3 -6 10
-3 15 9 13 12 11 12 -6z"/>
<path d="M1495 2610 c3 -5 8 -10 11 -10 3 0 2 5 -1 10 -3 6 -8 10 -11 10 -3 0
-2 -4 1 -10z"/>
<path d="M1346 2588 c5 -7 23 -34 41 -59 18 -25 37 -56 42 -70 6 -14 10 -18
10 -8 1 9 -17 43 -38 77 -22 33 -37 63 -34 66 4 3 -1 6 -11 6 -11 0 -15 -4
-10 -12z"/>
<path d="M1510 2580 c0 -7 3 -10 7 -7 3 4 3 10 0 14 -4 3 -7 0 -7 -7z"/>
<path d="M1326 2546 c6 -16 5 -17 -17 -7 -23 12 -23 11 -5 -3 24 -19 48 -4 27
17 -10 10 -11 8 -5 -7z"/>
<path d="M1130 2546 c0 -3 14 -12 30 -21 17 -9 30 -13 30 -11 0 3 -13 12 -30
21 -16 9 -30 13 -30 11z"/>
<path d="M1243 2534 c20 -24 22 -38 5 -27 -7 4 2 -12 20 -35 19 -23 35 -42 36
-42 1 0 3 10 3 22 2 16 0 19 -6 10 -7 -11 -9 -11 -14 2 -3 8 -3 16 1 18 4 2
-8 19 -27 38 -19 19 -27 26 -18 14z m32 -44 c3 -5 4 -10 1 -10 -3 0 -8 5 -11
10 -3 6 -4 10 -1 10 3 0 8 -4 11 -10z"/>
<path d="M1354 2533 c4 -8 2 -13 -6 -13 -7 0 -1 -8 13 -17 14 -9 33 -28 42
-42 9 -14 17 -20 17 -13 0 7 -11 24 -24 37 -13 13 -22 26 -20 28 3 2 -3 10
-13 18 -11 9 -14 10 -9 2z"/>
<path d="M1156 2479 c35 -37 69 -101 89 -163 9 -29 13 -34 14 -18 2 47 -73
183 -113 204 -16 8 -13 2 10 -23z"/>
<path d="M1205 2500 c3 -5 8 -10 11 -10 3 0 2 5 -1 10 -3 6 -8 10 -11 10 -3 0
-2 -4 1 -10z"/>
<path d="M1039 2453 c-13 -16 -12 -17 4 -4 9 7 17 15 17 17 0 8 -8 3 -21 -13z"/>
<path d="M1221 2459 c-1 -24 33 -64 47 -55 7 4 12 13 11 19 0 9 -2 9 -6 0 -8
-22 -22 -14 -37 20 -8 17 -15 25 -15 16z"/>
<path d="M1421 2417 c-1 -11 -6 -15 -13 -11 -7 5 -8 3 -3 -5 10 -16 29 2 22
21 -4 8 -6 7 -6 -5z"/>
<path d="M880 2410 c0 -7 3 -10 7 -7 3 4 3 10 0 14 -4 3 -7 0 -7 -7z"/>
<path d="M848 2403 c7 -3 16 -2 19 1 4 3 -2 6 -13 5 -11 0 -14 -3 -6 -6z"/>
<path d="M982 2380 c0 -14 2 -19 5 -12 2 6 2 18 0 25 -3 6 -5 1 -5 -13z"/>
<path d="M910 2315 c8 -10 28 -26 44 -36 27 -16 27 -17 7 -24 -14 -4 -34 1
-56 14 -19 11 -35 17 -35 12 0 -9 86 -49 115 -53 37 -5 21 24 -35 65 -30 23
-48 33 -40 22z m75 -65 c-3 -5 -12 -10 -18 -10 -7 0 -6 4 3 10 19 12 23 12 15
0z"/>
<path d="M1590 2603 c0 -19 17 -24 30 -8 9 10 9 15 1 15 -6 0 -11 -6 -11 -12
0 -9 -4 -8 -10 2 -6 9 -10 10 -10 3z"/>
<path d="M3166 2503 c-20 -25 -36 -51 -36 -56 0 -6 1 -8 3 -6 37 49 78 109 74
109 -2 0 -21 -21 -41 -47z"/>
<path d="M3140 2420 c0 -7 3 -10 7 -7 3 4 3 10 0 14 -4 3 -7 0 -7 -7z"/>
<path d="M3328 2503 c6 -2 18 -2 25 0 6 3 1 5 -13 5 -14 0 -19 -2 -12 -5z"/>
<path d="M3305 2480 c10 -11 20 -20 23 -20 3 0 -3 9 -13 20 -10 11 -20 20 -23
20 -3 0 3 -9 13 -20z"/>
<path d="M3267 2484 c-12 -12 6 -34 27 -34 21 1 21 1 -2 13 -12 7 -19 16 -16
20 4 4 5 7 2 7 -2 0 -7 -3 -11 -6z"/>
<path d="M3355 2480 c3 -5 8 -10 11 -10 3 0 2 5 -1 10 -3 6 -8 10 -11 10 -3 0
-2 -4 1 -10z"/>
<path d="M3396 2475 c4 -8 11 -15 16 -15 6 0 5 6 -2 15 -7 8 -14 15 -16 15 -2
0 -1 -7 2 -15z"/>
<path d="M3329 2448 c-11 -8 -10 -9 4 -4 9 3 17 1 17 -4 0 -6 -5 -10 -12 -10
-6 0 -9 -2 -6 -5 3 -3 15 -2 26 2 21 8 21 9 3 20 -12 8 -22 8 -32 1z"/>
<path d="M3299 2403 c-13 -16 -12 -17 4 -4 16 13 21 21 13 21 -2 0 -10 -8 -17
-17z"/>
<path d="M3384 2398 c-4 -7 -3 -8 4 -4 12 7 16 16 8 16 -3 0 -8 -5 -12 -12z"/>
<path d="M3244 2368 c-4 -7 -3 -8 4 -4 12 7 16 16 8 16 -3 0 -8 -5 -12 -12z"/>
<path d="M3454 2368 c-4 -7 -3 -8 4 -4 12 7 16 16 8 16 -3 0 -8 -5 -12 -12z"/>
<path d="M3211 2342 c-17 -31 -13 -40 5 -14 9 13 14 26 11 29 -3 2 -10 -4 -16
-15z"/>
<path d="M3416 2345 c-11 -8 -15 -15 -9 -15 6 0 16 7 23 15 16 19 11 19 -14 0z"/>
<path d="M3284 2338 c-4 -7 -3 -8 4 -4 12 7 16 16 8 16 -3 0 -8 -5 -12 -12z"/>
<path d="M3374 2318 c-4 -7 -3 -8 4 -4 7 4 12 9 12 12 0 8 -9 4 -16 -8z"/>
<path d="M3454 2308 c-4 -7 -3 -8 4 -4 12 7 16 16 8 16 -3 0 -8 -5 -12 -12z"/>
<path d="M3265 2240 c3 -5 8 -10 11 -10 3 0 2 5 -1 10 -3 6 -8 10 -11 10 -3 0
-2 -4 1 -10z"/>
<path d="M3363 2243 c4 -3 10 -3 14 0 3 4 0 7 -7 7 -7 0 -10 -3 -7 -7z"/>
<path d="M3577 2223 c-4 -3 -7 -11 -7 -17 0 -6 5 -5 12 2 6 6 9 14 7 17 -3 3
-9 2 -12 -2z"/>
<path d="M3374 2211 c3 -5 15 -7 26 -4 28 7 25 13 -6 13 -14 0 -23 -4 -20 -9z"/>
<path d="M3253 2203 c4 -3 10 -3 14 0 3 4 0 7 -7 7 -7 0 -10 -3 -7 -7z"/>
<path d="M3405 2190 c-13 -6 -15 -9 -5 -9 8 0 22 4 30 9 18 12 2 12 -25 0z"/>
<path d="M3264 2178 c-4 -7 -3 -8 4 -4 12 7 16 16 8 16 -3 0 -8 -5 -12 -12z"/>
<path d="M3433 2173 c4 -3 10 -3 14 0 3 4 0 7 -7 7 -7 0 -10 -3 -7 -7z"/>
<path d="M784 2328 c-4 -7 -3 -8 4 -4 12 7 16 16 8 16 -3 0 -8 -5 -12 -12z"/>
<path d="M3535 2130 c3 -5 8 -10 11 -10 3 0 2 5 -1 10 -3 6 -8 10 -11 10 -3 0
-2 -4 1 -10z"/>
<path d="M1620 2057 c0 -1 18 -23 40 -47 48 -53 54 -45 8 10 -28 34 -48 49
-48 37z"/>
<path d="M1273 2043 c9 -2 23 -2 30 0 6 3 -1 5 -18 5 -16 0 -22 -2 -12 -5z"/>
<path d="M1392 2040 c14 -4 32 -11 40 -15 7 -3 4 1 -6 9 -11 9 -29 16 -40 15
-17 -1 -16 -2 6 -9z"/>
<path d="M1298 2013 c7 -3 16 -2 19 1 4 3 -2 6 -13 5 -11 0 -14 -3 -6 -6z"/>
<path d="M1451 2016 c2 -2 15 -9 29 -15 24 -11 24 -11 6 3 -16 13 -49 24 -35
12z"/>
<path d="M1183 2003 c4 -3 10 -3 14 0 3 4 0 7 -7 7 -7 0 -10 -3 -7 -7z"/>
<path d="M1343 2003 c4 -3 10 -3 14 0 3 4 0 7 -7 7 -7 0 -10 -3 -7 -7z"/>
<path d="M1380 1990 c8 -5 20 -10 25 -10 6 0 3 5 -5 10 -8 5 -19 10 -25 10 -5
0 -3 -5 5 -10z"/>
<path d="M1465 1980 c3 -5 8 -10 11 -10 3 0 2 5 -1 10 -3 6 -8 10 -11 10 -3 0
-2 -4 1 -10z"/>
<path d="M1285 1965 c50 -18 57 -18 25 0 -14 8 -34 14 -45 14 -11 0 -2 -6 20
-14z"/>
<path d="M1367 1961 c4 -16 2 -20 -10 -15 -8 3 -18 1 -22 -5 -3 -7 2 -11 15
-11 24 0 38 26 22 42 -8 8 -9 5 -5 -11z"/>
<path d="M1420 1976 c0 -2 8 -10 18 -17 15 -13 16 -12 3 4 -13 16 -21 21 -21
13z"/>
<path d="M1486 1961 c-3 -4 4 -17 17 -27 22 -19 22 -19 4 2 -9 11 -14 24 -10
27 3 4 4 7 0 7 -3 0 -8 -4 -11 -9z"/>
<path d="M1465 1940 c3 -5 8 -10 11 -10 3 0 2 5 -1 10 -3 6 -8 10 -11 10 -3 0
-2 -4 1 -10z"/>
<path d="M1591 1933 c7 -12 15 -20 18 -17 3 2 -3 12 -13 22 -17 16 -18 16 -5
-5z"/>
<path d="M1635 1940 c3 -5 8 -10 11 -10 3 0 2 5 -1 10 -3 6 -8 10 -11 10 -3 0
-2 -4 1 -10z"/>
<path d="M1093 1923 c4 -3 10 -3 14 0 3 4 0 7 -7 7 -7 0 -10 -3 -7 -7z"/>
<path d="M1330 1917 c0 -3 12 -12 26 -22 15 -9 23 -12 20 -6 -7 11 -46 35 -46
28z"/>
<path d="M1087 1901 c-10 -3 12 -7 50 -7 45 -1 59 2 43 7 -32 9 -70 10 -93 0z"/>
<path d="M1521 1885 c33 -38 49 -68 49 -94 0 -11 3 -22 8 -24 4 -3 7 9 7 26 0
18 5 32 12 32 6 0 15 3 19 7 11 12 12 68 1 68 -5 0 -7 -9 -4 -21 3 -11 3 -27
0 -35 -4 -12 -8 -11 -19 3 -12 15 -13 15 -8 2 3 -10 1 -20 -5 -23 -5 -4 -12 2
-15 12 -4 10 -21 32 -39 48 l-32 29 26 -30z"/>
<path d="M1533 1903 c4 -3 10 -3 14 0 3 4 0 7 -7 7 -7 0 -10 -3 -7 -7z"/>
<path d="M1554 1888 c-4 -7 -3 -8 4 -4 12 7 16 16 8 16 -3 0 -8 -5 -12 -12z"/>
<path d="M1043 1883 c4 -3 10 -3 14 0 3 4 0 7 -7 7 -7 0 -10 -3 -7 -7z"/>
<path d="M1223 1883 c4 -3 10 -3 14 0 3 4 0 7 -7 7 -7 0 -10 -3 -7 -7z"/>
<path d="M1465 1880 c3 -5 8 -10 11 -10 3 0 2 5 -1 10 -3 6 -8 10 -11 10 -3 0
-2 -4 1 -10z"/>
<path d="M1521 1803 c20 -60 26 -139 9 -128 -5 3 -7 0 -4 -8 3 -8 1 -18 -5
-22 -6 -3 -11 -11 -11 -18 0 -7 7 -4 16 5 26 26 30 110 8 174 -10 30 -21 54
-26 54 -4 0 2 -25 13 -57z"/>
<path d="M1653 1843 c4 -6 4 -13 0 -16 -5 -2 -2 -2 5 -1 21 5 14 -65 -10 -105
-14 -22 -16 -31 -7 -24 9 7 19 10 23 6 4 -4 4 0 1 9 -4 9 -2 19 4 23 18 10 13
91 -6 106 -9 8 -14 9 -10 2z"/>
<path d="M1461 1820 c14 -31 19 -36 19 -24 0 6 -7 19 -16 30 -14 18 -14 18 -3
-6z"/>
<path d="M1421 1805 c-1 -5 6 -32 14 -59 22 -72 20 -141 -5 -166 -14 -14 -16
-20 -6 -20 45 0 55 116 18 205 -12 28 -21 46 -21 40z"/>
<path d="M1501 1794 c0 -11 3 -14 6 -6 3 7 2 16 -1 19 -3 4 -6 -2 -5 -13z"/>
<path d="M1511 1754 c0 -11 3 -14 6 -6 3 7 2 16 -1 19 -3 4 -6 -2 -5 -13z"/>
<path d="M953 1703 c4 -3 10 -3 14 0 3 4 0 7 -7 7 -7 0 -10 -3 -7 -7z"/>
<path d="M1215 1641 c44 -20 122 -101 156 -162 12 -21 28 -40 35 -43 14 -5
-39 74 -89 134 -35 41 -103 90 -126 90 -9 0 2 -9 24 -19z"/>
<path d="M957 1613 c18 -2 50 -2 70 0 21 2 7 4 -32 4 -38 0 -55 -2 -38 -4z"/>
<path d="M1073 1603 c4 -3 10 -3 14 0 3 4 0 7 -7 7 -7 0 -10 -3 -7 -7z"/>
<path d="M886 1537 c13 -37 24 -81 24 -97 0 -27 3 -30 33 -29 30 2 30 2 5 6
-16 3 -28 11 -28 19 0 10 7 13 25 9 14 -3 36 -7 50 -10 34 -7 99 -67 115 -105
7 -17 15 -29 17 -26 2 2 -3 18 -11 35 -9 17 -16 33 -16 37 2 16 -78 64 -124
75 -49 11 -54 15 -64 47 l-11 35 87 -6 c48 -3 96 -8 107 -11 11 -4 2 3 -20 14
-32 17 -54 20 -112 17 -51 -3 -73 0 -73 8 0 6 -7 20 -14 31 -9 11 -4 -11 10
-49z"/>
<path d="M1153 1585 c-3 -9 -3 -18 -1 -21 3 -3 8 4 11 16 6 23 -1 27 -10 5z"/>
<path d="M1225 1590 c3 -5 8 -10 11 -10 3 0 2 5 -1 10 -3 6 -8 10 -11 10 -3 0
-2 -4 1 -10z"/>
<path d="M1340 1586 c0 -2 7 -7 16 -10 8 -3 12 -2 9 4 -6 10 -25 14 -25 6z"/>
<path d="M1265 1560 c3 -5 8 -10 11 -10 3 0 2 5 -1 10 -3 6 -8 10 -11 10 -3 0
-2 -4 1 -10z"/>
<path d="M1290 1540 c0 -7 3 -10 7 -7 3 4 3 10 0 14 -4 3 -7 0 -7 -7z"/>
<path d="M1310 1520 c0 -7 3 -10 7 -7 3 4 3 10 0 14 -4 3 -7 0 -7 -7z"/>
<path d="M1018 1493 c7 -3 16 -2 19 1 4 3 -2 6 -13 5 -11 0 -14 -3 -6 -6z"/>
<path d="M1241 1425 c0 -5 8 -26 19 -45 11 -19 19 -30 19 -25 0 6 -8 26 -19
45 -11 19 -19 31 -19 25z"/>
<path d="M980 1406 c0 -2 7 -7 16 -10 8 -3 12 -2 9 4 -6 10 -25 14 -25 6z"/>
<path d="M920 1367 c0 -21 6 -50 14 -65 8 -15 17 -45 21 -66 5 -24 11 -34 17
-28 6 6 2 27 -11 57 -25 56 -26 66 -6 59 8 -4 12 -11 8 -17 -3 -5 -1 -7 5 -3
16 10 71 -63 80 -109 l8 -40 5 32 c3 18 2 30 -3 27 -4 -3 -8 1 -8 9 0 8 -10
26 -21 41 -25 32 -18 47 11 21 11 -10 20 -13 20 -7 0 6 -14 19 -31 28 -17 8
-28 11 -25 5 11 -17 -3 -13 -31 9 -14 11 -29 17 -34 14 -5 -3 -9 4 -9 15 0 13
7 21 18 22 13 0 14 2 2 6 -8 3 -18 11 -22 17 -4 6 -8 -6 -8 -27z"/>
<path d="M1147 1383 c-2 -5 4 -26 14 -48 19 -44 26 -33 7 12 -6 15 -11 31 -10
36 1 4 0 7 -2 7 -3 0 -7 -3 -9 -7z"/>
<path d="M1015 1359 c55 -33 113 -116 99 -142 -5 -8 -4 -9 4 -2 30 27 -40 134
-98 149 -23 6 -23 6 -5 -5z"/>
<path d="M1132 1270 c0 -14 2 -19 5 -12 2 6 2 18 0 25 -3 6 -5 1 -5 -13z"/>
<path d="M1180 1280 c0 -7 3 -10 7 -7 3 4 3 10 0 14 -4 3 -7 0 -7 -7z"/>
<path d="M971 1169 c-1 -8 6 -24 15 -35 15 -19 15 -19 6 1 -5 11 -12 27 -15
35 -5 13 -6 13 -6 -1z"/>
<path d="M2505 3540 c-3 -5 -1 -10 4 -10 6 0 11 5 11 10 0 6 -2 10 -4 10 -3 0
-8 -4 -11 -10z"/>
<path d="M2513 3505 c-21 -23 -16 -65 7 -65 13 0 20 7 20 20 0 11 -4 20 -9 20
-5 0 -7 9 -4 20 6 23 3 25 -14 5z"/>
<path d="M2570 3476 c-15 -39 -12 -46 6 -13 9 16 13 31 10 34 -3 3 -10 -6 -16
-21z"/>
<path d="M2640 3403 c0 -6 8 -17 18 -24 16 -13 16 -13 2 6 -8 11 -16 22 -17
24 -2 2 -3 0 -3 -6z"/>
<path d="M2649 3345 c5 -17 12 -39 15 -50 3 -11 3 -2 1 19 -2 22 -9 44 -15 50
-7 7 -8 2 -1 -19z"/>
<path d="M2670 3350 c0 -7 3 -10 7 -7 3 4 3 10 0 14 -4 3 -7 0 -7 -7z"/>
<path d="M2681 3254 c0 -11 3 -14 6 -6 3 7 2 16 -1 19 -3 4 -6 -2 -5 -13z"/>
<path d="M2476 3160 c-20 -22 -36 -46 -36 -52 0 -7 7 -1 17 12 9 14 27 37 41
53 14 15 23 27 20 27 -3 0 -22 -18 -42 -40z"/>
<path d="M2541 3124 c-12 -15 -21 -32 -21 -38 0 -6 6 -2 12 9 6 11 18 28 26
38 8 9 12 17 9 17 -3 0 -15 -12 -26 -26z"/>
<path d="M2020 3131 c0 -33 14 -41 67 -41 53 0 83 14 83 39 0 17 -27 13 -34
-4 -3 -10 -19 -15 -46 -15 -27 0 -43 5 -46 15 -7 16 -24 21 -24 6z"/>
<path d="M2258 3133 c7 -3 16 -2 19 1 4 3 -2 6 -13 5 -11 0 -14 -3 -6 -6z"/>
<path d="M2619 3123 c-13 -16 -12 -17 4 -4 16 13 21 21 13 21 -2 0 -10 -8 -17
-17z"/>
<path d="M2193 3123 c9 -2 23 -2 30 0 6 3 -1 5 -18 5 -16 0 -22 -2 -12 -5z"/>
<path d="M2360 3110 c0 -5 5 -10 10 -10 6 0 10 5 10 10 0 6 -4 10 -10 10 -5 0
-10 -4 -10 -10z"/>
<path d="M2591 3082 c-17 -31 -13 -40 5 -14 9 13 14 26 11 29 -3 2 -10 -4 -16
-15z"/>
<path d="M2430 3080 c0 -7 3 -10 7 -7 3 4 3 10 0 14 -4 3 -7 0 -7 -7z"/>
<path d="M2118 3072 c21 -3 22 -8 22 -95 0 -128 -4 -137 -51 -137 l-39 0 -1
108 c-2 122 -7 110 -11 -26 l-3 -93 55 3 55 3 3 118 3 118 62 -3 c51 -2 62 -6
61 -20 -1 -15 2 -16 20 -6 20 11 20 10 4 -9 -13 -14 -15 -22 -6 -31 7 -7 10
-39 9 -82 -1 -38 2 -70 7 -70 14 0 62 47 63 62 1 7 5 -9 10 -36 4 -27 15 -56
24 -65 15 -15 15 -14 1 14 -21 39 -20 61 4 147 11 40 20 77 19 83 -1 18 -37
-89 -38 -115 -1 -17 -4 -21 -10 -12 -6 10 -11 6 -20 -15 -6 -16 -21 -34 -32
-41 -20 -13 -21 -12 -14 77 6 67 4 95 -5 106 -7 8 -16 12 -21 9 -5 -3 -9 0 -9
6 0 7 -32 10 -92 8 -51 -1 -83 -4 -70 -6z"/>
<path d="M2510 3060 c0 -7 3 -10 7 -7 3 4 3 10 0 14 -4 3 -7 0 -7 -7z"/>
<path d="M2470 3040 c0 -7 3 -10 7 -7 3 4 3 10 0 14 -4 3 -7 0 -7 -7z"/>
<path d="M1700 3036 c0 -2 7 -9 15 -16 13 -11 14 -10 9 4 -5 14 -24 23 -24 12z"/>
<path d="M1955 3033 c-33 -5 -59 -23 -33 -23 20 0 28 -21 28 -71 0 -38 1 -39
34 -39 19 0 37 4 40 8 3 5 -11 7 -30 6 l-34 -3 1 52 c1 29 4 40 6 25 2 -16 9
-28 15 -28 6 0 8 10 4 24 -7 26 8 44 20 25 4 -8 3 -9 -4 -5 -7 4 -12 2 -12 -3
0 -6 8 -11 18 -11 14 0 15 -2 2 -10 -9 -6 -10 -10 -3 -10 6 0 14 -10 16 -22 2
-13 5 3 6 35 1 63 4 61 -74 50z"/>
<path d="M2114 3028 c-4 -7 -3 -8 4 -4 12 7 16 16 8 16 -3 0 -8 -5 -12 -12z"/>
<path d="M2189 3018 c-10 -18 -8 -24 11 -40 38 -31 83 15 48 50 -19 19 -46 14
-59 -10z m61 -9 c0 -5 -4 -7 -10 -4 -5 3 -10 1 -10 -4 0 -6 -5 -11 -11 -11 -8
0 -8 5 1 15 14 17 30 20 30 4z"/>
<path d="M2570 3030 c0 -7 3 -10 7 -7 3 4 3 10 0 14 -4 3 -7 0 -7 -7z"/>
<path d="M2073 3023 c4 -3 10 -3 14 0 3 4 0 7 -7 7 -7 0 -10 -3 -7 -7z"/>
<path d="M1605 3010 c3 -5 8 -10 11 -10 3 0 2 5 -1 10 -3 6 -8 10 -11 10 -3 0
-2 -4 1 -10z"/>
<path d="M1674 2995 c15 -14 32 -25 38 -25 7 0 -3 11 -22 25 -19 14 -36 25
-38 25 -3 0 7 -11 22 -25z"/>
<path d="M2078 2988 c4 -16 2 -19 -8 -13 -9 5 -11 4 -6 -3 11 -19 26 -14 26 9
0 11 4 18 9 14 5 -3 12 -1 16 5 4 6 -4 10 -18 10 -21 0 -24 -4 -19 -22z"/>
<path d="M1730 2990 c0 -7 3 -10 7 -7 3 4 3 10 0 14 -4 3 -7 0 -7 -7z"/>
<path d="M2560 2990 c0 -7 3 -10 7 -7 3 4 3 10 0 14 -4 3 -7 0 -7 -7z"/>
<path d="M1600 2952 c13 -23 25 -40 27 -39 5 6 -27 66 -39 73 -6 4 -1 -12 12
-34z"/>
<path d="M2340 2980 c0 -7 3 -10 7 -7 3 4 3 10 0 14 -4 3 -7 0 -7 -7z"/>
<path d="M2105 2970 c3 -5 8 -10 11 -10 2 0 4 5 4 10 0 6 -5 10 -11 10 -5 0
-7 -4 -4 -10z"/>
<path d="M2680 2970 c0 -7 3 -10 7 -7 3 4 3 10 0 14 -4 3 -7 0 -7 -7z"/>
<path d="M2420 2960 c0 -7 3 -10 7 -7 3 4 3 10 0 14 -4 3 -7 0 -7 -7z"/>
<path d="M2441 2954 c0 -11 3 -14 6 -6 3 7 2 16 -1 19 -3 4 -6 -2 -5 -13z"/>
<path d="M2060 2930 c0 -13 6 -20 18 -19 10 0 12 3 5 6 -22 8 -14 21 15 26 25
4 25 4 -5 6 -27 1 -33 -3 -33 -19z"/>
<path d="M2206 2943 c-3 -3 -3 -10 0 -14 7 -12 34 -11 34 0 0 11 -26 22 -34
14z"/>
<path d="M2670 2940 c0 -7 3 -10 7 -7 3 4 3 10 0 14 -4 3 -7 0 -7 -7z"/>
<path d="M2165 2930 c3 -5 10 -10 16 -10 5 0 9 5 9 10 0 6 -7 10 -16 10 -8 0
-12 -4 -9 -10z"/>
<path d="M2563 2933 c4 -3 10 -3 14 0 3 4 0 7 -7 7 -7 0 -10 -3 -7 -7z"/>
<path d="M2412 2905 c0 -16 2 -22 5 -12 2 9 2 23 0 30 -3 6 -5 -1 -5 -18z"/>
<path d="M2431 2905 c0 -16 -4 -41 -6 -55 l-6 -25 11 25 c6 13 9 38 7 55 l-4
30 -2 -30z"/>
<path d="M2103 2913 c4 -3 10 -3 14 0 3 4 0 7 -7 7 -7 0 -10 -3 -7 -7z"/>
<path d="M2320 2910 c0 -7 3 -10 7 -7 3 4 3 10 0 14 -4 3 -7 0 -7 -7z"/>
<path d="M2450 2910 c0 -7 3 -10 7 -7 3 4 3 10 0 14 -4 3 -7 0 -7 -7z"/>
<path d="M2497 2880 c3 -25 7 -47 9 -49 8 -9 2 55 -6 74 -6 13 -7 5 -3 -25z"/>
<path d="M2543 2885 c0 -22 2 -30 4 -17 2 12 2 30 0 40 -3 9 -5 -1 -4 -23z"/>
<path d="M2650 2896 c-15 -39 -12 -46 6 -13 9 16 13 31 10 34 -3 3 -10 -6 -16
-21z"/>
<path d="M2690 2910 c0 -7 3 -10 7 -7 3 4 3 10 0 14 -4 3 -7 0 -7 -7z"/>
<path d="M1637 2883 c4 -10 2 -14 -4 -10 -5 3 -10 0 -10 -8 0 -8 2 -13 5 -10
3 2 18 -5 34 -17 l30 -21 -27 42 c-29 43 -38 52 -28 24z m18 -23 c3 -5 4 -10
1 -10 -3 0 -8 5 -11 10 -3 6 -4 10 -1 10 3 0 8 -4 11 -10z"/>
<path d="M2093 2885 c-3 -9 -3 -19 1 -22 3 -4 6 1 6 10 0 8 6 18 13 20 9 4 9
6 -1 6 -7 1 -15 -6 -19 -14z"/>
<path d="M1690 2858 c12 -21 23 -38 25 -38 10 0 -10 41 -27 57 -19 17 -19 15
2 -19z"/>
<path d="M2061 2874 c0 -11 3 -14 6 -6 3 7 2 16 -1 19 -3 4 -6 -2 -5 -13z"/>
<path d="M2110 2870 c0 -7 3 -10 7 -7 3 4 3 10 0 14 -4 3 -7 0 -7 -7z"/>
<path d="M1928 2863 c17 -2 47 -2 65 0 17 2 3 4 -33 4 -36 0 -50 -2 -32 -4z"/>
<path d="M2670 2860 c0 -7 3 -10 7 -7 3 4 3 10 0 14 -4 3 -7 0 -7 -7z"/>
<path d="M2456 2845 c4 -8 11 -15 16 -15 6 0 5 6 -2 15 -7 8 -14 15 -16 15 -2
0 -1 -7 2 -15z"/>
<path d="M2630 2840 c0 -7 3 -10 7 -7 3 4 3 10 0 14 -4 3 -7 0 -7 -7z"/>
<path d="M2440 2820 c0 -7 3 -10 7 -7 3 4 3 10 0 14 -4 3 -7 0 -7 -7z"/>
<path d="M2551 2814 c0 -11 3 -14 6 -6 3 7 2 16 -1 19 -3 4 -6 -2 -5 -13z"/>
<path d="M2510 2813 c0 -7 16 -31 35 -52 24 -27 32 -41 23 -44 -10 -4 -10 -6
-1 -6 7 -1 10 -8 6 -18 -5 -16 -4 -16 8 -3 8 8 21 21 29 28 12 11 13 13 1 10
-9 -2 -23 12 -33 32 -11 21 -16 26 -12 11 8 -31 -11 -19 -37 23 -10 17 -19 25
-19 19z"/>
<path d="M2621 2794 c0 -11 3 -14 6 -6 3 7 2 16 -1 19 -3 4 -6 -2 -5 -13z"/>
<path d="M1836 2739 c-29 -18 -55 -47 -48 -55 4 -4 -3 -4 -15 -1 -19 4 -27 -3
-52 -46 -16 -29 -32 -65 -36 -82 -4 -16 -9 -37 -12 -45 -3 -8 -5 -26 -4 -39 2
-13 -2 -21 -7 -17 -5 3 -12 -1 -16 -9 -8 -23 -3 -19 61 35 32 27 65 50 73 50
12 0 12 2 2 9 -11 7 -10 10 3 15 9 3 21 4 25 1 11 -7 7 22 -5 32 -4 4 -5 2 -1
-4 4 -7 3 -13 -3 -13 -6 0 -26 -16 -46 -35 -20 -21 -40 -33 -47 -29 -7 5 -8 3
-3 -6 5 -9 4 -11 -4 -6 -15 10 -3 30 38 60 35 26 83 85 77 95 -2 3 5 15 15 25
18 19 19 19 19 1 0 -10 10 -29 22 -42 l21 -23 -34 -15 -34 -15 40 6 c46 7 59
-3 67 -48 6 -32 -8 -36 -29 -10 -8 9 -12 11 -8 5 3 -7 1 -13 -4 -13 -6 0 -13
0 -16 0 -3 0 -15 -10 -26 -21 -17 -17 -23 -19 -30 -8 -6 10 -9 8 -9 -8 0 -22
-26 -43 -52 -43 -7 1 -2 7 12 15 30 17 21 19 -15 3 -16 -7 -21 -14 -14 -19 8
-5 8 -12 0 -25 -8 -14 -11 -15 -11 -4 0 11 -3 10 -11 -4 -9 -15 -13 -16 -20
-5 -5 8 -9 9 -9 3 0 -6 7 -18 16 -25 13 -11 17 -10 26 5 12 21 27 35 87 81 36
27 48 31 62 22 10 -6 15 -15 12 -20 -3 -5 3 -7 13 -4 11 4 31 9 46 12 47 12
74 55 69 113 -1 7 -5 11 -10 7 -5 -3 -12 -1 -15 4 -3 5 9 8 28 7 31 -1 33 1
24 18 -6 10 -33 43 -62 72 -46 48 -57 54 -92 54 -21 0 -47 -5 -58 -11z m49 -9
c3 -5 1 -10 -4 -10 -6 0 -11 -5 -11 -10 0 -7 6 -7 19 0 15 7 23 6 35 -6 9 -8
16 -19 16 -23 0 -15 -29 -46 -36 -38 -4 4 -2 7 4 7 7 0 12 11 12 25 0 18 -5
25 -19 25 -14 0 -18 -6 -15 -22 4 -20 3 -20 -4 -4 -5 11 -16 20 -25 22 -17 2
-50 -29 -53 -51 -3 -21 -35 -60 -68 -83 -36 -25 -40 -23 -31 17 4 19 22 42 50
63 24 18 48 43 54 56 15 31 64 52 76 32z m22 -62 c-3 -8 -6 -5 -6 6 -1 11 2
17 5 13 3 -3 4 -12 1 -19z m-40 -5 c-4 -3 -7 0 -7 7 0 7 3 10 7 7 3 -4 3 -10
0 -14z m90 0 c-4 -3 -7 0 -7 7 0 7 3 10 7 7 3 -4 3 -10 0 -14z m50 -20 c-4 -3
-7 0 -7 7 0 7 3 10 7 7 3 -4 3 -10 0 -14z m-62 -12 c-3 -6 4 -15 15 -21 11 -6
20 -16 20 -22 0 -7 -4 -7 -13 1 -8 6 -17 7 -21 3 -4 -4 -6 0 -4 8 2 11 -4 14
-22 13 l-25 -3 25 15 c30 17 33 18 25 6z m32 -8 c-4 -3 -10 -3 -14 0 -3 4 0 7
7 7 7 0 10 -3 7 -7z m0 -70 c-4 -3 -7 0 -7 7 0 7 3 10 7 7 3 -4 3 -10 0 -14z
m-7 -19 c0 -8 -19 -13 -24 -6 -3 5 1 9 9 9 8 0 15 -2 15 -3z m-270 -48 c0 -3
-5 -8 -12 -12 -7 -4 -8 -3 -4 4 7 12 16 16 16 8z"/>
<path d="M1633 2713 c4 -3 10 -3 14 0 3 4 0 7 -7 7 -7 0 -10 -3 -7 -7z"/>
<path d="M2213 2713 c4 -3 10 -3 14 0 3 4 0 7 -7 7 -7 0 -10 -3 -7 -7z"/>
<path d="M2420 2690 c0 -9 27 -27 43 -29 4 0 15 -5 25 -10 16 -10 15 -10 -3
-11 -20 -1 -20 -1 0 -10 29 -12 95 -13 75 0 -8 5 -25 7 -38 3 -15 -3 -22 -1
-20 6 2 7 -16 23 -39 36 -24 14 -43 20 -43 15z"/>
<path d="M2420 2631 c48 -44 96 -65 132 -58 17 3 13 5 -12 7 l-35 3 35 8 c32
7 31 8 -12 5 -30 -2 -45 0 -41 7 3 5 0 8 -8 5 -7 -2 -18 -1 -24 4 -57 45 -74
55 -35 19z"/>
<path d="M2443 2643 c4 -3 10 -3 14 0 3 4 0 7 -7 7 -7 0 -10 -3 -7 -7z"/>
<path d="M2380 2597 c0 -7 9 -13 20 -13 11 0 20 1 20 3 0 1 -9 7 -20 13 -15 8
-20 8 -20 -3z"/>
<path d="M2438 2568 c5 -5 16 -8 23 -6 8 3 3 7 -10 11 -17 4 -21 3 -13 -5z"/>
<path d="M2405 2550 c10 -11 20 -20 23 -20 3 0 -3 9 -13 20 -10 11 -20 20 -23
20 -3 0 3 -9 13 -20z"/>
<path d="M2488 2553 c7 -3 16 -2 19 1 4 3 -2 6 -13 5 -11 0 -14 -3 -6 -6z"/>
<path d="M2094 2525 c9 -13 16 -37 16 -54 0 -38 49 -91 83 -91 32 0 98 -77 77
-90 -9 -5 -4 -8 12 -7 25 2 24 3 -19 52 -24 28 -55 61 -69 75 -14 14 -44 51
-66 83 -40 56 -66 81 -34 32z"/>
<path d="M2619 2523 c-13 -16 -12 -17 4 -4 9 7 17 15 17 17 0 8 -8 3 -21 -13z"/>
<path d="M2400 2511 c0 -7 -3 -10 -7 -8 -5 3 -14 -1 -21 -9 -17 -18 -1 -18 24
0 10 8 16 18 11 22 -4 4 -7 2 -7 -5z"/>
<path d="M2436 2507 c3 -10 9 -15 12 -12 3 3 0 11 -7 18 -10 9 -11 8 -5 -6z"/>
<path d="M2618 2493 c6 -2 18 -2 25 0 6 3 1 5 -13 5 -14 0 -19 -2 -12 -5z"/>
<path d="M2478 2458 c9 -11 9 -18 2 -21 -6 -3 -5 -4 2 -3 7 2 21 -1 31 -6 27
-14 20 -4 -15 22 -18 13 -27 17 -20 8z"/>
<path d="M1928 2443 c7 -3 16 -2 19 1 4 3 -2 6 -13 5 -11 0 -14 -3 -6 -6z"/>
<path d="M2043 2443 c4 -3 10 -3 14 0 3 4 0 7 -7 7 -7 0 -10 -3 -7 -7z"/>
<path d="M1843 2423 c4 -3 10 -3 14 0 3 4 0 7 -7 7 -7 0 -10 -3 -7 -7z"/>
<path d="M1814 2408 c-4 -7 -3 -8 4 -4 12 7 16 16 8 16 -3 0 -8 -5 -12 -12z"/>
<path d="M1998 2403 c23 -2 61 -2 85 0 23 2 4 4 -43 4 -47 0 -66 -2 -42 -4z"/>
<path d="M2510 2400 c0 -7 3 -10 7 -7 3 4 3 10 0 14 -4 3 -7 0 -7 -7z"/>
<path d="M2590 2400 c0 -7 3 -10 7 -7 3 4 3 10 0 14 -4 3 -7 0 -7 -7z"/>
<path d="M1774 2384 c-18 -14 -18 -15 4 -4 12 6 22 13 22 15 0 8 -5 6 -26 -11z"/>
<path d="M2565 2379 c-4 -6 -5 -12 -2 -15 2 -3 7 2 10 11 7 17 1 20 -8 4z"/>
<path d="M1665 2340 c-28 -29 -64 -43 -49 -18 4 6 3 8 -4 4 -6 -3 -15 2 -21
11 -6 10 -11 14 -11 9 0 -5 8 -18 18 -29 16 -20 16 -20 -2 -13 -16 5 -17 4 -6
-9 8 -10 29 -15 64 -14 40 1 46 3 26 9 -20 6 -16 8 23 9 27 1 57 -4 68 -9 15
-8 19 -7 19 5 0 8 -3 14 -7 14 -5 -1 -27 -1 -50 0 -36 1 -43 4 -43 21 0 11 3
19 8 18 4 -2 8 1 10 7 7 21 -16 14 -43 -15z m-38 -47 c-4 -3 -10 -3 -14 0 -3
4 0 7 7 7 7 0 10 -3 7 -7z"/>
<path d="M1792 2351 c-5 -3 45 -7 111 -9 67 -2 120 -2 117 1 -8 7 -217 15
-228 8z"/>
<path d="M2438 2343 c7 -3 16 -2 19 1 4 3 -2 6 -13 5 -11 0 -14 -3 -6 -6z"/>
<path d="M2511 2323 c7 -12 15 -20 18 -17 3 2 -3 12 -13 22 -17 16 -18 16 -5
-5z"/>
<path d="M1751 2326 c2 -2 27 -6 54 -9 32 -4 43 -3 30 3 -19 8 -93 14 -84 6z"/>
<path d="M2163 2323 c4 -3 10 -3 14 0 3 4 0 7 -7 7 -7 0 -10 -3 -7 -7z"/>
<path d="M1945 2310 c33 -4 89 -4 125 0 56 6 48 7 -60 7 -103 0 -115 -1 -65
-7z"/>
<path d="M1845 2285 c47 -14 174 -21 163 -10 -3 3 -32 6 -66 7 -34 1 -59 4
-57 7 1 3 -18 7 -43 8 l-47 2 50 -14z"/>
<path d="M2149 2283 c-13 -16 -12 -17 4 -4 9 7 17 15 17 17 0 8 -8 3 -21 -13z"/>
<path d="M2350 2273 c13 -18 25 -33 27 -33 8 0 -17 38 -33 51 -11 9 -9 2 6
-18z"/>
<path d="M2530 2280 c0 -7 3 -10 7 -7 3 4 3 10 0 14 -4 3 -7 0 -7 -7z"/>
<path d="M1573 2269 c-10 -4 14 -7 52 -7 70 0 71 4 3 10 -20 2 -45 1 -55 -3z"/>
<path d="M1723 2273 c4 -3 10 -3 14 0 3 4 0 7 -7 7 -7 0 -10 -3 -7 -7z"/>
<path d="M2086 2228 c-39 -47 -84 -127 -61 -108 8 7 17 22 21 33 3 12 24 43
46 70 21 26 37 47 34 47 -3 0 -21 -19 -40 -42z"/>
<path d="M2325 2250 c10 -11 20 -20 23 -20 3 0 -3 9 -13 20 -10 11 -20 20 -23
20 -3 0 3 -9 13 -20z"/>
<path d="M1535 2250 c-3 -5 -1 -10 4 -10 6 0 11 5 11 10 0 6 -2 10 -4 10 -3 0
-8 -4 -11 -10z"/>
<path d="M1719 2249 c14 -5 30 -13 36 -17 6 -4 2 1 -8 11 -11 9 -27 17 -36 16
-10 0 -7 -4 8 -10z"/>
<path d="M1926 2241 c-4 -5 12 -7 36 -4 57 8 61 13 10 13 -22 0 -43 -4 -46 -9z"/>
<path d="M2450 2246 c0 -2 7 -7 16 -10 8 -3 12 -2 9 4 -6 10 -25 14 -25 6z"/>
<path d="M1638 2233 c7 -3 16 -2 19 1 4 3 -2 6 -13 5 -11 0 -14 -3 -6 -6z"/>
<path d="M2250 2230 c0 -5 5 -10 10 -10 6 0 10 5 10 10 0 6 -4 10 -10 10 -5 0
-10 -4 -10 -10z"/>
<path d="M2389 2215 c17 -33 31 -51 31 -40 0 6 -10 21 -21 35 -13 17 -17 18
-10 5z"/>
<path d="M1697 2209 c7 -7 15 -10 18 -7 3 3 -2 9 -12 12 -14 6 -15 5 -6 -5z"/>
<path d="M2620 2200 c0 -7 3 -10 7 -7 3 4 3 10 0 14 -4 3 -7 0 -7 -7z"/>
<path d="M1873 2193 c12 -21 36 -80 40 -98 4 -18 5 -17 6 3 1 22 -34 102 -45
102 -3 0 -3 -3 -1 -7z"/>
<path d="M2187 2173 c-19 -16 -43 -34 -53 -40 -15 -10 -13 -10 11 -1 17 7 35
16 41 20 6 5 36 17 65 27 l54 20 -41 0 c-30 1 -50 -6 -77 -26z"/>
<path d="M2553 2189 c-15 -15 -5 -39 17 -39 21 0 45 26 32 34 -6 3 -12 -1 -16
-9 -8 -22 -25 -18 -21 5 4 23 3 24 -12 9z"/>
<path d="M1493 2183 c9 -2 23 -2 30 0 6 3 -1 5 -18 5 -16 0 -22 -2 -12 -5z"/>
<path d="M2079 2173 c-13 -16 -12 -17 4 -4 16 13 21 21 13 21 -2 0 -10 -8 -17
-17z"/>
<path d="M1543 2173 c4 -3 10 -3 14 0 3 4 0 7 -7 7 -7 0 -10 -3 -7 -7z"/>
<path d="M1844 2155 c8 -17 20 -60 26 -95 6 -36 19 -81 27 -100 9 -19 21 -62
29 -95 l13 -60 -5 55 c-3 30 -16 89 -29 130 -13 41 -27 92 -30 112 -3 20 -15
47 -26 60 l-20 23 15 -30z"/>
<path d="M2420 2150 c0 -7 3 -10 7 -7 3 4 3 10 0 14 -4 3 -7 0 -7 -7z"/>
<path d="M2085 2140 c-3 -5 -1 -10 4 -10 6 0 11 5 11 10 0 6 -2 10 -4 10 -3 0
-8 -4 -11 -10z"/>
<path d="M2380 2140 c0 -7 3 -10 7 -7 3 4 3 10 0 14 -4 3 -7 0 -7 -7z"/>
<path d="M2036 2103 c-9 -17 -16 -22 -16 -13 -1 10 -4 9 -10 -5 -8 -18 -9 -18
-10 5 l-2 25 -7 -25 c-14 -47 -21 -121 -11 -115 6 4 8 11 5 16 -4 5 -2 9 4 9
6 0 13 16 17 35 3 19 10 35 15 35 5 0 15 14 24 30 19 38 11 40 -9 3z m-39 -65
c-3 -7 -5 -2 -5 12 0 14 2 19 5 13 2 -7 2 -19 0 -25z"/>
<path d="M2430 2120 c0 -7 3 -10 7 -7 3 4 3 10 0 14 -4 3 -7 0 -7 -7z"/>
<path d="M2396 2100 c3 -14 11 -32 16 -40 6 -10 7 -7 2 10 -3 14 -11 32 -16
40 -6 10 -7 7 -2 -10z"/>
<path d="M1671 2106 c2 -3 17 -7 33 -10 15 -3 38 -11 50 -19 24 -15 56 -28 56
-23 0 12 -93 56 -116 56 -15 0 -25 -2 -23 -4z"/>
<path d="M2071 2084 c0 -11 3 -14 6 -6 3 7 2 16 -1 19 -3 4 -6 -2 -5 -13z"/>
<path d="M2441 2084 c0 -11 3 -14 6 -6 3 7 2 16 -1 19 -3 4 -6 -2 -5 -13z"/>
<path d="M1835 2060 c3 -5 8 -10 11 -10 3 0 2 5 -1 10 -3 6 -8 10 -11 10 -3 0
-2 -4 1 -10z"/>
<path d="M2203 2045 c-18 -8 -33 -17 -33 -20 0 -3 5 -3 11 1 7 4 30 13 53 20
23 7 32 13 21 13 -11 0 -35 -6 -52 -14z"/>
<path d="M2338 2053 c7 -3 16 -2 19 1 4 3 -2 6 -13 5 -11 0 -14 -3 -6 -6z"/>
<path d="M2451 2055 c0 -5 8 -26 19 -45 11 -19 19 -30 19 -25 0 6 -8 26 -19
45 -11 19 -19 31 -19 25z"/>
<path d="M1933 2015 c0 -22 2 -30 4 -17 2 12 2 30 0 40 -3 9 -5 -1 -4 -23z"/>
<path d="M2420 2030 c0 -7 3 -10 7 -7 3 4 3 10 0 14 -4 3 -7 0 -7 -7z"/>
<path d="M1748 2013 c7 -3 16 -2 19 1 4 3 -2 6 -13 5 -11 0 -14 -3 -6 -6z"/>
<path d="M2097 1968 l-52 -51 55 48 c30 27 57 50 59 52 2 2 1 3 -3 3 -4 0 -31
-23 -59 -52z"/>
<path d="M2430 2000 c0 -7 3 -10 7 -7 3 4 3 10 0 14 -4 3 -7 0 -7 -7z"/>
<path d="M2546 1955 c24 -39 24 -40 24 -28 0 6 -9 21 -21 34 l-20 24 17 -30z"/>
<path d="M2120 1945 c-13 -14 -19 -25 -14 -25 8 1 50 50 41 50 -2 0 -14 -11
-27 -25z"/>
<path d="M2275 1955 c-39 -17 -21 -18 25 0 19 7 28 14 20 14 -8 0 -28 -6 -45
-14z"/>
<path d="M2490 1961 c0 -6 4 -13 10 -16 6 -3 7 1 4 9 -7 18 -14 21 -14 7z"/>
<path d="M2450 1953 c0 -6 8 -17 18 -24 16 -13 16 -13 2 6 -8 11 -16 22 -17
24 -2 2 -3 0 -3 -6z"/>
<path d="M2195 1920 c-3 -6 1 -7 9 -4 18 7 21 14 7 14 -6 0 -13 -4 -16 -10z"/>
<path d="M2520 1912 c6 -13 14 -21 18 -18 3 4 -2 14 -12 24 -18 16 -18 16 -6
-6z"/>
<path d="M2408 1913 c6 -2 18 -2 25 0 6 3 1 5 -13 5 -14 0 -19 -2 -12 -5z"/>
<path d="M2164 1898 c-4 -7 -3 -8 4 -4 7 4 12 9 12 12 0 8 -9 4 -16 -8z"/>
<path d="M2373 1903 c4 -3 10 -3 14 0 3 4 0 7 -7 7 -7 0 -10 -3 -7 -7z"/>
<path d="M2485 1900 c3 -5 8 -10 11 -10 3 0 2 5 -1 10 -3 6 -8 10 -11 10 -3 0
-2 -4 1 -10z"/>
<path d="M2075 1890 c3 -5 8 -10 11 -10 3 0 2 5 -1 10 -3 6 -8 10 -11 10 -3 0
-2 -4 1 -10z"/>
<path d="M2314 1878 c-4 -7 -3 -8 4 -4 7 4 12 9 12 12 0 8 -9 4 -16 -8z"/>
<path d="M2505 1870 c3 -5 8 -10 11 -10 3 0 2 5 -1 10 -3 6 -8 10 -11 10 -3 0
-2 -4 1 -10z"/>
<path d="M2279 1853 c-13 -16 -12 -17 4 -4 9 7 17 15 17 17 0 8 -8 3 -21 -13z"/>
<path d="M2545 1840 c10 -11 20 -20 23 -20 3 0 -3 9 -13 20 -10 11 -20 20 -23
20 -3 0 3 -9 13 -20z"/>
<path d="M2303 1783 c4 -3 10 -3 14 0 3 4 0 7 -7 7 -7 0 -10 -3 -7 -7z"/>
<path d="M2353 1773 c4 -3 10 -3 14 0 3 4 0 7 -7 7 -7 0 -10 -3 -7 -7z"/>
<path d="M2398 1763 c7 -3 16 -2 19 1 4 3 -2 6 -13 5 -11 0 -14 -3 -6 -6z"/>
<path d="M2448 1753 c7 -3 16 -2 19 1 4 3 -2 6 -13 5 -11 0 -14 -3 -6 -6z"/>
<path d="M2348 1743 c7 -3 16 -2 19 1 4 3 -2 6 -13 5 -11 0 -14 -3 -6 -6z"/>
<path d="M2488 1743 c7 -3 16 -2 19 1 4 3 -2 6 -13 5 -11 0 -14 -3 -6 -6z"/>
<path d="M1918 1733 c7 -3 16 -2 19 1 4 3 -2 6 -13 5 -11 0 -14 -3 -6 -6z"/>
<path d="M2393 1733 c4 -3 10 -3 14 0 3 4 0 7 -7 7 -7 0 -10 -3 -7 -7z"/>
<path d="M2433 1723 c4 -3 10 -3 14 0 3 4 0 7 -7 7 -7 0 -10 -3 -7 -7z"/>
<path d="M2164 1708 c-4 -7 -3 -8 4 -4 7 4 12 9 12 12 0 8 -9 4 -16 -8z"/>
<path d="M2463 1713 c4 -3 10 -3 14 0 3 4 0 7 -7 7 -7 0 -10 -3 -7 -7z"/>
<path d="M2378 1683 c12 -2 32 -2 45 0 12 2 2 4 -23 4 -25 0 -35 -2 -22 -4z"/>
<path d="M2116 1630 c-20 -22 -36 -43 -36 -47 0 -4 3 -3 8 3 4 5 23 26 41 47
19 20 32 37 29 37 -3 0 -22 -18 -42 -40z"/>
<path d="M2410 1650 c0 -5 7 -10 16 -10 8 0 12 5 9 10 -3 6 -10 10 -16 10 -5
0 -9 -4 -9 -10z"/>
<path d="M2373 1623 c15 -2 39 -2 55 0 15 2 2 4 -28 4 -30 0 -43 -2 -27 -4z"/>
<path d="M2498 1613 c12 -2 30 -2 40 0 9 3 -1 5 -23 4 -22 0 -30 -2 -17 -4z"/>
<path d="M2563 1603 c4 -3 10 -3 14 0 3 4 0 7 -7 7 -7 0 -10 -3 -7 -7z"/>
<path d="M2363 1593 c4 -3 10 -3 14 0 3 4 0 7 -7 7 -7 0 -10 -3 -7 -7z"/>
<path d="M2588 1538 c5 -5 19 -11 32 -13 18 -3 21 -2 12 7 -6 6 -21 12 -32 13
-12 1 -17 -2 -12 -7z"/>
<path d="M2545 1530 c3 -5 8 -10 11 -10 3 0 2 5 -1 10 -3 6 -8 10 -11 10 -3 0
-2 -4 1 -10z"/>
<path d="M2353 1513 c4 -3 10 -3 14 0 3 4 0 7 -7 7 -7 0 -10 -3 -7 -7z"/>
<path d="M2350 1490 c-18 -12 -2 -12 25 0 13 6 15 9 5 9 -8 0 -22 -4 -30 -9z"/>
<path d="M2393 1463 c9 -2 25 -2 35 0 9 3 1 5 -18 5 -19 0 -27 -2 -17 -5z"/>
<path d="M2548 1463 c7 -3 16 -2 19 1 4 3 -2 6 -13 5 -11 0 -14 -3 -6 -6z"/>
<path d="M2583 1453 c4 -3 10 -3 14 0 3 4 0 7 -7 7 -7 0 -10 -3 -7 -7z"/>
<path d="M2571 1416 c2 -2 15 -9 29 -15 24 -11 24 -11 6 3 -16 13 -49 24 -35
12z"/>
<path d="M2287 1380 c-27 -10 -54 -23 -61 -29 -7 -6 -17 -7 -22 -3 -5 4 -6 3
-2 -2 4 -5 1 -18 -7 -30 -25 -35 -16 -39 16 -6 50 49 105 72 194 80 l80 7 -75
1 c-52 1 -90 -5 -123 -18z"/>
<path d="M2613 1373 c4 -3 10 -3 14 0 3 4 0 7 -7 7 -7 0 -10 -3 -7 -7z"/>
<path d="M2640 1366 c0 -3 9 -10 20 -16 11 -6 20 -8 20 -6 0 3 -9 10 -20 16
-11 6 -20 8 -20 6z"/>
<path d="M2292 1298 c-48 -30 -32 -33 19 -3 24 13 37 24 29 24 -8 0 -30 -10
-48 -21z"/>
<path d="M2419 1306 c10 -12 6 -16 -21 -21 -53 -12 -160 -46 -156 -50 2 -2 32
5 67 15 92 29 107 24 25 -9 -67 -26 -144 -67 -144 -77 0 -2 27 10 59 26 35 18
66 28 77 24 15 -5 16 -4 5 4 -18 13 98 51 179 59 63 6 86 -9 78 -52 -3 -13 -1
-22 3 -19 16 9 9 51 -11 69 -19 17 -62 18 -155 0 l-30 -5 27 11 c24 9 26 13
14 25 -19 18 -32 18 -17 0z"/>
<path d="M2468 1303 c7 -3 16 -2 19 1 4 3 -2 6 -13 5 -11 0 -14 -3 -6 -6z"/>
<path d="M2504 1258 c-4 -7 -3 -8 4 -4 12 7 16 16 8 16 -3 0 -8 -5 -12 -12z"/>
<path d="M2468 1253 c7 -3 16 -2 19 1 4 3 -2 6 -13 5 -11 0 -14 -3 -6 -6z"/>
<path d="M2654 1220 c9 -13 16 -39 16 -57 0 -18 4 -33 9 -33 14 0 -5 81 -24
98 -17 16 -17 16 -1 -8z"/>
<path d="M2430 1210 c-20 -6 -21 -8 -5 -8 11 0 34 4 50 8 27 7 27 8 5 8 -14 0
-36 -4 -50 -8z"/>
<path d="M2370 1190 c-8 -5 -10 -10 -5 -10 6 0 17 5 25 10 8 5 11 10 5 10 -5
0 -17 -5 -25 -10z"/>
<path d="M2333 1173 c4 -3 10 -3 14 0 3 4 0 7 -7 7 -7 0 -10 -3 -7 -7z"/>
<path d="M2740 1140 c0 -7 3 -10 7 -7 3 4 3 10 0 14 -4 3 -7 0 -7 -7z"/>
<path d="M2798 1105 c2 -14 -3 -36 -12 -50 -22 -34 -20 -45 4 -15 20 26 27 75
11 84 -4 3 -6 -6 -3 -19z"/>
<path d="M2255 1104 c-22 -8 -44 -19 -49 -24 -16 -16 11 -12 46 6 25 13 36 14
50 5 14 -9 25 -8 46 3 15 9 23 15 19 16 -5 0 -17 -5 -28 -10 -11 -6 -25 -8
-31 -4 -8 5 -5 10 8 15 38 15 -18 9 -61 -7z"/>
<path d="M2383 1113 c4 -3 10 -3 14 0 3 4 0 7 -7 7 -7 0 -10 -3 -7 -7z"/>
<path d="M2540 1100 c-9 -6 -10 -10 -3 -10 6 0 15 5 18 10 8 12 4 12 -15 0z"/>
<path d="M2504 1088 c-4 -7 -3 -8 4 -4 12 7 16 16 8 16 -3 0 -8 -5 -12 -12z"/>
<path d="M2502 1049 c-52 -28 -91 -53 -89 -56 3 -2 22 5 44 17 123 69 157 89
148 90 -5 0 -52 -23 -103 -51z"/>
<path d="M2600 1060 c0 -6 -4 -8 -10 -5 -5 3 -10 -2 -11 -12 0 -11 -3 -13 -6
-5 -4 10 -8 10 -19 1 -8 -6 -11 -16 -7 -22 4 -6 0 -8 -10 -4 -10 3 -17 2 -17
-4 0 -6 -5 -7 -10 -4 -6 3 -13 -1 -16 -9 -3 -9 -10 -13 -15 -10 -5 3 -5 -5 0
-17 4 -13 13 -24 20 -25 6 -1 7 0 1 3 -17 8 -11 31 9 38 33 10 113 73 102 79
-6 4 -11 2 -11 -4z"/>
<path d="M2735 1060 c-4 -6 -10 -8 -14 -6 -11 7 -36 -12 -27 -21 5 -4 11 -2
13 5 3 6 8 10 13 7 4 -3 13 2 20 10 7 8 10 15 7 15 -3 0 -9 -5 -12 -10z"/>
<path d="M2660 1030 c-13 -8 -12 -10 3 -10 9 0 17 5 17 10 0 12 -1 12 -20 0z"/>
<path d="M2335 1000 c-22 -10 -36 -19 -32 -19 12 -1 77 27 77 33 0 7 3 8 -45
-14z"/>
<path d="M2730 1005 c-14 -8 -20 -14 -14 -15 5 0 19 7 30 15 24 18 16 19 -16
0z"/>
<path d="M2683 983 c4 -3 10 -3 14 0 3 4 0 7 -7 7 -7 0 -10 -3 -7 -7z"/>
<path d="M2268 973 c7 -3 16 -2 19 1 4 3 -2 6 -13 5 -11 0 -14 -3 -6 -6z"/>
<path d="M2630 965 c-14 -8 -20 -14 -15 -14 6 0 21 6 35 14 14 8 21 14 15 14
-5 0 -21 -6 -35 -14z"/>
<path d="M2380 935 c-14 -8 -36 -14 -49 -15 -17 0 -22 -3 -15 -10 11 -11 80 5
90 21 10 17 1 18 -26 4z"/>
<path d="M2545 940 c3 -5 12 -7 20 -3 21 7 19 13 -6 13 -11 0 -18 -4 -14 -10z"/>
<path d="M2603 915 c0 -8 4 -12 9 -9 5 3 6 10 3 15 -9 13 -12 11 -12 -6z"/>
<path d="M2785 910 c3 -5 8 -10 11 -10 3 0 2 5 -1 10 -3 6 -8 10 -11 10 -3 0
-2 -4 1 -10z"/>
<path d="M2745 900 c-3 -5 -1 -10 4 -10 6 0 11 5 11 10 0 6 -2 10 -4 10 -3 0
-8 -4 -11 -10z"/>
<path d="M2547 888 c2 -5 -2 -8 -9 -9 -34 -1 -130 -27 -105 -28 37 -1 117 19
140 35 17 11 17 12 -6 10 -14 0 -23 -4 -20 -8z"/>
<path d="M2620 878 c0 -4 18 -8 41 -8 22 0 50 -5 62 -11 21 -10 21 -10 3 5
-11 9 -29 16 -40 17 -12 0 -31 2 -43 3 -13 2 -23 -1 -23 -6z"/>
<path d="M2526 852 c-10 -16 -123 -35 -173 -28 -33 4 -42 3 -28 -3 30 -14 93
-13 154 3 55 15 68 22 59 32 -3 3 -9 1 -12 -4z"/>
<path d="M2634 848 c-4 -7 -3 -8 4 -4 12 7 16 16 8 16 -3 0 -8 -5 -12 -12z"/>
<path d="M2660 840 c0 -7 3 -10 7 -7 3 4 3 10 0 14 -4 3 -7 0 -7 -7z"/>
<path d="M2850 840 c0 -7 3 -10 7 -7 3 4 3 10 0 14 -4 3 -7 0 -7 -7z"/>
<path d="M2825 830 c3 -5 8 -10 11 -10 3 0 2 5 -1 10 -3 6 -8 10 -11 10 -3 0
-2 -4 1 -10z"/>
<path d="M2684 788 c-4 -7 -3 -8 4 -4 7 4 12 9 12 12 0 8 -9 4 -16 -8z"/>
<path d="M2736 782 c-4 -10 -16 -23 -28 -29 -19 -8 -20 -10 -4 -16 10 -4 15
-3 11 3 -3 6 -2 10 4 10 12 0 35 39 28 47 -3 2 -8 -4 -11 -15z"/>
<path d="M2834 778 c-4 -7 -3 -8 4 -4 12 7 16 16 8 16 -3 0 -8 -5 -12 -12z"/>
<path d="M2861 767 c-13 -21 -12 -21 5 -5 10 10 16 20 13 22 -3 3 -11 -5 -18
-17z"/>
<path d="M2804 758 c-4 -7 -3 -8 4 -4 12 7 16 16 8 16 -3 0 -8 -5 -12 -12z"/>
<path d="M2805 730 c-16 -11 -25 -20 -20 -20 10 0 64 39 55 40 -3 0 -18 -9
-35 -20z"/>
<path d="M2663 733 c4 -3 10 -3 14 0 3 4 0 7 -7 7 -7 0 -10 -3 -7 -7z"/>
<path d="M2616 721 c-4 -5 3 -7 14 -4 23 6 26 13 6 13 -8 0 -17 -4 -20 -9z"/>
<path d="M2715 714 c-11 -8 -28 -13 -38 -10 -10 2 -14 0 -10 -7 4 -6 -2 -8
-15 -5 -14 4 -20 2 -15 -5 4 -6 0 -8 -10 -4 -10 3 -17 2 -17 -4 0 -6 -3 -8 -7
-6 -5 2 -19 -8 -33 -21 l-25 -24 55 25 c30 14 74 33 98 43 24 10 45 21 48 26
8 13 -9 9 -31 -8z"/>
<path d="M2813 693 c4 -3 10 -3 14 0 3 4 0 7 -7 7 -7 0 -10 -3 -7 -7z"/>
<path d="M2429 627 c5 -5 19 -7 32 -5 20 3 19 5 -9 9 -20 3 -29 2 -23 -4z"/>
<path d="M2726 595 c-15 -14 -31 -23 -35 -21 -4 3 -8 -1 -8 -9 0 -10 8 -8 31
8 40 28 60 47 48 47 -5 0 -21 -11 -36 -25z"/>
<path d="M2874 598 c-4 -7 -3 -8 4 -4 7 4 12 9 12 12 0 8 -9 4 -16 -8z"/>
<path d="M2843 583 c4 -3 10 -3 14 0 3 4 0 7 -7 7 -7 0 -10 -3 -7 -7z"/>
<path d="M2791 561 c-11 -7 -11 -9 0 -13 15 -5 -161 -98 -183 -98 -7 1 -2 8
12 16 17 10 18 13 5 8 -11 -3 -33 -10 -50 -14 l-30 -8 30 -1 c20 -1 26 -4 17
-10 -11 -7 -10 -10 3 -15 25 -9 32 -7 15 5 -12 9 -12 10 4 5 11 -4 36 4 64 20
25 15 79 42 120 59 56 25 69 34 53 38 -14 3 -19 1 -14 -6 4 -7 0 -8 -11 -4
-10 4 -20 7 -22 7 -3 0 -2 5 1 10 8 12 4 12 -14 1z m29 -25 c0 -2 -7 -7 -16
-10 -8 -3 -12 -2 -9 4 6 10 25 14 25 6z"/>
<path d="M2705 514 c-33 -18 -56 -34 -52 -34 13 0 105 49 112 60 8 12 11 14
-60 -26z"/>
<path d="M2836 508 c-22 -8 -25 -13 -15 -20 10 -7 8 -8 -9 -5 -15 4 -48 -7
-90 -28 -37 -18 -77 -36 -89 -39 -13 -4 -23 -11 -23 -16 0 -5 -7 -6 -17 -3
-11 4 -14 3 -9 -6 9 -14 57 -6 96 15 14 8 61 30 105 49 44 19 71 35 60 35 -18
1 -18 2 3 10 12 5 22 12 22 15 0 3 -1 5 -2 4 -2 0 -16 -5 -32 -11z m-37 -32
c-2 -2 -15 -9 -29 -15 -24 -11 -24 -11 -6 3 16 13 49 24 35 12z"/>
<path d="M2878 493 c7 -3 16 -2 19 1 4 3 -2 6 -13 5 -11 0 -14 -3 -6 -6z"/>
<path d="M2888 463 c6 -2 18 -2 25 0 6 3 1 5 -13 5 -14 0 -19 -2 -12 -5z"/>
<path d="M2840 453 c-8 -3 -57 -25 -108 -50 -52 -24 -100 -42 -108 -39 -8 3
-13 2 -9 -3 3 -5 -1 -12 -7 -14 -7 -3 1 -4 19 -4 17 1 29 5 26 10 -4 6 15 11
44 10 7 -1 11 2 8 6 -3 7 60 41 145 79 25 11 18 15 -10 5z"/>
<path d="M2888 403 c7 -3 16 -2 19 1 4 3 -2 6 -13 5 -11 0 -14 -3 -6 -6z"/>
<path d="M2848 393 c7 -3 16 -2 19 1 4 3 -2 6 -13 5 -11 0 -14 -3 -6 -6z"/>
<path d="M2813 383 c4 -3 10 -3 14 0 3 4 0 7 -7 7 -7 0 -10 -3 -7 -7z"/>
<path d="M2783 373 c4 -3 10 -3 14 0 3 4 0 7 -7 7 -7 0 -10 -3 -7 -7z"/>
<path d="M2696 340 c-60 -31 -86 -49 -53 -37 16 6 15 3 -4 -26 -23 -32 -23
-32 20 6 24 22 61 47 82 56 21 10 36 21 32 24 -10 10 -13 9 -77 -23z m-6 -14
c0 -3 -5 -8 -12 -12 -7 -4 -8 -3 -4 4 7 12 16 16 16 8z"/>
<path d="M2963 363 c4 -3 10 -3 14 0 3 4 0 7 -7 7 -7 0 -10 -3 -7 -7z"/>
<path d="M2890 353 c8 -3 24 -10 35 -15 20 -9 20 -9 1 6 -11 9 -27 16 -35 15
-14 0 -14 -1 -1 -6z"/>
<path d="M2748 253 c7 -3 16 -2 19 1 4 3 -2 6 -13 5 -11 0 -14 -3 -6 -6z"/>
<path d="M2838 253 c7 -3 16 -2 19 1 4 3 -2 6 -13 5 -11 0 -14 -3 -6 -6z"/>
<path d="M2678 239 c-10 -5 -25 -9 -34 -7 -10 2 -18 -4 -19 -14 -2 -10 -3 -18
-2 -18 1 0 24 11 51 25 27 14 43 25 35 25 -8 0 -22 -5 -31 -11z"/>
<path d="M2901 237 c2 -2 18 -11 34 -21 l30 -17 -24 20 c-13 12 -28 21 -34 21
-6 0 -8 -1 -6 -3z"/>
<path d="M2778 223 c12 -2 30 -2 40 0 9 3 -1 5 -23 4 -22 0 -30 -2 -17 -4z"/>
<path d="M2728 213 c7 -3 16 -2 19 1 4 3 -2 6 -13 5 -11 0 -14 -3 -6 -6z"/>
<path d="M2848 213 c7 -3 16 -2 19 1 4 3 -2 6 -13 5 -11 0 -14 -3 -6 -6z"/>
<path d="M2900 196 c0 -2 7 -7 16 -10 8 -3 12 -2 9 4 -6 10 -25 14 -25 6z"/>
<path d="M2645 180 c-3 -6 1 -7 9 -4 18 7 21 14 7 14 -6 0 -13 -4 -16 -10z"/>
<path d="M2955 160 c10 -11 20 -20 23 -20 3 0 -3 9 -13 20 -10 11 -20 20 -23
20 -3 0 3 -9 13 -20z"/>
<path d="M2655 129 c-11 -5 -31 -27 -44 -47 l-23 -37 23 25 c13 14 35 35 49
47 27 25 26 27 -5 12z"/>
<path d="M3013 45 c0 -22 2 -30 4 -17 2 12 2 30 0 40 -3 9 -5 -1 -4 -23z"/>
</g>
</svg>
