<?xml version="1.0" standalone="no"?>
<!DOCTYPE svg PUBLIC "-//W3C//DTD SVG 20010904//EN"
 "http://www.w3.org/TR/2001/REC-SVG-20010904/DTD/svg10.dtd">
<svg version="1.0" xmlns="http://www.w3.org/2000/svg"
 width="400.000000pt" height="400.000000pt" viewBox="0 0 400.000000 400.000000"
 preserveAspectRatio="xMidYMid meet">
<metadata>
Created by potrace 1.10, written by Peter Selinger 2001-2011
</metadata>
<g transform="translate(0.000000,400.000000) scale(0.100000,-0.100000)"
fill="#36b8d9" stroke="none">
<path d="M1181 3984 c0 -11 3 -14 6 -6 3 7 2 16 -1 19 -3 4 -6 -2 -5 -13z"/>
<path d="M1750 3950 c0 -7 3 -10 7 -7 3 4 3 10 0 14 -4 3 -7 0 -7 -7z"/>
<path d="M2050 3861 c-99 -32 -154 -84 -215 -206 -47 -92 -65 -166 -22 -90 29
52 94 100 161 119 71 21 216 21 286 0 57 -17 152 -81 171 -115 10 -20 12 -18
31 20 l20 41 -27 53 c-61 116 -163 179 -300 184 -44 1 -91 -1 -105 -6z"/>
<path d="M1790 3780 c0 -7 3 -10 7 -7 3 4 3 10 0 14 -4 3 -7 0 -7 -7z"/>
<path d="M2730 3778 c0 -8 10 -23 22 -34 l21 -19 -18 30 c-26 41 -25 40 -25
23z"/>
<path d="M2745 3690 c3 -5 8 -10 11 -10 3 0 2 5 -1 10 -3 6 -8 10 -11 10 -3 0
-2 -4 1 -10z"/>
<path d="M1083 3683 c4 -3 10 -3 14 0 3 4 0 7 -7 7 -7 0 -10 -3 -7 -7z"/>
<path d="M2583 3673 c4 -3 10 -3 14 0 3 4 0 7 -7 7 -7 0 -10 -3 -7 -7z"/>
<path d="M1240 3655 c0 -8 5 -15 10 -15 6 0 10 7 10 15 0 8 -4 15 -10 15 -5 0
-10 -7 -10 -15z"/>
<path d="M740 3650 c0 -7 3 -10 7 -7 3 4 3 10 0 14 -4 3 -7 0 -7 -7z"/>
<path d="M1982 3627 c-14 -40 -15 -47 -2 -47 9 0 26 67 18 75 -2 3 -10 -10
-16 -28z"/>
<path d="M1137 3613 c-16 -18 -37 -33 -46 -33 -9 0 -26 -7 -37 -14 -17 -13
-14 -14 24 -2 28 8 53 24 69 45 34 43 26 47 -10 4z"/>
<path d="M1475 3600 c-3 -5 -1 -10 4 -10 6 0 11 5 11 10 0 6 -2 10 -4 10 -3 0
-8 -4 -11 -10z"/>
<path d="M2470 3591 c-13 -26 -13 -110 1 -150 9 -25 14 -29 25 -20 11 9 15 7
20 -5 4 -10 13 -15 23 -12 11 4 10 2 -3 -9 -11 -8 -26 -15 -34 -15 -12 0 -13
-9 -7 -42 4 -24 8 -59 8 -79 1 -31 4 -35 24 -31 15 3 30 -5 47 -23 l25 -27 3
49 3 48 5 -47 c5 -42 3 -48 -18 -58 -15 -6 -21 -7 -17 0 3 5 0 10 -7 10 -14 0
-48 -20 -34 -20 5 0 3 -6 -3 -14 -7 -8 -21 -31 -32 -52 -13 -26 -18 -31 -14
-14 5 20 2 18 -14 -10 -11 -19 -20 -28 -20 -20 -1 31 61 122 90 133 35 14 37
23 5 31 -17 4 -47 -5 -96 -28 -39 -19 -78 -32 -85 -30 -7 3 -23 0 -35 -6 -12
-6 -24 -10 -26 -7 -3 2 26 17 63 32 69 27 123 68 123 92 0 10 -10 6 -32 -10
-18 -14 -51 -34 -73 -45 -93 -46 -315 -74 -417 -53 -61 13 -95 6 -62 -12 11
-6 35 -14 54 -18 l35 -7 -31 -1 c-18 -1 -46 9 -67 24 -43 28 -51 21 -42 -38 9
-50 15 -63 24 -48 7 11 177 18 188 7 4 -3 -32 -6 -79 -6 -93 0 -95 -2 -93 -56
0 -21 -3 -30 -11 -27 -17 6 -51 -13 -64 -36 -8 -16 -7 -19 8 -16 9 1 16 8 15
14 -4 15 10 14 26 -1 11 -11 13 -10 7 5 -4 13 -2 17 6 14 9 -2 12 -24 11 -69
-1 -35 3 -71 8 -79 6 -10 9 -10 9 -1 0 9 34 12 135 12 126 0 135 -1 135 -19 0
-16 9 -20 60 -23 l60 -3 2 35 c1 34 1 34 5 5 3 -16 12 -39 21 -50 15 -17 15
-18 1 -7 -14 10 -18 10 -22 -2 -4 -10 -24 -16 -64 -18 -56 -3 -57 -4 -64 -35
-4 -22 -2 -33 7 -37 15 -6 27 21 14 29 -6 4 -10 14 -10 23 1 16 1 16 11 0 5
-10 16 -18 23 -18 7 0 25 -9 40 -21 22 -18 24 -23 14 -42 -10 -19 -9 -20 4 -9
16 13 31 63 18 59 -5 -1 -8 2 -8 6 -1 5 -9 15 -19 24 -10 8 -11 11 -3 7 35
-17 50 -38 50 -72 0 -30 2 -33 15 -22 9 7 17 11 20 9 2 -3 -18 -20 -46 -38
-27 -19 -48 -41 -48 -50 1 -13 2 -13 6 2 5 20 14 22 31 5 9 -9 12 -7 13 12 1
27 4 22 13 -22 5 -20 11 -26 22 -21 11 4 12 8 4 13 -8 5 -7 9 3 13 10 4 14 0
13 -11 -2 -9 -8 -18 -14 -20 -7 -2 -9 -9 -5 -15 4 -7 -1 -6 -10 2 -25 20 -23
-9 4 -43 23 -30 41 -34 33 -8 -3 9 2 5 11 -10 16 -28 35 -37 35 -17 0 5 -6 7
-12 3 -7 -4 -2 5 11 19 28 31 33 33 24 10 -5 -12 -3 -14 7 -8 8 5 11 4 6 -3
-4 -6 -13 -9 -20 -6 -8 3 -12 -3 -11 -17 2 -24 55 -59 56 -37 0 7 4 3 9 -9 11
-27 37 -30 43 -5 3 10 5 6 6 -10 1 -24 5 -28 32 -28 17 0 40 5 51 11 16 9 19
8 12 -3 -5 -7 -8 -22 -7 -33 1 -16 1 -16 -3 -2 -3 9 -14 17 -24 17 -15 0 -17
-5 -10 -35 4 -20 14 -43 21 -53 7 -9 1 -6 -13 7 -16 14 -24 29 -21 39 4 10 2
13 -5 8 -8 -4 -10 -2 -6 8 4 10 -7 20 -33 31 -21 9 -53 23 -71 31 -18 8 -38
11 -44 8 -6 -4 -8 -2 -5 4 4 5 -17 29 -45 53 -29 23 -58 49 -65 57 -7 8 -26
15 -42 16 -19 1 -26 5 -20 11 14 14 11 28 -6 22 -8 -4 -17 -2 -20 3 -4 6 3 10
14 10 12 0 21 5 21 11 0 5 -3 8 -7 6 -5 -2 -19 7 -33 21 -14 13 -18 21 -10 18
8 -4 6 -1 -4 8 -17 14 -21 13 -47 -5 -24 -17 -27 -24 -18 -40 10 -19 12 -19
35 -4 17 11 29 13 42 6 16 -9 16 -10 0 -16 -20 -8 -25 -26 -6 -22 6 1 18 -20
26 -46 7 -27 16 -46 19 -43 4 3 12 -3 20 -14 8 -11 19 -20 25 -20 6 0 4 8 -5
18 -19 21 -22 38 -7 47 5 3 7 0 4 -9 -7 -17 35 -78 48 -70 5 3 7 0 6 -6 -2 -7
21 -24 50 -39 28 -15 49 -30 46 -34 -3 -3 -16 0 -28 8 -15 10 -31 12 -59 6
-36 -9 -38 -7 -83 43 -56 62 -111 136 -142 192 -26 48 -26 51 -9 57 6 2 4 3
-6 1 -11 -1 -24 10 -36 34 -11 21 -31 48 -46 62 l-27 25 29 7 c26 7 26 7 -5 4
-19 -1 -50 5 -70 16 -47 23 -109 23 -148 -1 -17 -10 -48 -41 -69 -67 -22 -27
-42 -53 -45 -57 -4 -4 -3 14 1 40 12 71 12 70 -23 67 -18 -2 -24 -1 -13 2 11
4 26 11 33 16 8 7 12 7 12 -3 0 -24 16 5 39 68 17 49 20 67 11 83 -6 12 -9 29
-7 38 3 11 5 8 6 -8 2 -43 29 -2 40 60 7 43 9 48 10 21 2 -55 14 -26 14 31
l-1 53 9 -45 c10 -51 -6 -124 -22 -99 -7 11 -9 9 -9 -6 0 -12 -18 -68 -39
-125 -22 -57 -38 -107 -35 -112 3 -4 0 -8 -5 -8 -6 0 -11 -10 -11 -21 0 -19 5
-16 30 16 17 21 46 49 65 62 19 13 35 29 35 36 -1 14 -25 48 -31 43 -2 -3 -2
17 0 42 2 26 9 51 17 55 8 4 14 20 14 34 0 24 1 25 13 10 10 -15 12 -9 9 35
-2 29 -5 74 -5 101 -2 53 -13 61 -28 18 -9 -24 -22 -32 -95 -57 -72 -23 -94
-37 -143 -83 -36 -35 -70 -81 -90 -121 -17 -35 -37 -68 -44 -73 -7 -5 -3 -6
12 -2 16 5 21 4 17 -4 -4 -6 -19 -11 -34 -12 l-27 -1 30 -10 c17 -6 36 -15 43
-21 9 -7 16 -7 24 1 16 16 25 15 25 -3 0 -8 -4 -15 -9 -15 -5 0 -6 -4 -3 -10
11 -19 22 -10 20 17 0 18 -12 34 -35 50 -19 12 -30 23 -25 23 23 0 86 -52 81
-66 -3 -8 0 -27 6 -42 6 -15 10 -34 9 -42 -2 -12 0 -12 10 -3 10 10 10 18 -1
40 -23 46 -24 49 -7 35 9 -8 25 -42 37 -78 23 -67 28 -72 49 -51 7 6 4 -7 -8
-29 -11 -23 -23 -71 -27 -108 -7 -64 -8 -67 -66 -122 -56 -52 -60 -58 -56 -94
4 -41 -2 -48 -72 -81 l-35 -17 32 -1 c64 -2 164 -51 221 -108 30 -32 57 -51
64 -47 7 4 8 3 4 -5 -4 -7 2 -32 13 -57 32 -67 37 -147 13 -221 l-20 -63 22 0
c11 0 45 9 74 20 57 22 132 26 163 9 18 -9 19 -7 14 18 -4 15 -11 40 -16 54
-6 14 -9 30 -8 35 3 13 -10 64 -26 100 -11 26 -11 31 0 31 8 0 13 -3 13 -6 -1
-3 1 -13 5 -21 7 -19 17 -66 22 -105 2 -16 11 -57 19 -90 9 -33 19 -73 22 -90
5 -28 6 -28 34 30 16 33 26 63 24 67 -3 5 -1 7 4 6 10 -3 82 86 82 101 0 5 7
15 17 22 15 13 15 12 3 -11 -7 -14 -33 -52 -58 -85 -24 -33 -52 -78 -62 -100
-24 -56 -34 -131 -19 -141 8 -5 10 -3 4 7 -5 8 -5 11 0 7 4 -4 13 -1 19 7 6 8
36 28 66 45 30 16 49 30 42 30 -7 0 -23 -5 -34 -11 -13 -7 -18 -7 -14 -1 13
21 100 41 146 33 l45 -7 -47 -6 c-78 -9 -213 -89 -224 -132 -3 -12 -1 -33 5
-46 5 -14 10 -19 10 -12 1 8 10 26 21 42 11 15 16 31 12 35 -4 5 -2 6 4 2 5
-3 30 6 55 20 37 22 59 26 139 29 l95 3 -85 -9 c-100 -9 -169 -37 -204 -83
-36 -48 -37 -78 -5 -117 11 -14 18 -19 14 -12 -24 47 74 129 175 147 22 3 8
-5 -39 -24 -79 -32 -125 -67 -116 -89 3 -7 0 -10 -6 -6 -7 4 -9 -5 -5 -26 7
-49 22 -57 30 -17 4 19 13 41 22 48 12 10 12 14 2 22 -9 6 -8 7 5 3 10 -3 25
2 36 12 10 9 22 18 27 19 5 1 23 4 39 7 26 6 25 4 -10 -13 -22 -10 -56 -32
-75 -49 -33 -28 -35 -32 -35 -98 0 -38 -4 -75 -8 -81 -5 -7 -4 -13 1 -13 5 0
7 -12 5 -27 -4 -22 -2 -25 6 -13 8 12 11 7 11 -23 0 -40 21 -100 39 -111 6 -4
26 4 43 18 52 39 283 134 296 122 2 -3 -14 -10 -37 -17 -22 -6 -38 -15 -36
-20 3 -4 -5 -5 -17 -2 -17 3 -19 2 -10 -5 11 -7 11 -10 -3 -15 -9 -4 -13 -3
-10 3 9 14 3 13 -67 -17 -68 -29 -133 -66 -142 -82 -10 -16 16 -60 38 -64 21
-4 21 -4 -1 -6 -33 -2 -18 -36 25 -55 32 -13 15 -13 -28 2 -8 2 -6 -2 5 -11
11 -8 21 -20 21 -26 1 -6 2 -15 3 -20 2 -15 94 -113 115 -122 20 -9 20 -9 -1
-5 -18 3 -21 -1 -21 -25 1 -16 10 -38 21 -50 26 -28 87 -23 177 16 106 45 171
66 189 62 9 -2 -3 -8 -26 -12 -24 -4 -43 -11 -43 -16 0 -5 -3 -8 -7 -7 -15 4
-53 -14 -48 -22 3 -4 -5 -6 -17 -3 -16 3 -19 2 -10 -5 9 -6 5 -9 -17 -10 -16
0 -43 -8 -60 -16 -16 -9 -46 -16 -65 -16 -19 0 -41 -3 -50 -6 -21 -8 -21 -34
0 -34 10 0 14 6 11 14 -4 10 -1 13 9 9 7 -3 14 -9 14 -15 0 -5 4 -6 10 -3 6 4
7 -1 3 -11 -5 -13 -3 -15 7 -9 8 5 11 4 7 -2 -8 -12 47 -95 57 -86 4 4 4 1 1
-8 -3 -8 5 -40 19 -71 33 -75 37 -160 8 -190 -29 -32 -44 -77 -36 -108 6 -23
7 -21 20 21 7 25 24 54 36 65 l22 19 -22 -32 c-14 -19 -19 -38 -15 -49 4 -12
3 -15 -5 -10 -8 5 -12 -2 -12 -20 0 -25 1 -26 18 -12 19 18 91 43 98 35 3 -3
-8 -8 -24 -12 -16 -3 -41 -19 -56 -34 l-28 -29 224 2 223 1 11 33 c5 18 13 30
16 26 10 -9 48 72 48 103 0 51 21 75 85 98 33 12 72 27 86 33 31 13 69 62 69
90 0 25 -63 92 -87 92 -15 0 -14 -3 5 -16 26 -18 28 -41 6 -72 -21 -30 -67
-30 -89 1 l-16 22 6 -26 c13 -52 -54 -65 -93 -17 -9 11 -27 32 -40 47 -19 22
-18 19 3 -14 22 -34 25 -46 19 -80 -4 -22 -8 -63 -8 -92 -1 -32 -8 -59 -18
-70 -14 -16 -15 -20 -2 -37 8 -11 14 -27 14 -35 0 -9 -9 2 -21 24 -12 22 -31
51 -43 65 l-21 25 28 -24 27 -24 0 54 c0 30 -6 61 -12 68 -10 11 -10 13 0 7 6
-4 12 -3 12 2 0 18 -33 119 -54 167 -13 28 -35 100 -51 162 -24 99 -29 111
-42 98 -8 -8 -18 -15 -23 -15 -4 0 7 15 26 34 34 34 40 58 27 106 -7 24 -8 23
-14 -10 l-6 -35 -2 43 c-1 30 -5 41 -13 36 -6 -4 -9 -3 -6 2 3 5 -2 55 -13
112 -17 102 -41 158 -60 147 -5 -4 -7 -10 -4 -15 7 -11 -5 -40 -15 -40 -5 0
-8 15 -8 32 1 44 -7 73 -19 71 -6 -1 -8 9 -5 22 4 24 -28 88 -58 113 -8 8 -10
11 -3 8 8 -5 10 2 7 21 -9 51 -15 61 -47 82 -18 11 -28 21 -24 21 4 0 19 -8
33 -17 l26 -17 -6 55 c-3 30 -6 62 -6 72 -1 9 -7 17 -15 17 -7 0 -17 9 -20 20
-7 21 -74 65 -133 86 -21 7 -29 13 -20 14 23 0 65 -19 116 -53 l44 -29 -6 38
c-3 22 -5 40 -6 41 0 2 -24 16 -52 33 -59 33 -54 42 5 10 l37 -20 0 49 c0 37
-5 53 -17 61 -16 10 -16 11 2 5 64 -22 87 -25 156 -19 75 6 76 6 98 -22 20
-25 22 -36 17 -86 -8 -64 7 -136 29 -145 8 -3 13 -9 10 -13 -6 -10 68 -40 98
-40 71 0 209 75 176 95 -7 5 -10 4 -5 -3 9 -15 0 -19 -85 -36 -105 -23 -129
-21 -169 13 l-35 29 0 102 c0 85 -3 104 -17 114 -10 7 -15 15 -12 19 3 3 -43
4 -102 2 -113 -4 -157 6 -186 43 -11 15 -11 15 3 5 14 -12 15 -8 7 40 -6 28
-10 60 -9 70 0 9 -4 15 -9 12 -6 -4 -7 2 -3 11 4 10 2 15 -3 12 -5 -4 -20 0
-34 8 -14 7 -21 13 -17 14 5 0 18 -5 29 -11 20 -11 21 -10 14 42 -4 29 -14 68
-22 87 -8 19 -14 43 -14 52 0 20 -69 80 -91 80 -12 0 -11 2 0 9 10 6 24 -1 49
-25 39 -38 56 -37 41 3 -5 14 -8 28 -5 30 2 2 9 -11 15 -29 7 -21 8 -34 2 -36
-15 -5 -1 -32 16 -32 8 0 13 -6 10 -12 -2 -7 -10 -12 -16 -10 -8 1 -6 -8 4
-27 8 -17 15 -41 15 -54 0 -29 21 -49 55 -52 21 -3 26 3 39 43 23 71 24 83 31
342 6 216 5 240 -9 240 -9 0 -15 -3 -14 -7 2 -5 -3 -23 -11 -41 -12 -29 -12
-35 5 -55 18 -20 17 -20 -8 2 l-26 23 -7 -44 c-4 -25 -5 -53 -4 -64 2 -10 0
-24 -4 -31 -5 -8 -1 -11 13 -8 11 2 18 0 15 -6 -4 -5 -14 -9 -24 -9 -10 0 -22
-9 -27 -21 -10 -21 -10 -21 -22 6 -9 20 -9 24 0 19 8 -5 9 -2 5 10 -4 10 -4
23 0 29 5 7 10 0 15 -18 7 -30 7 -30 6 5 -2 70 3 87 37 140 35 55 40 78 8 43
-10 -10 -14 -14 -10 -7 6 9 -2 11 -30 7 -49 -6 -114 35 -137 86 l-17 36 36
-40 c19 -22 35 -43 35 -47 0 -3 16 -12 35 -18 36 -12 90 -6 101 11 3 6 -5 7
-20 3 -17 -4 -26 -2 -26 6 0 6 5 8 10 5 6 -3 10 -1 10 5 0 6 5 8 10 5 6 -4 10
7 10 27 1 18 8 47 16 63 8 17 11 21 8 10 -3 -11 -8 -39 -11 -61 -5 -38 -3 -43
23 -56 l29 -14 1 61 c0 61 21 113 62 162 31 35 114 83 144 83 25 0 27 2 18 19
-15 28 -46 35 -82 17 -41 -21 -61 -20 -83 4 -10 12 -38 29 -62 40 -24 10 -43
23 -43 28 0 14 26 33 33 25 4 -3 7 -1 7 6 0 7 4 9 10 6 5 -3 17 -2 26 3 14 8
14 10 -1 25 -26 26 -77 21 -118 -12 -20 -15 -33 -32 -29 -36 4 -5 1 -5 -5 -1
-18 10 -18 11 29 45 23 17 54 31 70 31 l28 0 0 73 c0 53 -3 68 -11 57 -8 -11
-9 -8 -5 15 4 22 -4 49 -29 99 l-34 70 -4 -45 c-3 -38 -4 -35 -5 17 -2 46 -6
63 -18 68 -22 8 -22 8 -27 -11 -3 -12 -5 -9 -6 8 -1 28 -33 64 -45 52 -4 -4
-4 0 0 10 9 25 -32 23 -46 -2z m50 -51 c0 -5 -5 -10 -11 -10 -5 0 -7 5 -4 10
3 6 8 10 11 10 2 0 4 -4 4 -10z m7 -40 c-3 -11 -1 -20 4 -20 5 0 9 -9 9 -20 0
-13 -7 -20 -20 -20 -23 0 -28 42 -7 65 17 20 20 18 14 -5z m49 -37 c-18 -33
-21 -26 -6 13 6 15 13 24 16 21 3 -3 -1 -18 -10 -34z m84 -78 c14 -19 14 -19
-2 -6 -10 7 -18 18 -18 24 0 6 1 8 3 6 1 -2 9 -13 17 -24z m5 -71 c2 -21 2
-30 -1 -19 -3 11 -10 33 -15 50 -7 21 -6 26 1 19 6 -6 13 -28 15 -50z m12 29
c-4 -3 -7 0 -7 7 0 7 3 10 7 7 3 -4 3 -10 0 -14z m10 -95 c-3 -8 -6 -5 -6 6
-1 11 2 17 5 13 3 -3 4 -12 1 -19z m-189 -75 c-14 -16 -32 -39 -41 -53 -10
-13 -17 -19 -17 -12 0 12 68 92 78 92 3 0 -6 -12 -20 -27z m60 -40 c-8 -10
-20 -27 -26 -38 -6 -11 -12 -15 -12 -9 0 12 38 64 47 64 3 0 -1 -8 -9 -17z
m-514 -8 c3 -10 19 -15 46 -15 27 0 43 5 46 15 7 17 34 21 34 4 0 -25 -30 -39
-83 -39 -53 0 -67 8 -67 41 0 15 17 10 24 -6z m233 9 c-3 -3 -12 -4 -19 -1 -8
3 -5 6 6 6 11 1 17 -2 13 -5z m363 2 c0 -2 -8 -10 -17 -17 -16 -13 -17 -12 -4
4 13 16 21 21 21 13z m-417 -13 c-7 -2 -21 -2 -30 0 -10 3 -4 5 12 5 17 0 24
-2 18 -5z m157 -13 c0 -5 -4 -10 -10 -10 -5 0 -10 5 -10 10 0 6 5 10 10 10 6
0 10 -4 10 -10z m216 -42 c-18 -26 -22 -17 -5 14 6 11 13 17 16 15 3 -3 -2
-16 -11 -29z m-159 5 c-4 -3 -7 0 -7 7 0 7 3 10 7 7 3 -4 3 -10 0 -14z m-157
-3 c0 -6 4 -9 9 -6 5 3 14 -1 21 -9 9 -11 11 -39 5 -106 -7 -89 -6 -90 14 -77
11 7 26 25 32 41 9 21 14 25 20 15 6 -9 9 -5 10 12 1 26 37 133 38 115 1 -6
-8 -43 -19 -83 -24 -86 -25 -108 -4 -147 14 -28 14 -29 -1 -14 -9 9 -20 38
-24 65 -5 27 -9 43 -10 36 -1 -15 -49 -62 -63 -62 -5 0 -8 32 -7 70 1 43 -2
75 -9 82 -9 9 -7 17 6 31 16 19 16 20 -4 9 -18 -10 -21 -9 -20 6 1 14 -10 18
-61 20 l-62 3 -3 -118 -3 -118 -55 -3 -55 -3 3 93 c4 136 9 148 11 26 l1 -108
39 0 c47 0 51 9 51 137 0 87 -1 92 -22 95 -13 2 19 5 70 6 60 2 92 -1 92 -8z
m237 -17 c-4 -3 -7 0 -7 7 0 7 3 10 7 7 3 -4 3 -10 0 -14z m-40 -20 c-4 -3 -7
0 -7 7 0 7 3 10 7 7 3 -4 3 -10 0 -14z m-753 -9 c5 -14 4 -15 -9 -4 -17 14
-19 20 -6 20 5 0 12 -7 15 -16z m305 -41 c-1 -32 -4 -48 -6 -35 -2 12 -10 22
-16 22 -7 0 -6 4 3 10 13 8 12 10 -2 10 -10 0 -18 5 -18 11 0 5 5 7 12 3 7 -4
8 -3 4 5 -12 19 -27 1 -20 -25 4 -14 2 -24 -4 -24 -6 0 -13 12 -15 28 -2 15
-5 4 -6 -25 l-1 -52 34 3 c19 1 33 -1 30 -6 -3 -4 -21 -8 -40 -8 -33 0 -34 1
-34 39 0 50 -8 71 -28 71 -26 0 0 18 33 23 78 11 75 13 74 -50z m101 53 c0 -3
-5 -8 -12 -12 -7 -4 -8 -3 -4 4 7 12 16 16 16 8z m118 -8 c35 -35 -10 -81 -48
-50 -19 16 -21 22 -11 40 13 24 40 29 59 10z m329 -5 c-4 -3 -7 0 -7 7 0 7 3
10 7 7 3 -4 3 -10 0 -14z m-490 0 c-4 -3 -10 -3 -14 0 -3 4 0 7 7 7 7 0 10 -3
7 -7z m-472 -13 c3 -5 4 -10 1 -10 -3 0 -8 5 -11 10 -3 6 -4 10 -1 10 3 0 8
-4 11 -10z m75 -15 c19 -14 29 -25 22 -25 -6 0 -23 11 -38 25 -15 14 -25 25
-22 25 2 0 19 -11 38 -25z m425 5 c-4 -6 -11 -8 -16 -5 -5 4 -9 -3 -9 -14 0
-23 -15 -28 -26 -9 -5 7 -3 8 6 3 10 -6 12 -3 8 13 -5 18 -2 22 19 22 14 0 22
-4 18 -10z m-378 -17 c-4 -3 -7 0 -7 7 0 7 3 10 7 7 3 -4 3 -10 0 -14z m830 0
c-4 -3 -7 0 -7 7 0 7 3 10 7 7 3 -4 3 -10 0 -14z m-953 -35 c24 -47 13 -44
-14 4 -13 22 -18 38 -12 34 6 -3 18 -21 26 -38z m733 25 c-4 -3 -7 0 -7 7 0 7
3 10 7 7 3 -4 3 -10 0 -14z m-227 -3 c0 -5 -2 -10 -4 -10 -3 0 -8 5 -11 10 -3
6 -1 10 4 10 6 0 11 -4 11 -10z m567 -7 c-4 -3 -7 0 -7 7 0 7 3 10 7 7 3 -4 3
-10 0 -14z m-260 -10 c-4 -3 -7 0 -7 7 0 7 3 10 7 7 3 -4 3 -10 0 -14z m20 -5
c-3 -8 -6 -5 -6 6 -1 11 2 17 5 13 3 -3 4 -12 1 -19z m-349 -5 c-29 -5 -37
-18 -15 -26 7 -3 5 -6 -5 -6 -12 -1 -18 6 -18 19 0 16 6 20 33 19 30 -2 30 -2
5 -6z m142 -14 c0 -11 -27 -12 -34 0 -3 4 -3 11 0 14 8 8 34 -3 34 -14z m437
4 c-4 -3 -7 0 -7 7 0 7 3 10 7 7 3 -4 3 -10 0 -14z m-487 -3 c0 -5 -4 -10 -9
-10 -6 0 -13 5 -16 10 -3 6 1 10 9 10 9 0 16 -4 16 -10z m387 3 c-4 -3 -10 -3
-14 0 -3 4 0 7 7 7 7 0 10 -3 7 -7z m-160 -40 c-3 -10 -5 -4 -5 12 0 17 2 24
5 18 2 -7 2 -21 0 -30z m13 -43 l-11 -25 6 25 c2 14 6 39 6 55 l2 30 4 -30 c2
-17 -1 -42 -7 -55z m-313 63 c-4 -3 -10 -3 -14 0 -3 4 0 7 7 7 7 0 10 -3 7 -7z
m210 -10 c-4 -3 -7 0 -7 7 0 7 3 10 7 7 3 -4 3 -10 0 -14z m130 0 c-4 -3 -7 0
-7 7 0 7 3 10 7 7 3 -4 3 -10 0 -14z m52 -47 c1 -42 -5 -29 -12 24 -4 30 -3
38 3 25 5 -11 9 -33 9 -49z m38 12 c-2 -13 -4 -5 -4 17 -1 22 1 32 4 23 2 -10
2 -28 0 -40z m109 15 c-18 -33 -21 -26 -6 13 6 15 13 24 16 21 3 -3 -1 -18
-10 -34z m41 20 c-4 -3 -7 0 -7 7 0 7 3 10 7 7 3 -4 3 -10 0 -14z m-1032 -44
l27 -42 -30 21 c-16 12 -31 19 -34 17 -3 -3 -5 2 -5 10 0 8 5 11 10 8 6 -4 8
0 4 10 -10 28 -1 19 28 -24z m448 34 c-7 -2 -13 -12 -13 -20 0 -9 -3 -14 -6
-10 -10 10 4 37 18 36 10 0 10 -2 1 -6z m-400 -54 c8 -28 2 -24 -23 19 -21 34
-21 36 -2 19 11 -10 22 -27 25 -38z m354 29 c-3 -8 -6 -5 -6 6 -1 11 2 17 5
13 3 -3 4 -12 1 -19z m50 -5 c-4 -3 -7 0 -7 7 0 7 3 10 7 7 3 -4 3 -10 0 -14z
m-124 0 c-18 -2 -48 -2 -65 0 -18 2 -4 4 32 4 36 0 50 -2 33 -4z m684 -10 c-4
-3 -7 0 -7 7 0 7 3 10 7 7 3 -4 3 -10 0 -14z m-207 -8 c7 -9 8 -15 2 -15 -5 0
-12 7 -16 15 -3 8 -4 15 -2 15 2 0 9 -7 16 -15z m167 -12 c-4 -3 -7 0 -7 7 0
7 3 10 7 7 3 -4 3 -10 0 -14z m-190 -20 c-4 -3 -7 0 -7 7 0 7 3 10 7 7 3 -4 3
-10 0 -14z m110 -5 c-3 -8 -6 -5 -6 6 -1 11 2 17 5 13 3 -3 4 -12 1 -19z m3
-53 c9 -5 10 -1 6 16 -4 15 1 10 12 -11 10 -20 24 -34 33 -32 12 3 11 1 -1
-10 -8 -7 -21 -20 -29 -28 -12 -13 -13 -13 -8 3 4 10 1 17 -6 18 -9 0 -9 2 1
6 9 3 1 17 -23 44 -19 21 -35 45 -35 52 0 6 9 -2 19 -19 11 -18 25 -35 31 -39z
m-1051 42 c6 -8 8 -17 5 -20 -10 -9 -45 13 -39 24 9 13 21 11 34 -4z m1118 -9
c-3 -8 -6 -5 -6 6 -1 11 2 17 5 13 3 -3 4 -12 1 -19z m-641 -92 c29 -29 56
-62 62 -72 9 -17 7 -19 -24 -18 -19 1 -31 -2 -28 -7 3 -5 10 -7 15 -4 5 4 9 0
10 -7 5 -58 -22 -101 -69 -113 -15 -3 -35 -8 -46 -12 -10 -3 -16 -1 -13 4 3 5
-2 14 -12 20 -14 9 -26 5 -62 -22 -60 -46 -75 -60 -87 -81 -9 -15 -13 -16 -26
-5 -9 7 -16 19 -16 25 0 6 4 5 9 -3 7 -11 11 -10 20 5 8 14 11 15 11 4 0 -11
3 -10 11 4 8 13 8 20 0 25 -7 5 -2 12 14 19 36 16 45 14 15 -3 -14 -8 -19 -14
-12 -15 26 0 52 21 52 43 0 16 3 18 9 8 7 -11 13 -9 30 8 11 11 23 21 26 21 3
0 10 0 16 0 5 0 7 6 4 13 -4 6 0 4 8 -5 21 -26 35 -22 29 10 -8 45 -21 55 -67
48 l-40 -6 34 15 34 15 -21 23 c-12 13 -22 32 -22 42 0 18 -1 18 -19 -1 -10
-10 -17 -22 -15 -25 6 -10 -42 -69 -77 -95 -41 -30 -53 -50 -38 -60 8 -5 9 -3
4 6 -5 9 -4 11 3 6 7 -4 27 8 47 29 20 19 40 35 46 35 6 0 7 6 3 13 -4 6 -3 8
1 4 12 -10 16 -39 5 -32 -4 3 -16 2 -25 -1 -13 -5 -14 -8 -3 -15 10 -7 10 -9
-2 -9 -8 0 -41 -23 -73 -50 -64 -54 -69 -58 -61 -35 4 8 11 12 16 9 5 -4 9 4
7 17 -1 13 1 31 4 39 3 8 8 29 12 45 4 17 20 53 36 82 25 43 33 50 52 46 12
-3 19 -3 15 1 -7 8 19 37 48 55 11 6 37 11 58 11 35 0 46 -6 92 -54z m-339 17
c-4 -3 -10 -3 -14 0 -3 4 0 7 7 7 7 0 10 -3 7 -7z m580 0 c-4 -3 -10 -3 -14 0
-3 4 0 7 7 7 7 0 10 -3 7 -7z m275 -74 c-2 -7 5 -9 20 -6 13 4 30 2 38 -3 20
-13 -46 -12 -75 0 -20 9 -20 9 0 10 18 1 19 1 3 11 -10 5 -21 10 -25 10 -16 2
-43 20 -43 29 0 5 19 -1 43 -15 23 -13 41 -29 39 -36z m-47 -27 c6 -5 17 -6
24 -4 8 3 11 0 8 -5 -4 -7 11 -9 41 -7 43 3 44 2 12 -5 l-35 -8 35 -3 c25 -2
29 -4 12 -7 -36 -7 -84 14 -132 58 -39 36 -22 26 35 -19z m2 31 c-4 -3 -10 -3
-14 0 -3 4 0 7 7 7 7 0 10 -3 7 -7z m-37 -56 c0 -2 -9 -3 -20 -3 -11 0 -20 6
-20 13 0 11 5 11 20 3 11 -6 20 -12 20 -13z m41 -25 c-7 -2 -18 1 -23 6 -8 8
-4 9 13 5 13 -4 18 -8 10 -11z m-46 -12 c10 -11 16 -20 13 -20 -3 0 -13 9 -23
20 -10 11 -16 20 -13 20 3 0 13 -9 23 -20z m92 4 c-3 -3 -12 -4 -19 -1 -8 3
-5 6 6 6 11 1 17 -2 13 -5z m-379 -61 c22 -32 52 -69 66 -83 14 -14 45 -47 69
-75 43 -49 44 -50 19 -52 -16 -1 -21 2 -12 7 21 13 -45 90 -77 90 -34 0 -83
53 -83 91 0 17 -7 41 -16 54 -32 49 -6 24 34 -32z m512 43 c0 -2 -8 -10 -17
-17 -16 -13 -17 -12 -4 4 13 16 21 21 21 13z m-244 -42 c-25 -18 -41 -18 -24
0 7 8 16 12 21 9 4 -2 7 1 7 8 0 7 3 9 7 5 5 -4 -1 -14 -11 -22z m52 1 c-3 -3
-9 2 -12 12 -6 14 -5 15 5 6 7 -7 10 -15 7 -18z m195 -2 c-7 -2 -19 -2 -25 0
-7 3 -2 5 12 5 14 0 19 -2 13 -5z m-113 -70 c0 -2 -8 0 -17 5 -10 5 -24 8 -31
6 -7 -1 -8 0 -2 3 7 3 7 10 -2 21 -7 9 2 5 20 -8 17 -13 32 -25 32 -27z m-583
21 c-3 -3 -12 -4 -19 -1 -8 3 -5 6 6 6 11 1 17 -2 13 -5z m110 -1 c-4 -3 -10
-3 -14 0 -3 4 0 7 7 7 7 0 10 -3 7 -7z m-200 -20 c-4 -3 -10 -3 -14 0 -3 4 0
7 7 7 7 0 10 -3 7 -7z m-27 -7 c0 -3 -5 -8 -12 -12 -7 -4 -8 -3 -4 4 7 12 16
16 16 8z m253 -13 c-24 -2 -62 -2 -85 0 -24 2 -5 4 42 4 47 0 66 -2 43 -4z
m434 -10 c-4 -3 -7 0 -7 7 0 7 3 10 7 7 3 -4 3 -10 0 -14z m80 0 c-4 -3 -7 0
-7 7 0 7 3 10 7 7 3 -4 3 -10 0 -14z m-797 2 c0 -2 -10 -9 -22 -15 -22 -11
-22 -10 -4 4 21 17 26 19 26 11z m773 -20 c-3 -9 -8 -14 -10 -11 -3 3 -2 9 2
15 9 16 15 13 8 -4z m-865 -20 c-2 -6 -6 -9 -10 -7 -5 1 -8 -7 -8 -18 0 -17 7
-20 43 -21 23 -1 45 -1 50 0 4 0 7 -6 7 -14 0 -12 -4 -13 -19 -5 -11 5 -41 10
-68 9 -39 -1 -43 -3 -23 -9 20 -6 14 -8 -26 -9 -35 -1 -56 4 -64 14 -11 13
-10 14 6 9 18 -7 18 -7 2 13 -10 11 -18 24 -18 29 0 5 5 1 11 -9 6 -9 15 -14
21 -11 7 4 8 2 4 -4 -15 -25 21 -11 49 18 27 29 50 36 43 15z m312 -12 c3 -3
-50 -3 -117 -1 -66 2 -116 6 -111 9 11 7 220 -1 228 -8z m437 1 c-3 -3 -12 -4
-19 -1 -8 3 -5 6 6 6 11 1 17 -2 13 -5z m72 -38 c-3 -3 -11 5 -18 17 -13 21
-12 21 5 5 10 -10 16 -20 13 -22z m-694 14 c13 -6 2 -7 -30 -3 -27 3 -52 7
-54 9 -9 8 65 2 84 -6z m342 3 c-4 -3 -10 -3 -14 0 -3 4 0 7 7 7 7 0 10 -3 7
-7z m-107 -13 c-36 -4 -92 -4 -125 0 -50 6 -38 7 65 7 108 0 116 -1 60 -7z
m-185 -21 c-2 -3 23 -6 57 -7 34 -1 63 -4 66 -7 11 -11 -116 -4 -163 10 l-50
14 47 -2 c25 -1 44 -5 43 -8z m285 7 c0 -2 -8 -10 -17 -17 -16 -13 -17 -12 -4
4 13 16 21 21 21 13z m201 -38 c15 -28 5 -21 -21 15 -15 20 -17 27 -6 18 9 -8
22 -23 27 -33z m166 15 c-4 -3 -7 0 -7 7 0 7 3 10 7 7 3 -4 3 -10 0 -14z
m-857 -7 c8 -2 -16 -4 -55 -4 -38 0 -62 3 -52 7 17 6 70 5 107 -3z m57 7 c-4
-3 -10 -3 -14 0 -3 4 0 7 7 7 7 0 10 -3 7 -7z m355 -50 c-22 -27 -43 -58 -46
-70 -4 -11 -13 -26 -21 -33 -23 -19 22 61 61 108 19 23 37 42 40 42 3 0 -13
-21 -34 -47z m243 27 c10 -11 16 -20 13 -20 -3 0 -13 9 -23 20 -10 11 -16 20
-13 20 3 0 13 -9 23 -20z m-785 0 c0 -5 -5 -10 -11 -10 -5 0 -7 5 -4 10 3 6 8
10 11 10 2 0 4 -4 4 -10z m197 -7 c10 -10 14 -15 8 -11 -6 4 -22 12 -36 17
-15 6 -18 10 -8 10 9 1 25 -7 36 -16z m262 3 c-10 -8 -89 -13 -83 -5 3 5 24 9
46 9 23 0 39 -2 37 -4z m466 -6 c3 -6 -1 -7 -9 -4 -18 7 -21 14 -7 14 6 0 13
-4 16 -10z m-818 -6 c-3 -3 -12 -4 -19 -1 -8 3 -5 6 6 6 11 1 17 -2 13 -5z
m613 -4 c0 -5 -4 -10 -10 -10 -5 0 -10 5 -10 10 0 6 5 10 10 10 6 0 10 -4 10
-10z m150 -55 c0 -11 -14 7 -31 40 -7 13 -3 12 10 -5 11 -14 21 -29 21 -35z
m-705 27 c-3 -3 -11 0 -18 7 -9 10 -8 11 6 5 10 -3 15 -9 12 -12z m912 -9 c-4
-3 -7 0 -7 7 0 7 3 10 7 7 3 -4 3 -10 0 -14z m-727 -33 c11 -21 19 -50 19 -62
-1 -20 -2 -21 -6 -3 -4 18 -28 77 -40 98 -2 4 -2 7 1 7 3 0 15 -18 26 -40z
m351 19 c-29 -10 -59 -22 -65 -27 -6 -4 -24 -13 -41 -20 -24 -9 -26 -9 -11 1
10 6 34 24 53 40 27 20 47 27 77 26 l41 0 -54 -20z m314 1 c-4 -23 13 -27 21
-5 4 8 10 12 16 9 13 -8 -11 -34 -32 -34 -22 0 -32 24 -17 39 15 15 16 14 12
-9z m-1042 3 c-7 -2 -21 -2 -30 0 -10 3 -4 5 12 5 17 0 24 -2 18 -5z m577 3
c0 -2 -8 -10 -17 -17 -16 -13 -17 -12 -4 4 13 16 21 21 21 13z m-543 -13 c-4
-3 -10 -3 -14 0 -3 4 0 7 7 7 7 0 10 -3 7 -7z m318 -71 c3 -20 17 -71 30 -112
13 -41 26 -100 29 -130 l5 -55 -13 60 c-8 33 -20 76 -29 95 -8 19 -21 64 -27
100 -6 35 -18 78 -26 95 l-15 30 20 -23 c11 -13 23 -40 26 -60z m552 41 c-4
-3 -7 0 -7 7 0 7 3 10 7 7 3 -4 3 -10 0 -14z m-327 -3 c0 -5 -5 -10 -11 -10
-5 0 -7 5 -4 10 3 6 8 10 11 10 2 0 4 -4 4 -10z m287 -7 c-4 -3 -7 0 -7 7 0 7
3 10 7 7 3 -4 3 -10 0 -14z m-342 -33 c-9 -16 -19 -30 -24 -30 -5 0 -12 -16
-15 -35 -4 -19 -11 -35 -17 -35 -6 0 -8 -4 -4 -9 3 -5 1 -12 -5 -16 -10 -6 -3
68 11 115 l7 25 2 -25 c1 -23 2 -23 10 -5 6 14 9 15 10 5 0 -9 7 -4 16 13 20
37 28 35 9 -3z m392 13 c-4 -3 -7 0 -7 7 0 7 3 10 7 7 3 -4 3 -10 0 -14z m-23
-43 c5 -17 4 -20 -2 -10 -5 8 -13 26 -16 40 -5 17 -4 20 2 10 5 -8 13 -26 16
-40z m-648 14 c24 -14 44 -28 44 -30 0 -5 -32 8 -56 23 -12 8 -35 16 -50 19
-39 7 -43 14 -10 14 15 0 47 -12 72 -26z m311 -6 c-3 -8 -6 -5 -6 6 -1 11 2
17 5 13 3 -3 4 -12 1 -19z m370 0 c-3 -8 -6 -5 -6 6 -1 11 2 17 5 13 3 -3 4
-12 1 -19z m-602 -18 c3 -5 4 -10 1 -10 -3 0 -8 5 -11 10 -3 6 -4 10 -1 10 3
0 8 -4 11 -10z m389 -14 c-23 -7 -46 -16 -53 -20 -6 -4 -11 -4 -11 -1 0 9 62
34 85 34 11 0 2 -6 -21 -13z m123 8 c-3 -3 -12 -4 -19 -1 -8 3 -5 6 6 6 11 1
17 -2 13 -5z m132 -69 c0 -5 -8 6 -19 25 -11 19 -19 40 -19 45 0 6 8 -6 19
-25 11 -19 19 -39 19 -45z m-552 13 c-2 -13 -4 -5 -4 17 -1 22 1 32 4 23 2
-10 2 -28 0 -40z m490 25 c-4 -3 -7 0 -7 7 0 7 3 10 7 7 3 -4 3 -10 0 -14z
m-660 -9 c-3 -3 -12 -4 -19 -1 -8 3 -5 6 6 6 11 1 17 -2 13 -5z m392 3 c-2 -2
-29 -25 -59 -52 l-55 -48 52 51 c28 29 55 52 59 52 4 0 5 -1 3 -3z m278 -24
c-4 -3 -7 0 -7 7 0 7 3 10 7 7 3 -4 3 -10 0 -14z m133 -66 c0 -12 0 -11 -24
28 l-17 30 20 -24 c12 -13 21 -28 21 -34z m-437 18 c-10 -13 -22 -25 -27 -25
-5 0 1 11 14 25 30 32 36 32 13 0z m167 10 c-46 -18 -64 -17 -25 0 17 8 37 14
45 14 8 0 -1 -7 -20 -14z m204 -1 c3 -8 2 -12 -4 -9 -6 3 -10 10 -10 16 0 14
7 11 14 -7z m-34 -19 c14 -19 14 -19 -2 -6 -10 7 -18 18 -18 24 0 6 1 8 3 6 1
-2 9 -13 17 -24z m-250 -9 c0 -2 -7 -7 -16 -10 -8 -3 -12 -2 -9 4 6 10 25 14
25 6z m318 -32 c-4 -3 -12 5 -18 18 -12 22 -12 22 6 6 10 -10 15 -20 12 -24z
m-105 19 c-7 -2 -19 -2 -25 0 -7 3 -2 5 12 5 14 0 19 -2 13 -5z m-253 -7 c0
-3 -5 -8 -12 -12 -7 -4 -8 -3 -4 4 7 12 16 16 16 8z m207 -3 c-4 -3 -10 -3
-14 0 -3 4 0 7 7 7 7 0 10 -3 7 -7z m108 -3 c3 -5 4 -10 1 -10 -3 0 -8 5 -11
10 -3 6 -4 10 -1 10 3 0 8 -4 11 -10z m-410 -10 c3 -5 4 -10 1 -10 -3 0 -8 5
-11 10 -3 6 -4 10 -1 10 3 0 8 -4 11 -10z m245 -4 c0 -3 -5 -8 -12 -12 -7 -4
-8 -3 -4 4 7 12 16 16 16 8z m185 -16 c3 -5 4 -10 1 -10 -3 0 -8 5 -11 10 -3
6 -4 10 -1 10 3 0 8 -4 11 -10z m-215 -4 c0 -2 -8 -10 -17 -17 -16 -13 -17
-12 -4 4 13 16 21 21 21 13z m255 -26 c10 -11 16 -20 13 -20 -3 0 -13 9 -23
20 -10 11 -16 20 -13 20 3 0 13 -9 23 -20z m-238 -57 c-4 -3 -10 -3 -14 0 -3
4 0 7 7 7 7 0 10 -3 7 -7z m50 -10 c-4 -3 -10 -3 -14 0 -3 4 0 7 7 7 7 0 10
-3 7 -7z m50 -9 c-3 -3 -12 -4 -19 -1 -8 3 -5 6 6 6 11 1 17 -2 13 -5z m50
-10 c-3 -3 -12 -4 -19 -1 -8 3 -5 6 6 6 11 1 17 -2 13 -5z m-100 -10 c-3 -3
-12 -4 -19 -1 -8 3 -5 6 6 6 11 1 17 -2 13 -5z m140 0 c-3 -3 -12 -4 -19 -1
-8 3 -5 6 6 6 11 1 17 -2 13 -5z m-570 -10 c-3 -3 -12 -4 -19 -1 -8 3 -5 6 6
6 11 1 17 -2 13 -5z m470 -1 c-4 -3 -10 -3 -14 0 -3 4 0 7 7 7 7 0 10 -3 7 -7z
m40 -10 c-4 -3 -10 -3 -14 0 -3 4 0 7 7 7 7 0 10 -3 7 -7z m-267 -7 c0 -3 -5
-8 -12 -12 -7 -4 -8 -3 -4 4 7 12 16 16 16 8z m297 -3 c-4 -3 -10 -3 -14 0 -3
4 0 7 7 7 7 0 10 -3 7 -7z m-54 -30 c-13 -2 -33 -2 -45 0 -13 2 -3 4 22 4 25
0 35 -2 23 -4z m-294 -50 c-18 -21 -37 -42 -41 -47 -5 -6 -8 -7 -8 -3 0 9 70
87 78 87 3 0 -10 -17 -29 -37z m306 17 c3 -5 -1 -10 -9 -10 -9 0 -16 5 -16 10
0 6 4 10 9 10 6 0 13 -4 16 -10z m-7 -27 c-16 -2 -40 -2 -55 0 -16 2 -3 4 27
4 30 0 43 -2 28 -4z m110 -10 c-10 -2 -28 -2 -40 0 -13 2 -5 4 17 4 22 1 32
-1 23 -4z m39 -10 c-4 -3 -10 -3 -14 0 -3 4 0 7 7 7 7 0 10 -3 7 -7z m-200
-10 c-4 -3 -10 -3 -14 0 -3 4 0 7 7 7 7 0 10 -3 7 -7z m255 -61 c9 -9 6 -10
-12 -7 -31 6 -47 22 -20 20 11 -1 26 -7 32 -13z m-77 -2 c3 -5 4 -10 1 -10 -3
0 -8 5 -11 10 -3 6 -4 10 -1 10 3 0 8 -4 11 -10z m-188 -17 c-4 -3 -10 -3 -14
0 -3 4 0 7 7 7 7 0 10 -3 7 -7z m8 -23 c-27 -12 -43 -12 -25 0 8 5 22 9 30 9
10 0 8 -3 -5 -9z m53 -27 c-10 -2 -26 -2 -35 0 -10 3 -2 5 17 5 19 0 27 -2 18
-5z m139 1 c-3 -3 -12 -4 -19 -1 -8 3 -5 6 6 6 11 1 17 -2 13 -5z m30 -11 c-4
-3 -10 -3 -14 0 -3 4 0 7 7 7 7 0 10 -3 7 -7z m9 -49 c18 -14 18 -14 -6 -3
-31 14 -36 19 -24 19 6 0 19 -7 30 -16z m-201 -14 c-89 -8 -144 -31 -194 -80
-32 -33 -41 -29 -16 6 8 12 11 25 7 30 -4 5 -3 6 2 2 5 -4 15 -3 22 3 34 28
112 48 184 47 l75 -1 -80 -7z m222 -17 c-4 -3 -10 -3 -14 0 -3 4 0 7 7 7 7 0
10 -3 7 -7z m53 -29 c0 -2 -9 0 -20 6 -11 6 -20 13 -20 16 0 2 9 0 20 -6 11
-6 20 -13 20 -16z m-369 -49 c-24 -14 -46 -24 -48 -21 -6 6 60 44 77 45 8 0
-5 -11 -29 -24z m125 11 c12 -12 10 -16 -14 -25 l-27 -11 30 5 c93 18 136 17
155 0 20 -18 27 -60 11 -69 -4 -3 -6 6 -3 19 8 43 -15 58 -78 52 -81 -8 -197
-46 -179 -59 11 -8 10 -9 -5 -4 -11 4 -42 -6 -77 -24 -32 -16 -59 -28 -59 -26
0 10 77 51 144 77 82 33 67 38 -25 9 -35 -10 -65 -17 -67 -15 -4 4 103 38 156
50 27 5 31 9 21 21 -15 18 -2 18 17 0z m51 -2 c-3 -3 -12 -4 -19 -1 -8 3 -5 6
6 6 11 1 17 -2 13 -5z m33 -38 c0 -3 -5 -8 -12 -12 -7 -4 -8 -3 -4 4 7 12 16
16 16 8z m-33 -12 c-3 -3 -12 -4 -19 -1 -8 3 -5 6 6 6 11 1 17 -2 13 -5z m193
-83 c4 -23 3 -41 -1 -41 -5 0 -9 15 -9 33 0 18 -7 44 -16 57 -16 24 -16 24 1
8 9 -9 21 -34 25 -57z m-205 39 c-16 -4 -39 -8 -50 -8 -16 0 -15 2 5 8 14 4
36 8 50 8 22 0 22 -1 -5 -8z m-85 -20 c-8 -5 -19 -10 -25 -10 -5 0 -3 5 5 10
8 5 20 10 25 10 6 0 3 -5 -5 -10z m-43 -17 c-4 -3 -10 -3 -14 0 -3 4 0 7 7 7
7 0 10 -3 7 -7z m400 -40 c-4 -3 -7 0 -7 7 0 7 3 10 7 7 3 -4 3 -10 0 -14z
m63 -41 c0 -15 -9 -38 -20 -52 -24 -30 -26 -19 -4 15 9 14 14 36 12 50 -3 13
-1 22 3 19 5 -3 9 -17 9 -32z m-494 19 c-13 -5 -16 -10 -8 -15 6 -4 20 -2 31
4 11 5 23 10 28 10 4 -1 -4 -7 -19 -16 -21 -11 -32 -12 -46 -3 -14 9 -25 8
-50 -5 -35 -18 -62 -22 -46 -6 13 13 85 39 109 39 19 0 19 -1 1 -8z m81 2 c-4
-3 -10 -3 -14 0 -3 4 0 7 7 7 7 0 10 -3 7 -7z m158 -13 c-3 -5 -12 -10 -18
-10 -7 0 -6 4 3 10 19 12 23 12 15 0z m-35 -4 c0 -3 -5 -8 -12 -12 -7 -4 -8
-3 -4 4 7 12 16 16 16 8z m35 -31 c-124 -70 -137 -76 -142 -72 -5 6 177 107
192 107 6 -1 -17 -16 -50 -35z m19 -41 c-26 -18 -55 -36 -65 -39 -20 -7 -26
-30 -9 -38 6 -3 5 -4 -1 -3 -7 1 -16 12 -20 25 -5 12 -5 20 0 17 5 -3 12 1 15
10 3 8 10 12 16 9 5 -3 10 -2 10 4 0 6 7 7 17 4 10 -4 14 -2 10 4 -4 6 -1 16
7 22 11 9 15 9 19 -1 3 -8 6 -6 6 5 1 10 6 15 11 12 6 -3 10 -1 10 5 0 6 5 8
11 4 6 -3 -9 -20 -37 -40z m166 31 c-7 -8 -16 -13 -20 -10 -5 3 -10 -1 -13 -7
-2 -7 -8 -9 -13 -5 -9 9 16 28 27 21 4 -2 10 0 14 6 3 5 9 10 12 10 3 0 0 -7
-7 -15z m-60 -25 c0 -5 -8 -10 -17 -10 -15 0 -16 2 -3 10 19 12 20 12 20 0z
m-300 -16 c0 -6 -65 -34 -77 -33 -4 0 10 9 32 19 48 22 45 21 45 14z m366 -9
c-11 -8 -25 -15 -30 -15 -6 1 0 7 14 15 32 19 40 18 16 0z m-49 -22 c-4 -3
-10 -3 -14 0 -3 4 0 7 7 7 7 0 10 -3 7 -7z m-410 -9 c-3 -3 -12 -4 -19 -1 -8
3 -5 6 6 6 11 1 17 -2 13 -5z m363 -9 c-14 -8 -29 -14 -35 -14 -5 0 1 6 15 14
14 8 30 14 35 14 6 0 -1 -6 -15 -14z m-244 -34 c-10 -16 -79 -32 -90 -21 -7 7
-2 10 15 10 13 1 35 7 49 15 27 14 36 13 26 -4z m174 15 c0 -9 -30 -14 -35 -6
-4 6 3 10 14 10 12 0 21 -2 21 -4z m35 -25 c3 -5 2 -12 -3 -15 -5 -3 -9 1 -9
9 0 17 3 19 12 6z m180 -11 c3 -5 4 -10 1 -10 -3 0 -8 5 -11 10 -3 6 -4 10 -1
10 3 0 8 -4 11 -10z m-35 -10 c0 -5 -5 -10 -11 -10 -5 0 -7 5 -4 10 3 6 8 10
11 10 2 0 4 -4 4 -10z m-187 -14 c-23 -16 -103 -36 -140 -35 -25 1 71 27 105
28 7 1 11 4 9 9 -3 4 6 8 20 8 23 2 23 1 6 -10z m113 -5 c11 -1 29 -8 40 -17
18 -15 18 -15 -3 -5 -12 6 -40 11 -62 11 -23 0 -41 4 -41 8 0 5 10 8 23 6 12
-1 31 -3 43 -3z m-148 -37 c-3 -3 -30 -12 -59 -20 -61 -16 -124 -17 -154 -3
-14 6 -5 7 28 3 50 -7 163 12 173 28 3 5 9 7 12 4 3 -3 3 -9 0 -12z m112 12
c0 -3 -5 -8 -12 -12 -7 -4 -8 -3 -4 4 7 12 16 16 16 8z m17 -23 c-4 -3 -7 0
-7 7 0 7 3 10 7 7 3 -4 3 -10 0 -14z m190 0 c-4 -3 -7 0 -7 7 0 7 3 10 7 7 3
-4 3 -10 0 -14z m-22 -3 c3 -5 4 -10 1 -10 -3 0 -8 5 -11 10 -3 6 -4 10 -1 10
3 0 8 -4 11 -10z m-135 -34 c0 -3 -5 -8 -12 -12 -7 -4 -8 -3 -4 4 7 12 16 16
16 8z m40 -25 c-6 -12 -15 -21 -21 -21 -6 0 -7 -4 -4 -10 4 -6 -1 -7 -11 -3
-16 6 -15 8 4 16 12 6 24 19 28 29 3 11 8 17 11 15 2 -3 0 -15 -7 -26z m110
15 c0 -3 -5 -8 -12 -12 -7 -4 -8 -3 -4 4 7 12 16 16 16 8z m16 -24 c-17 -16
-18 -16 -5 5 7 12 15 20 18 17 3 -2 -3 -12 -13 -22z m-46 4 c0 -3 -5 -8 -12
-12 -7 -4 -8 -3 -4 4 7 12 16 16 16 8z m0 -36 c-14 -11 -29 -20 -35 -20 -5 0
4 9 20 20 38 25 48 25 15 0z m-143 3 c-4 -3 -10 -3 -14 0 -3 4 0 7 7 7 7 0 10
-3 7 -7z m-27 -7 c0 -2 -9 -6 -20 -9 -11 -3 -18 -1 -14 4 5 9 34 13 34 5z m96
-4 c-3 -5 -24 -16 -48 -26 -24 -10 -68 -29 -98 -43 l-55 -25 25 24 c14 13 28
23 33 21 4 -2 7 0 7 6 0 6 7 7 17 4 10 -4 14 -2 10 4 -5 7 1 9 15 5 13 -3 19
-1 15 5 -4 7 0 9 10 7 10 -3 27 2 38 10 22 17 39 21 31 8z m81 -29 c-4 -3 -10
-3 -14 0 -3 4 0 7 7 7 7 0 10 -3 7 -7z m-366 -71 c-13 -2 -27 0 -32 5 -6 6 3
7 23 4 28 -4 29 -6 9 -9z m297 -15 c-7 -7 -27 -22 -44 -34 -23 -16 -31 -18
-31 -8 0 8 4 12 8 9 4 -2 20 7 35 21 27 25 57 37 32 12z m132 -1 c0 -3 -5 -8
-12 -12 -7 -4 -8 -3 -4 4 7 12 16 16 16 8z m-33 -23 c-4 -3 -10 -3 -14 0 -3 4
0 7 7 7 7 0 10 -3 7 -7z m-52 -23 c-3 -5 -4 -10 -1 -10 2 0 12 -3 22 -7 11 -4
15 -3 11 4 -5 7 0 9 14 6 16 -4 3 -13 -53 -38 -41 -17 -95 -44 -120 -59 -28
-16 -53 -24 -64 -20 -16 5 -16 4 -4 -5 17 -12 10 -14 -15 -5 -13 5 -14 8 -3
15 9 6 3 9 -17 10 l-30 1 30 8 c17 4 39 11 50 14 13 5 12 2 -5 -8 -14 -8 -19
-15 -12 -16 22 0 198 93 183 98 -11 4 -11 6 0 13 18 11 22 11 14 -1z m-40 -20
c-7 -11 -99 -60 -112 -60 -4 0 19 16 52 34 71 40 68 38 60 26z m105 -25 c0 -3
-10 -10 -22 -15 -21 -8 -21 -9 -3 -10 11 0 -16 -16 -60 -35 -44 -19 -91 -41
-105 -49 -39 -21 -87 -29 -96 -15 -5 9 -2 10 9 6 10 -3 17 -2 17 3 0 5 10 12
23 16 12 3 52 21 89 39 42 21 75 32 90 28 17 -3 19 -2 9 5 -12 9 -1 16 47 31
1 1 2 -1 2 -4z m27 -21 c-3 -3 -12 -4 -19 -1 -8 3 -5 6 6 6 11 1 17 -2 13 -5z
m16 -31 c-7 -2 -19 -2 -25 0 -7 3 -2 5 12 5 14 0 19 -2 13 -5z m-63 -15 c-85
-38 -148 -72 -145 -79 3 -4 -1 -7 -8 -6 -29 1 -48 -4 -44 -10 3 -5 -9 -9 -26
-10 -18 0 -26 1 -19 4 6 2 10 9 7 14 -4 5 1 6 9 3 8 -3 56 15 108 39 100 48
118 55 133 56 6 0 -1 -5 -15 -11z m57 -44 c-3 -3 -12 -4 -19 -1 -8 3 -5 6 6 6
11 1 17 -2 13 -5z m-40 -10 c-3 -3 -12 -4 -19 -1 -8 3 -5 6 6 6 11 1 17 -2 13
-5z m-40 -11 c-4 -3 -10 -3 -14 0 -3 4 0 7 7 7 7 0 10 -3 7 -7z m-30 -10 c-4
-3 -10 -3 -14 0 -3 4 0 7 7 7 7 0 10 -3 7 -7z m-24 -10 c4 -3 -11 -14 -32 -24
-21 -9 -58 -34 -82 -56 -43 -38 -43 -38 -20 -6 19 29 20 32 4 26 -33 -12 -7 6
53 37 64 32 67 33 77 23z m204 0 c-4 -3 -10 -3 -14 0 -3 4 0 7 7 7 7 0 10 -3
7 -7z m-51 -19 c19 -15 19 -15 -1 -6 -11 5 -27 12 -35 15 -13 5 -13 6 1 6 8 1
24 -6 35 -15z m-159 -90 c-3 -3 -12 -4 -19 -1 -8 3 -5 6 6 6 11 1 17 -2 13 -5z
m90 0 c-3 -3 -12 -4 -19 -1 -8 3 -5 6 6 6 11 1 17 -2 13 -5z m-183 -29 c-27
-14 -50 -25 -51 -25 -1 0 0 8 2 18 1 10 9 16 19 14 9 -2 24 2 34 7 9 6 23 11
31 11 8 0 -8 -11 -35 -25z m267 -6 l24 -20 -30 17 c-39 24 -40 24 -28 24 6 0
21 -9 34 -21z m-123 4 c-10 -2 -28 -2 -40 0 -13 2 -5 4 17 4 22 1 32 -1 23 -4z
m-71 -9 c-3 -3 -12 -4 -19 -1 -8 3 -5 6 6 6 11 1 17 -2 13 -5z m120 0 c-3 -3
-12 -4 -19 -1 -8 3 -5 6 6 6 11 1 17 -2 13 -5z m58 -24 c3 -6 -1 -7 -9 -4 -18
7 -21 14 -7 14 6 0 13 -4 16 -10z m-255 -4 c0 -2 -7 -7 -16 -10 -8 -3 -12 -2
-9 4 6 10 25 14 25 6z m295 -26 c10 -11 16 -20 13 -20 -3 0 -13 9 -23 20 -10
11 -16 20 -13 20 3 0 13 -9 23 -20z m-305 -43 c-14 -12 -36 -33 -49 -47 l-23
-25 23 37 c13 20 33 42 44 47 31 15 32 13 5 -12z m357 -89 c-2 -13 -4 -5 -4
17 -1 22 1 32 4 23 2 -10 2 -28 0 -40z"/>
<path d="M2220 3005 c-9 -10 -9 -15 -1 -15 6 0 11 5 11 11 0 5 5 7 10 4 6 -3
10 -1 10 4 0 16 -16 13 -30 -4z"/>
<path d="M1645 2860 c3 -5 8 -10 11 -10 3 0 2 5 -1 10 -3 6 -8 10 -11 10 -3 0
-2 -4 1 -10z"/>
<path d="M1842 2730 c-12 -5 -27 -20 -33 -32 -6 -13 -30 -38 -54 -56 -28 -21
-46 -44 -50 -63 -9 -40 -5 -42 31 -17 33 23 65 62 68 83 3 22 36 53 53 51 9
-2 20 -11 25 -22 7 -16 8 -16 4 4 -3 16 1 22 15 22 14 0 19 -7 19 -25 0 -14
-5 -25 -12 -25 -6 0 -8 -3 -4 -7 7 -8 36 23 36 38 0 4 -7 15 -16 23 -12 12
-20 13 -35 6 -13 -7 -19 -7 -19 0 0 5 5 10 11 10 5 0 7 5 4 10 -7 12 -13 12
-43 0z"/>
<path d="M1901 2674 c0 -11 3 -14 6 -6 3 7 2 16 -1 19 -3 4 -6 -2 -5 -13z"/>
<path d="M1860 2670 c0 -7 3 -10 7 -7 3 4 3 10 0 14 -4 3 -7 0 -7 -7z"/>
<path d="M1950 2670 c0 -7 3 -10 7 -7 3 4 3 10 0 14 -4 3 -7 0 -7 -7z"/>
<path d="M2000 2650 c0 -7 3 -10 7 -7 3 4 3 10 0 14 -4 3 -7 0 -7 -7z"/>
<path d="M1920 2625 l-25 -15 25 3 c18 1 24 -2 22 -13 -2 -8 0 -12 4 -8 4 4
13 3 21 -3 9 -8 13 -8 13 -1 0 6 -9 16 -20 22 -11 6 -18 15 -15 21 8 12 5 11
-25 -6z"/>
<path d="M1963 2623 c4 -3 10 -3 14 0 3 4 0 7 -7 7 -7 0 -10 -3 -7 -7z"/>
<path d="M1970 2560 c0 -7 3 -10 7 -7 3 4 3 10 0 14 -4 3 -7 0 -7 -7z"/>
<path d="M1946 2528 c3 -5 10 -6 15 -3 13 9 11 12 -6 12 -8 0 -12 -4 -9 -9z"/>
<path d="M1684 2478 c-4 -7 -3 -8 4 -4 12 7 16 16 8 16 -3 0 -8 -5 -12 -12z"/>
<path d="M1613 2293 c4 -3 10 -3 14 0 3 4 0 7 -7 7 -7 0 -10 -3 -7 -7z"/>
<path d="M1992 2050 c0 -14 2 -19 5 -12 2 6 2 18 0 25 -3 6 -5 1 -5 -13z"/>
<path d="M2795 530 c-3 -6 1 -7 9 -4 18 7 21 14 7 14 -6 0 -13 -4 -16 -10z"/>
<path d="M2764 464 c-18 -14 -18 -14 6 -3 31 14 36 19 24 19 -6 0 -19 -7 -30
-16z"/>
<path d="M2674 318 c-4 -7 -3 -8 4 -4 7 4 12 9 12 12 0 8 -9 4 -16 -8z"/>
<path d="M815 3550 c-4 -6 -3 -16 3 -22 6 -6 12 -6 17 2 4 6 3 16 -3 22 -6 6
-12 6 -17 -2z"/>
<path d="M1960 3545 c0 -8 6 -15 14 -15 8 0 16 7 20 15 4 10 -1 15 -14 15 -11
0 -20 -7 -20 -15z"/>
<path d="M1013 3543 c4 -3 10 -3 14 0 3 4 0 7 -7 7 -7 0 -10 -3 -7 -7z"/>
<path d="M2762 3530 c0 -14 2 -19 5 -12 2 6 2 18 0 25 -3 6 -5 1 -5 -13z"/>
<path d="M952 3528 c-7 -7 -12 -17 -12 -22 0 -8 3 -7 8 0 4 6 16 16 27 22 15
8 16 11 5 12 -9 0 -21 -5 -28 -12z"/>
<path d="M1750 3530 c0 -7 3 -10 7 -7 3 4 3 10 0 14 -4 3 -7 0 -7 -7z"/>
<path d="M1360 3463 c-11 -15 -18 -33 -15 -41 3 -7 5 -17 5 -22 0 -19 33 -40
64 -40 40 0 66 26 66 67 0 63 -80 87 -120 36z"/>
<path d="M1700 3481 c0 -6 5 -13 10 -16 6 -3 10 1 10 9 0 9 -4 16 -10 16 -5 0
-10 -4 -10 -9z"/>
<path d="M2869 3470 c13 -11 27 -20 32 -20 17 0 9 9 -23 24 l-33 16 24 -20z"/>
<path d="M2730 3466 c0 -8 5 -18 10 -21 6 -3 10 1 10 9 0 8 -4 18 -10 21 -5 3
-10 -1 -10 -9z"/>
<path d="M2945 3470 c-4 -6 7 -10 24 -10 17 0 31 5 31 10 0 6 -11 10 -24 10
-14 0 -28 -4 -31 -10z"/>
<path d="M1732 3450 c0 -14 2 -19 5 -12 2 6 2 18 0 25 -3 6 -5 1 -5 -13z"/>
<path d="M1570 3440 c0 -7 3 -10 7 -7 3 4 3 10 0 14 -4 3 -7 0 -7 -7z"/>
<path d="M2741 3415 c-2 -50 64 -96 136 -94 l38 1 -43 9 c-58 11 -97 36 -115
73 -13 25 -16 27 -16 11z"/>
<path d="M1213 3408 c2 -7 10 -13 17 -13 7 0 15 6 18 13 2 7 -5 12 -18 12 -13
0 -20 -5 -17 -12z"/>
<path d="M731 3373 c-7 -18 -42 -58 -78 -89 -46 -41 -63 -62 -60 -76 3 -11 1
-15 -5 -12 -6 4 -9 1 -6 -6 9 -27 29 -21 43 13 11 26 25 38 58 51 36 14 46 23
56 54 7 21 11 51 9 67 l-3 30 -14 -32z"/>
<path d="M2448 3363 c-30 -50 -96 -109 -160 -144 -62 -34 -65 -34 -189 -34
-121 0 -127 1 -170 29 -24 15 -57 42 -72 60 l-29 31 23 -35 c13 -19 24 -41 24
-49 0 -8 7 -17 15 -19 13 -5 13 -3 0 14 -14 18 -14 18 2 5 10 -7 16 -17 13
-21 -9 -14 91 -32 182 -32 115 0 213 22 301 66 79 40 92 56 92 115 0 48 -9 52
-32 14z"/>
<path d="M659 3343 c-13 -16 -12 -17 4 -4 9 7 17 15 17 17 0 8 -8 3 -21 -13z"/>
<path d="M490 3330 c0 -5 5 -10 10 -10 6 0 10 5 10 10 0 6 -4 10 -10 10 -5 0
-10 -4 -10 -10z"/>
<path d="M2958 3333 c23 -2 59 -2 80 0 20 2 1 4 -43 4 -44 0 -61 -2 -37 -4z"/>
<path d="M1587 3324 c-14 -14 -7 -35 11 -32 9 2 17 10 17 17 0 16 -18 25 -28
15z"/>
<path d="M1520 3310 c0 -5 7 -10 15 -10 8 0 15 5 15 10 0 6 -7 10 -15 10 -8 0
-15 -4 -15 -10z"/>
<path d="M465 3289 c-4 -6 -5 -12 -2 -15 2 -3 7 2 10 11 7 17 1 20 -8 4z"/>
<path d="M590 3290 c0 -7 3 -10 7 -7 3 4 3 10 0 14 -4 3 -7 0 -7 -7z"/>
<path d="M754 3228 c-4 -7 -3 -8 4 -4 7 4 12 9 12 12 0 8 -9 4 -16 -8z"/>
<path d="M1872 3181 c2 -7 7 -12 11 -12 12 1 9 15 -3 20 -7 2 -11 -2 -8 -8z"/>
<path d="M3450 3170 c0 -11 7 -23 16 -27 20 -8 36 17 22 34 -16 20 -38 15 -38
-7z"/>
<path d="M3522 3171 c2 -7 7 -12 11 -12 12 1 9 15 -3 20 -7 2 -11 -2 -8 -8z"/>
<path d="M1713 3153 c4 -3 10 -3 14 0 3 4 0 7 -7 7 -7 0 -10 -3 -7 -7z"/>
<path d="M2514 3148 c-4 -7 -3 -8 4 -4 12 7 16 16 8 16 -3 0 -8 -5 -12 -12z"/>
<path d="M542 3100 c-18 -22 -39 -40 -46 -40 -16 0 -46 -32 -46 -50 0 -7 9 -1
20 12 11 14 34 32 52 41 18 9 41 29 51 46 25 43 8 38 -31 -9z"/>
<path d="M670 3125 c-7 -8 -16 -12 -21 -10 -9 6 -43 -40 -37 -52 1 -4 23 11
48 35 25 23 40 42 34 42 -6 0 -17 -7 -24 -15z m-20 -19 c0 -3 -5 -8 -12 -12
-7 -4 -8 -3 -4 4 7 12 16 16 16 8z"/>
<path d="M2757 3120 c-8 -11 -17 -17 -20 -13 -4 3 -7 4 -7 0 0 -3 10 -15 22
-27 12 -11 17 -20 11 -20 -16 0 -58 23 -63 35 -6 12 -28 16 -35 6 -2 -5 18
-18 45 -31 28 -13 57 -32 67 -42 15 -16 18 -17 39 -3 13 8 37 15 54 15 19 0
29 4 25 10 -4 6 -11 7 -17 4 -6 -4 -8 -2 -4 4 6 11 -73 82 -92 82 -6 0 -17 -9
-25 -20z m42 -16 c4 3 8 -1 8 -9 0 -11 -5 -10 -24 2 -12 8 -20 20 -17 25 4 6
10 4 16 -6 5 -9 13 -14 17 -12z m-9 -25 c0 -14 -16 -11 -29 5 -10 12 -8 13 8
9 12 -3 21 -9 21 -14z m30 -33 c0 -3 -5 -8 -12 -12 -7 -4 -8 -3 -4 4 7 12 16
16 16 8z"/>
<path d="M2494 3118 c-4 -7 -3 -8 4 -4 7 4 12 9 12 12 0 8 -9 4 -16 -8z"/>
<path d="M3556 3122 c-5 -9 18 -42 30 -42 8 0 4 16 -9 35 -9 11 -16 14 -21 7z"/>
<path d="M850 3095 c-14 -8 -20 -14 -14 -15 5 0 19 7 30 15 24 18 16 19 -16 0z"/>
<path d="M1080 3060 c0 -5 5 -10 10 -10 6 0 10 5 10 10 0 6 -4 10 -10 10 -5 0
-10 -4 -10 -10z"/>
<path d="M3561 3024 c-2 -70 16 -103 67 -125 74 -32 67 2 -8 36 -41 18 -40 17
-53 105 -3 15 -5 8 -6 -16z"/>
<path d="M3597 3017 c-5 -35 0 -57 14 -57 12 0 12 77 0 84 -5 3 -11 -9 -14
-27z"/>
<path d="M770 3030 c0 -7 3 -10 7 -7 3 4 3 10 0 14 -4 3 -7 0 -7 -7z"/>
<path d="M1860 3010 c0 -11 4 -20 9 -20 6 0 9 9 8 20 -1 11 -5 20 -9 20 -4 0
-8 -9 -8 -20z"/>
<path d="M3541 2990 c0 -8 4 -22 9 -30 12 -18 12 -2 0 25 -6 13 -9 15 -9 5z"/>
<path d="M460 2980 c0 -7 3 -10 7 -7 3 4 3 10 0 14 -4 3 -7 0 -7 -7z"/>
<path d="M2835 2940 c-27 -16 -49 -34 -47 -40 1 -6 -5 -13 -13 -16 -8 -4 -15
-13 -15 -21 0 -8 -4 -11 -10 -8 -6 4 -7 -1 -3 -11 4 -10 2 -15 -4 -11 -6 4 -6
-6 1 -28 6 -19 15 -35 20 -35 4 0 5 8 2 17 -4 10 -4 14 0 10 10 -10 36 31 28
45 -4 7 -3 8 4 4 7 -4 13 -2 13 3 1 6 2 17 3 24 1 6 7 11 14 10 7 -2 11 2 10
8 -2 6 3 14 10 16 8 3 10 -1 5 -14 -6 -17 -5 -17 15 1 26 22 28 28 8 20 -10
-4 -14 0 -12 13 2 11 17 22 42 30 37 11 37 11 9 11 -16 0 -52 -12 -80 -28z
m-4 -36 c-17 -14 -28 -31 -24 -36 3 -7 1 -8 -6 -4 -18 12 -8 40 19 53 40 19
44 15 11 -13z m-51 -78 c0 -3 -4 -8 -10 -11 -5 -3 -10 -1 -10 4 0 6 5 11 10
11 6 0 10 -2 10 -4z"/>
<path d="M2937 2939 c7 -7 15 -10 18 -7 3 3 -2 9 -12 12 -14 6 -15 5 -6 -5z"/>
<path d="M2908 2923 c8 -3 -6 -18 -36 -39 -67 -45 -112 -132 -111 -213 0 -31
3 -50 6 -43 3 8 11 5 24 -10 10 -13 18 -19 19 -14 0 4 9 -2 20 -15 l20 -24 -6
30 c-3 17 0 44 7 60 7 17 11 34 10 38 -1 5 3 6 9 2 7 -4 7 -12 0 -25 -13 -24
-13 -87 0 -95 6 -4 9 -3 8 2 -5 19 14 51 44 73 l31 23 -19 -26 c-10 -15 -22
-27 -26 -27 -4 0 -5 -8 -2 -17 5 -15 4 -15 -4 -3 -8 11 -11 7 -10 -18 1 -17 9
-39 18 -47 16 -14 17 -14 15 10 -2 14 1 25 6 25 6 0 9 -6 7 -12 -2 -14 23 -58
34 -58 4 0 9 15 11 33 3 28 4 27 5 -10 2 -32 8 -46 29 -63 15 -11 32 -19 39
-16 7 3 16 -4 19 -15 4 -10 11 -17 16 -14 5 4 9 -2 10 -12 0 -16 1 -16 9 2 12
27 12 43 0 25 -17 -27 -11 0 10 40 11 22 20 41 20 44 0 10 -34 -2 -38 -14 -3
-8 0 -10 7 -6 6 4 4 -9 -6 -28 -16 -35 -33 -33 -33 4 0 12 2 12 9 2 7 -11 9
-10 14 3 4 9 3 13 -3 10 -26 -16 8 44 52 91 l28 30 -30 29 -30 28 -22 -28
c-13 -15 -35 -50 -50 -78 -30 -53 -35 -52 -17 4 7 19 28 52 49 74 21 22 41 53
44 69 6 23 10 26 16 16 5 -8 5 -17 0 -20 -9 -5 14 -57 24 -52 3 1 5 0 4 -2 -4
-7 45 -57 67 -69 11 -5 52 -11 92 -11 70 -1 71 -1 55 17 -64 72 -109 111 -122
109 -13 -2 -13 -1 -1 7 19 12 36 0 89 -61 32 -38 42 -44 45 -30 3 11 5 9 6 -8
1 -14 6 -32 11 -40 7 -12 10 -8 10 14 0 17 -12 47 -26 67 -46 67 -112 98 -209
100 -39 0 -53 3 -40 8 11 4 33 6 49 4 l29 -3 -36 28 c-19 15 -45 34 -57 42
-12 8 -45 34 -74 56 -40 33 -62 42 -101 46 -27 3 -44 3 -37 1z m-67 -96 l-24
-22 19 27 c10 14 21 24 23 22 3 -3 -6 -15 -18 -27z m150 -28 c-5 -13 -10 -19
-10 -12 -1 15 10 45 15 40 3 -2 0 -15 -5 -28z m104 4 c-22 -5 -75 -52 -75 -65
0 -5 13 1 30 13 16 13 32 21 34 18 2 -2 -12 -14 -30 -26 -33 -21 -34 -21 -44
-3 -12 23 -2 59 11 38 7 -10 13 -8 31 10 12 12 32 21 43 21 20 -1 20 -1 0 -6z
m-275 -11 c0 -5 -7 -17 -15 -28 -14 -18 -14 -17 -4 9 12 27 19 34 19 19z m18
-62 c-7 -10 -14 -17 -17 -15 -4 4 18 35 25 35 2 0 -1 -9 -8 -20z m89 13 c-4
-3 -10 -3 -14 0 -3 4 0 7 7 7 7 0 10 -3 7 -7z m180 -10 c-4 -3 -10 -3 -14 0
-3 4 0 7 7 7 7 0 10 -3 7 -7z m-223 -11 c3 -5 -1 -9 -9 -9 -8 0 -12 4 -9 9 3
4 7 8 9 8 2 0 6 -4 9 -8z m186 -7 c-7 -9 -15 -13 -19 -10 -3 3 1 10 9 15 21
14 24 12 10 -5z m117 8 c-4 -3 -10 -3 -14 0 -3 4 0 7 7 7 7 0 10 -3 7 -7z
m-183 -63 c-23 -21 -40 -41 -37 -43 2 -3 0 -8 -5 -11 -6 -3 -9 0 -8 7 1 12 76
86 86 86 3 0 -14 -17 -36 -39z m163 33 c-4 -3 -10 -3 -14 0 -3 4 0 7 7 7 7 0
10 -3 7 -7z m-123 -43 c-23 -21 -40 -41 -38 -43 2 -2 -3 -4 -12 -4 -11 0 -1
15 29 44 25 24 49 43 54 43 4 0 -11 -18 -33 -40z m-137 3 c-4 -3 -7 0 -7 7 0
7 3 10 7 7 3 -4 3 -10 0 -14z m-100 -30 c-4 -3 -7 0 -7 7 0 7 3 10 7 7 3 -4 3
-10 0 -14z m301 -57 c-18 -24 -35 -42 -37 -40 -5 4 53 84 62 84 4 0 -7 -20
-25 -44z m-149 -10 c-1 -20 -2 -20 -6 -1 -3 11 -10 27 -17 35 -10 13 -9 13 7
1 9 -7 16 -23 16 -35z m141 41 c0 -2 -10 -12 -21 -23 -22 -19 -22 -19 -8 4 12
19 29 30 29 19z m-39 -123 c-5 -16 -10 -21 -10 -12 -1 18 10 51 15 45 2 -1 -1
-16 -5 -33z"/>
<path d="M3010 2760 c0 -7 3 -10 7 -7 3 4 3 10 0 14 -4 3 -7 0 -7 -7z"/>
<path d="M450 2910 c0 -7 3 -10 7 -7 3 4 3 10 0 14 -4 3 -7 0 -7 -7z"/>
<path d="M1850 2910 c-13 -8 -13 -10 2 -10 9 0 20 5 23 10 8 13 -5 13 -25 0z"/>
<path d="M1363 2903 c4 -3 10 -3 14 0 3 4 0 7 -7 7 -7 0 -10 -3 -7 -7z"/>
<path d="M1855 2881 c-20 -8 -20 -8 0 -14 12 -4 7 -5 -11 -3 -40 3 -35 -20 5
-26 24 -4 27 -1 27 24 0 15 0 28 0 27 -1 0 -10 -4 -21 -8z"/>
<path d="M3639 2862 c5 -10 8 -52 5 -93 -4 -67 -3 -77 18 -101 l24 -28 2 27
c1 14 9 40 17 56 20 40 19 63 -5 102 -22 35 -79 70 -61 37z"/>
<path d="M670 2847 c0 -2 14 -16 31 -33 18 -17 28 -22 24 -12 -6 14 -55 55
-55 45z"/>
<path d="M1840 2815 c0 -8 5 -15 10 -15 6 0 10 7 10 15 0 8 -4 15 -10 15 -5 0
-10 -7 -10 -15z"/>
<path d="M2717 2806 c-3 -8 -3 -23 0 -35 3 -11 2 -29 -2 -38 -13 -30 -14 -43
-3 -50 6 -3 9 -2 6 3 -3 5 -2 18 3 29 7 17 8 17 8 -7 1 -35 21 -37 21 -3 0 14
-5 25 -11 25 -8 0 -9 13 -5 39 6 39 -6 65 -17 37z"/>
<path d="M1920 2799 c0 -5 52 -9 120 -9 73 0 120 4 120 10 0 6 -47 10 -120 9
-67 0 -120 -4 -120 -10z"/>
<path d="M1393 2743 c-15 -21 -32 -40 -38 -42 -5 -2 -23 -17 -38 -33 -16 -15
-33 -28 -38 -28 -5 0 -9 -4 -9 -10 0 -5 -8 -10 -17 -10 -9 0 -24 -6 -32 -14
-9 -8 -44 -28 -78 -45 -72 -36 -82 -47 -49 -55 33 -8 102 -89 110 -127 11 -57
5 -75 -8 -22 -14 57 -56 115 -99 133 -25 12 -30 10 -52 -16 -14 -16 -25 -32
-25 -36 0 -5 -9 -8 -20 -8 -11 0 -20 -5 -20 -11 0 -8 -5 -8 -15 1 -8 7 -26 10
-40 8 -14 -3 -25 -2 -25 2 0 4 -22 8 -49 9 -38 1 -50 -3 -55 -16 -11 -27 17
-44 72 -46 32 -1 54 -7 57 -15 3 -7 10 -10 15 -7 6 4 10 3 9 -2 -4 -20 2 -24
18 -12 9 8 14 9 10 2 -10 -16 61 -39 76 -24 8 8 1 24 -23 58 -32 45 -32 47 -6
23 16 -14 32 -34 36 -45 7 -16 9 -17 9 -3 1 9 -11 30 -25 47 -24 29 -23 40 2
23 18 -12 64 -86 64 -102 -1 -12 -3 -11 -11 3 -10 18 -12 18 -30 1 -13 -11
-17 -24 -13 -37 6 -20 6 -20 -22 0 -16 11 -42 23 -59 27 -16 4 -37 14 -45 21
-8 7 -27 17 -42 20 -22 6 -28 4 -28 -10 0 -9 -4 -13 -10 -10 -5 3 -10 -3 -10
-15 0 -29 55 -96 91 -110 61 -26 160 18 158 68 l-2 27 -4 -25 c-3 -14 -9 -29
-15 -35 -9 -10 -6 17 10 70 5 18 6 17 17 -9 l12 -29 7 26 c3 14 9 33 12 44 5
15 4 15 -5 3 -9 -13 -11 -13 -11 1 0 9 -9 28 -20 42 -26 33 -26 47 0 16 23
-29 26 -14 4 21 l-16 25 21 -24 c25 -28 55 -124 48 -152 -5 -18 -2 -19 26 -13
18 4 44 8 59 9 36 2 41 8 40 51 -1 24 3 34 11 31 17 -5 21 -45 7 -63 -8 -9 -9
-14 -2 -14 6 0 14 5 17 11 4 5 18 14 31 19 20 8 24 16 24 50 0 23 -9 58 -20
80 -24 47 -24 47 -6 47 8 0 12 -6 9 -13 -2 -7 3 -24 13 -38 9 -15 17 -47 18
-72 1 -42 2 -43 16 -26 9 10 20 17 27 15 13 -5 53 43 53 63 0 8 5 14 10 14 12
0 12 -2 0 -34 -5 -14 -6 -26 -1 -26 16 0 41 37 41 61 0 25 16 49 32 49 5 0 1
-11 -8 -25 -25 -39 -14 -37 35 5 27 23 45 48 46 64 2 14 0 24 -4 21 -5 -2 -18
6 -30 19 -22 23 -46 129 -34 149 3 6 1 7 -4 4 -13 -8 -46 27 -36 38 5 4 3 5
-4 1 -7 -4 -26 0 -42 9 -42 21 -46 20 -78 -22z m90 -30 c-7 -2 -19 -2 -25 0
-7 3 -2 5 12 5 14 0 19 -2 13 -5z m-136 -79 c-3 -3 -12 -4 -19 -1 -8 3 -5 6 6
6 11 1 17 -2 13 -5z m93 -39 c6 4 8 11 5 16 -3 5 1 6 9 3 21 -8 59 -71 53 -87
-4 -7 -6 -6 -6 4 -1 9 -9 23 -18 30 -11 10 -14 10 -9 2 11 -20 -2 -15 -42 14
-49 35 -64 51 -29 29 15 -9 32 -14 37 -11z m65 15 c3 -5 4 -10 1 -10 -3 0 -8
5 -11 10 -3 6 -4 10 -1 10 3 0 8 -4 11 -10z m-138 -16 c-3 -3 12 -33 34 -66
21 -34 39 -68 38 -77 0 -10 -4 -6 -10 8 -5 14 -24 45 -42 70 -49 69 -50 71
-31 71 10 0 15 -3 11 -6z m150 -21 c-4 -3 -7 0 -7 7 0 7 3 10 7 7 3 -4 3 -10
0 -14z m-183 -43 c-7 -7 -17 -5 -30 6 -18 14 -18 15 5 3 22 -10 23 -9 17 7 -6
15 -5 17 5 7 9 -9 10 -16 3 -23z m-144 -16 c0 -2 -13 2 -30 11 -16 9 -30 18
-30 21 0 2 14 -2 30 -11 17 -9 30 -18 30 -21z m98 -32 c-4 -2 -4 -10 -1 -18 5
-13 7 -13 14 -2 6 9 8 6 6 -10 0 -12 -2 -22 -3 -22 -1 0 -17 19 -36 42 -18 23
-27 39 -20 35 17 -11 15 3 -5 27 -9 12 -1 5 18 -14 19 -19 31 -36 27 -38z m88
31 c-2 -2 7 -15 20 -28 13 -13 24 -30 24 -37 0 -7 -8 -1 -17 13 -9 14 -28 33
-42 42 -14 9 -20 17 -13 17 8 0 10 5 6 13 -5 8 -2 7 9 -2 10 -8 16 -16 13 -18z
m-178 -70 c39 -61 62 -116 61 -145 -1 -16 -5 -11 -14 18 -20 62 -54 126 -89
163 -23 25 -26 31 -10 23 12 -6 35 -33 52 -59z m17 57 c3 -5 4 -10 1 -10 -3 0
-8 5 -11 10 -3 6 -4 10 -1 10 3 0 8 -4 11 -10z m-155 -34 c0 -2 -8 -10 -17
-17 -16 -13 -17 -12 -4 4 13 16 21 21 21 13z m199 -56 c5 0 12 6 14 13 4 9 6
9 6 0 1 -6 -4 -15 -11 -19 -14 -9 -48 31 -47 55 0 9 7 1 15 -16 8 -18 18 -33
23 -33z m163 -12 c-6 -6 -12 -6 -17 3 -5 8 -4 10 3 5 7 -4 12 0 13 11 0 12 2
13 6 5 3 -8 1 -18 -5 -24z m-535 5 c-4 -3 -7 0 -7 7 0 7 3 10 7 7 3 -4 3 -10
0 -14z m-20 1 c-3 -3 -12 -4 -19 -1 -8 3 -5 6 6 6 11 1 17 -2 13 -5z m120 -36
c-3 -7 -5 -2 -5 12 0 14 2 19 5 13 2 -7 2 -19 0 -25z m18 -129 c0 -8 -8 -13
-20 -11 -29 4 -115 44 -115 53 0 5 16 -1 35 -12 22 -13 42 -18 56 -14 20 7 20
8 -7 24 -16 10 -36 26 -44 36 -8 11 10 1 40 -22 30 -22 55 -46 55 -54z"/>
<path d="M1445 2591 c-3 -5 -2 -12 3 -15 5 -3 9 1 9 9 0 17 -3 19 -12 6z"/>
<path d="M1265 2490 c3 -5 8 -10 11 -10 3 0 2 5 -1 10 -3 6 -8 10 -11 10 -3 0
-2 -4 1 -10z"/>
<path d="M970 2250 c-9 -6 -10 -10 -3 -10 6 0 15 5 18 10 8 12 4 12 -15 0z"/>
<path d="M2053 2773 c4 -3 10 -3 14 0 3 4 0 7 -7 7 -7 0 -10 -3 -7 -7z"/>
<path d="M2143 2773 c4 -3 10 -3 14 0 3 4 0 7 -7 7 -7 0 -10 -3 -7 -7z"/>
<path d="M2160 2759 l-85 -5 113 -2 c108 -2 142 2 85 9 -16 2 -66 1 -113 -2z"/>
<path d="M2740 2761 c0 -5 5 -13 10 -16 6 -3 10 -2 10 4 0 5 -4 13 -10 16 -5
3 -10 2 -10 -4z"/>
<path d="M3750 2750 c0 -7 3 -10 7 -7 3 4 3 10 0 14 -4 3 -7 0 -7 -7z"/>
<path d="M750 2730 c0 -7 3 -10 7 -7 3 4 3 10 0 14 -4 3 -7 0 -7 -7z"/>
<path d="M2045 2710 c12 -13 22 -17 28 -11 13 13 -1 31 -25 31 -21 0 -21 -1
-3 -20z"/>
<path d="M3736 2713 c-6 -14 -5 -15 5 -6 7 7 10 15 7 18 -3 3 -9 -2 -12 -12z"/>
<path d="M760 2700 c0 -7 3 -10 7 -7 3 4 3 10 0 14 -4 3 -7 0 -7 -7z"/>
<path d="M1560 2690 c0 -7 3 -10 7 -7 3 4 3 10 0 14 -4 3 -7 0 -7 -7z"/>
<path d="M2080 2680 c0 -7 3 -10 7 -7 3 4 3 10 0 14 -4 3 -7 0 -7 -7z"/>
<path d="M2113 2683 c-15 -6 -17 -29 -3 -38 5 -3 19 -1 30 5 17 9 19 14 9 26
-12 15 -16 16 -36 7z"/>
<path d="M1596 2671 c-5 -7 -3 -18 3 -24 6 -6 11 -18 11 -26 -1 -9 -9 -1 -19
18 -18 34 -18 34 -18 8 0 -15 4 -24 9 -21 6 4 8 -1 4 -13 -4 -12 -1 -25 9 -33
8 -7 15 -9 15 -5 0 4 8 1 18 -6 15 -13 16 -12 4 3 -10 13 -10 17 0 20 10 4 10
8 2 19 -6 8 -16 27 -21 44 -6 20 -12 25 -17 16z m14 -73 c0 6 5 12 11 12 8 0
8 -5 -1 -15 -13 -16 -30 -11 -30 8 0 7 4 6 10 -3 6 -10 10 -11 10 -2z"/>
<path d="M2713 2663 c4 -3 10 -3 14 0 3 4 0 7 -7 7 -7 0 -10 -3 -7 -7z"/>
<path d="M2157 2643 c-4 -3 -7 -11 -7 -17 0 -6 5 -5 12 2 6 6 9 14 7 17 -3 3
-9 2 -12 -2z"/>
<path d="M2296 2622 c-3 -5 1 -9 9 -9 8 0 12 4 9 9 -3 4 -7 8 -9 8 -2 0 -6 -4
-9 -8z"/>
<path d="M2254 2588 c-4 -7 -3 -8 4 -4 7 4 12 9 12 12 0 8 -9 4 -16 -8z"/>
<path d="M3146 2569 c-28 -33 -33 -48 -13 -45 19 3 37 16 37 28 0 6 -7 5 -17
-3 -16 -13 -17 -12 -5 3 8 9 20 14 27 12 10 -4 6 -17 -17 -49 -23 -32 -31 -56
-33 -96 -2 -37 -1 -48 5 -34 8 18 9 18 10 -5 2 -22 3 -21 11 9 6 18 12 31 15
28 3 -3 1 -21 -4 -41 -6 -20 -7 -38 -2 -41 4 -2 10 12 14 33 3 20 9 48 12 62
4 20 3 22 -5 10 -8 -11 -11 -12 -11 -2 0 7 -5 10 -12 6 -6 -4 -8 -3 -4 4 3 6
16 9 27 7 16 -3 19 0 14 13 -3 9 -3 13 1 9 4 -3 20 5 36 18 16 13 47 30 70 37
37 11 45 10 89 -14 51 -27 58 -26 35 5 -20 26 -71 37 -135 31 -51 -6 -60 -4
-88 20 l-31 26 -26 -31z m28 -71 c-21 -29 -39 -55 -41 -57 -2 -2 -3 0 -3 6 0
10 69 103 77 103 3 0 -12 -24 -33 -52z m-27 -85 c-4 -3 -7 0 -7 7 0 7 3 10 7
7 3 -4 3 -10 0 -14z"/>
<path d="M3731 2535 c1 -40 1 -40 11 -12 7 21 7 32 -1 40 -8 8 -11 0 -10 -28z"/>
<path d="M2290 2532 c11 -22 31 -22 29 1 0 8 -2 8 -6 -1 -4 -10 -9 -9 -20 5
-13 17 -13 16 -3 -5z"/>
<path d="M3292 2517 c-18 -6 -46 -27 -63 -49 -33 -41 -32 -51 1 -15 14 14 20
17 18 7 -3 -15 -38 -46 -48 -43 -3 1 -6 -11 -7 -25 -9 -113 0 -149 28 -116 8
10 9 15 2 11 -6 -4 -15 -3 -18 3 -4 6 -3 10 2 9 4 -1 10 -1 13 1 3 1 19 3 35
5 27 3 28 3 10 -7 -41 -24 -63 -68 -34 -68 6 0 8 4 4 9 -3 5 0 13 6 17 7 4 9
3 5 -4 -3 -6 -1 -14 6 -18 8 -5 7 -9 -5 -13 -14 -5 -14 -10 -4 -30 17 -33 43
-49 58 -34 9 9 8 23 -4 59 -17 51 -14 69 9 60 8 -3 14 -1 14 4 0 5 10 15 23
21 l22 11 -22 -21 -23 -21 36 -48 c20 -26 44 -50 53 -54 13 -5 13 -7 1 -7 -10
-1 -11 -4 -4 -9 6 -4 19 -22 28 -39 9 -18 21 -33 27 -33 6 0 7 4 4 10 -3 6 1
7 9 4 11 -4 16 0 16 14 0 40 -10 52 -36 41 -17 -6 -23 -6 -19 1 3 6 13 10 21
10 9 0 14 3 12 8 -2 4 -10 19 -17 34 -11 22 -12 30 -1 43 7 8 17 15 23 15 6 0
2 -7 -9 -16 -18 -15 -18 -15 0 -10 16 6 17 4 6 -9 -19 -23 -6 -28 20 -7 20 16
21 21 9 40 -11 17 -11 24 -1 34 11 11 12 9 6 -7 -7 -18 -6 -19 12 -5 15 11 16
11 7 0 -17 -18 -17 -38 -1 -22 7 7 17 12 22 12 6 0 3 -5 -7 -11 -9 -6 -15 -15
-11 -20 4 -6 12 -5 22 3 14 10 15 10 5 -2 -10 -10 -9 -19 5 -42 18 -30 52 -38
52 -12 0 37 -140 221 -171 225 -5 1 -13 3 -19 4 -5 1 -14 3 -18 4 -5 0 -9 8
-9 17 0 14 2 14 11 3 6 -8 16 -15 21 -16 6 -1 19 -5 30 -9 19 -7 20 -6 1 8
-13 10 -17 22 -13 37 3 11 1 19 -4 15 -5 -3 -9 -1 -9 5 0 13 -48 39 -81 44
-13 2 -39 -1 -57 -6z m61 -14 c-7 -2 -19 -2 -25 0 -7 3 -2 5 12 5 14 0 19 -2
13 -5z m-38 -23 c10 -11 16 -20 13 -20 -3 0 -13 9 -23 20 -10 11 -16 20 -13
20 3 0 13 -9 23 -20z m-39 3 c-3 -4 4 -13 16 -20 23 -12 23 -12 2 -13 -12 0
-24 6 -27 14 -5 13 0 26 11 26 3 0 2 -3 -2 -7z m89 -3 c3 -5 4 -10 1 -10 -3 0
-8 5 -11 10 -3 6 -4 10 -1 10 3 0 8 -4 11 -10z m45 -5 c7 -9 8 -15 2 -15 -5 0
-12 7 -16 15 -3 8 -4 15 -2 15 2 0 9 -7 16 -15z m-52 -48 c-11 -4 -23 -5 -26
-2 -3 3 0 5 6 5 7 0 12 4 12 10 0 5 -8 7 -17 4 -14 -5 -15 -4 -4 4 10 7 20 7
32 -1 18 -11 18 -12 -3 -20z m-38 -11 c0 -2 -8 -10 -17 -17 -16 -13 -17 -12
-4 4 13 16 21 21 21 13z m80 -10 c0 -3 -5 -8 -12 -12 -7 -4 -8 -3 -4 4 7 12
16 16 16 8z m-140 -30 c0 -3 -5 -8 -12 -12 -7 -4 -8 -3 -4 4 7 12 16 16 16 8z
m210 0 c0 -3 -5 -8 -12 -12 -7 -4 -8 -3 -4 4 7 12 16 16 16 8z m-254 -48 c-18
-26 -22 -17 -5 14 6 11 13 17 16 15 3 -3 -2 -16 -11 -29z m214 17 c-7 -8 -17
-15 -23 -15 -6 0 -2 7 9 15 25 19 30 19 14 0z m-130 1 c0 -3 -5 -8 -12 -12 -7
-4 -8 -3 -4 4 7 12 16 16 16 8z m90 -20 c0 -3 -5 -8 -12 -12 -7 -4 -8 -3 -4 4
7 12 16 16 16 8z m80 -10 c0 -3 -5 -8 -12 -12 -7 -4 -8 -3 -4 4 7 12 16 16 16
8z m-195 -76 c3 -5 4 -10 1 -10 -3 0 -8 5 -11 10 -3 6 -4 10 -1 10 3 0 8 -4
11 -10z m102 3 c-4 -3 -10 -3 -14 0 -3 4 0 7 7 7 7 0 10 -3 7 -7z m205 -35
c-7 -7 -12 -8 -12 -2 0 14 12 26 19 19 2 -3 -1 -11 -7 -17z m-162 8 c0 -9 -40
-13 -46 -5 -3 5 6 9 20 9 14 0 26 -2 26 -4z m-153 -13 c-4 -3 -10 -3 -14 0 -3
4 0 7 7 7 7 0 10 -3 7 -7z m163 -13 c-8 -5 -22 -9 -30 -9 -10 0 -8 3 5 9 27
12 43 12 25 0z m-150 -4 c0 -3 -5 -8 -12 -12 -7 -4 -8 -3 -4 4 7 12 16 16 16
8z m167 -13 c-4 -3 -10 -3 -14 0 -3 4 0 7 7 7 7 0 10 -3 7 -7z"/>
<path d="M709 2412 c-26 -22 -20 -52 11 -52 12 0 19 4 16 9 -3 4 7 8 22 7 23
-1 27 3 27 27 1 23 -3 27 -26 27 -15 0 -37 -8 -50 -18z"/>
<path d="M2267 2393 c-3 -5 7 -19 22 -33 20 -20 33 -24 55 -20 l30 5 -42 28
c-43 28 -58 32 -65 20z"/>
<path d="M1110 2380 c0 -7 3 -10 7 -7 3 4 3 10 0 14 -4 3 -7 0 -7 -7z"/>
<path d="M809 2359 c16 -6 28 -6 35 1 7 7 -1 10 -24 9 -33 0 -34 -1 -11 -10z"/>
<path d="M725 2334 c-43 -25 -50 -41 -24 -57 20 -12 82 10 73 25 -4 6 -9 6
-14 -2 -5 -8 -10 -9 -14 -2 -10 17 13 25 31 10 13 -11 17 -11 21 0 3 10 7 9
17 -4 11 -16 13 -15 13 9 0 15 -4 24 -8 22 -5 -3 -10 -1 -12 4 -7 20 -45 18
-83 -5z m75 2 c0 -3 -5 -8 -12 -12 -7 -4 -8 -3 -4 4 7 12 16 16 16 8z"/>
<path d="M3756 2351 c-4 -7 -5 -15 -2 -18 9 -9 19 4 14 18 -4 11 -6 11 -12 0z"/>
<path d="M1130 2310 c0 -7 3 -10 7 -7 3 4 3 10 0 14 -4 3 -7 0 -7 -7z"/>
<path d="M770 2269 c0 -6 -4 -7 -10 -4 -5 3 -10 1 -10 -4 0 -6 3 -11 8 -12 4
0 15 -2 25 -4 9 -2 23 2 30 9 7 7 18 11 26 8 8 -3 11 0 8 5 -8 13 -77 15 -77
2z"/>
<path d="M826 2238 c-9 -5 -16 -16 -16 -24 0 -11 12 -14 50 -13 l50 2 -20 22
c-22 23 -39 27 -64 13z"/>
<path d="M2770 2240 c0 -7 3 -10 7 -7 3 4 3 10 0 14 -4 3 -7 0 -7 -7z"/>
<path d="M3045 2220 c-3 -5 -1 -10 4 -10 6 0 11 5 11 10 0 6 -2 10 -4 10 -3 0
-8 -4 -11 -10z"/>
<path d="M3498 2208 c-23 -24 -23 -27 5 -21 19 4 20 3 4 -7 -16 -11 -17 -13 0
-40 19 -33 42 -45 56 -31 11 11 -2 49 -31 92 -16 24 -18 24 -34 7z m47 -78 c3
-5 4 -10 1 -10 -3 0 -8 5 -11 10 -3 6 -4 10 -1 10 3 0 8 -4 11 -10z"/>
<path d="M1330 2135 c-19 -14 -30 -25 -24 -25 6 0 14 3 18 7 8 8 9 9 81 13
l50 3 -50 7 -50 7 47 1 c59 2 163 -32 198 -66 22 -21 23 -23 3 -13 -12 6 -25
16 -28 21 -3 6 -10 10 -16 10 -19 0 -8 -16 22 -34 38 -22 105 -95 101 -109 -2
-6 3 -5 11 1 8 7 18 8 22 4 4 -4 0 8 -11 27 -53 94 -163 161 -279 168 -51 3
-65 0 -95 -22z m338 -115 c46 -55 40 -63 -8 -10 -22 24 -40 46 -40 47 0 12 20
-3 48 -37z"/>
<path d="M2793 2143 c4 -3 10 -3 14 0 3 4 0 7 -7 7 -7 0 -10 -3 -7 -7z"/>
<path d="M801 2111 c-1 -14 -19 -42 -45 -67 -50 -51 -49 -55 5 -16 40 27 55
56 46 89 -4 14 -5 12 -6 -6z"/>
<path d="M1510 2110 c0 -12 28 -21 35 -11 2 5 -4 11 -15 14 -11 3 -20 2 -20
-3z"/>
<path d="M1281 2075 c-22 -20 -38 -41 -35 -46 3 -5 -13 -9 -35 -9 -44 0 -87
-16 -95 -35 -3 -8 4 -10 22 -7 15 3 24 2 21 -2 -3 -3 -18 -7 -33 -8 -16 -2
-40 -17 -61 -39 -33 -36 -90 -137 -82 -145 2 -3 16 0 31 6 39 14 125 12 179
-4 26 -8 45 -10 42 -6 -3 5 -1 11 5 15 5 3 10 14 10 24 0 34 -145 51 -215 25
-17 -6 -18 -5 -7 7 17 18 177 18 211 0 22 -12 24 -12 18 8 -3 11 0 19 5 18 6
-1 12 3 15 10 4 11 -36 28 -87 36 -22 4 -21 4 6 6 17 0 45 -4 63 -10 24 -9 35
-8 47 2 9 7 5 -4 -10 -25 -28 -42 -32 -56 -16 -56 15 0 99 -80 111 -104 6 -12
-5 -4 -23 17 -32 36 -85 77 -100 77 -6 0 -23 -59 -20 -71 1 -4 -20 -1 -45 7
-75 23 -222 16 -206 -9 4 -6 0 -8 -11 -4 -11 4 -25 -1 -39 -16 -36 -38 -82
-96 -83 -107 -1 -6 -2 -13 -3 -16 0 -4 -20 11 -44 33 -45 42 -138 83 -186 83
-15 0 -50 -11 -76 -25 l-48 -26 7 23 c3 13 6 26 6 29 0 17 60 44 105 49 l50 5
35 69 c26 50 45 74 65 83 l30 14 -30 -6 c-32 -7 -95 -50 -95 -65 0 -5 -19 -14
-42 -20 -24 -7 -58 -26 -75 -43 -34 -32 -69 -106 -61 -129 3 -7 -8 -29 -23
-49 -16 -20 -26 -38 -24 -41 3 -2 -4 -22 -15 -43 -56 -111 7 -318 124 -407 51
-40 94 -89 128 -146 l25 -42 19 21 c34 37 155 89 211 89 32 0 37 17 14 46 -14
18 -21 41 -21 70 0 24 -10 63 -24 91 -13 28 -26 74 -29 110 -8 94 -87 247
-118 227 -5 -3 -8 0 -7 6 5 22 -72 54 -128 53 -61 -1 -117 -20 -107 -37 3 -6
3 -8 -2 -4 -4 4 -22 -2 -39 -14 -23 -17 -27 -18 -17 -5 23 28 92 64 137 72 49
8 111 -7 147 -35 29 -23 42 -26 31 -7 -4 6 4 1 19 -12 15 -14 23 -29 20 -39
-4 -9 -2 -13 4 -9 6 4 17 -1 24 -10 10 -12 10 -14 2 -9 -7 4 -13 2 -13 -4 0
-6 7 -13 15 -16 8 -4 12 -10 9 -15 -3 -5 0 -9 6 -9 6 0 9 -4 6 -9 -3 -5 0 -27
8 -49 8 -22 17 -66 21 -98 4 -33 16 -76 26 -96 11 -21 19 -54 19 -74 0 -40 25
-88 77 -147 18 -20 33 -45 33 -55 -1 -12 -5 -9 -16 11 -8 15 -19 27 -25 27 -6
0 -7 5 -3 12 23 37 -217 -36 -273 -83 -31 -26 -29 -38 12 -91 60 -75 178 -75
274 0 17 14 26 34 32 68 3 27 14 75 23 107 9 32 16 70 17 85 0 24 1 24 8 7 8
-20 8 -20 15 1 4 12 6 26 5 30 -1 5 -1 11 1 14 1 3 4 16 6 29 7 37 14 38 14 3
0 -18 -4 -32 -9 -32 -5 0 -7 -9 -4 -20 3 -11 9 -20 14 -20 17 0 88 71 88 88 0
9 3 29 7 45 4 19 -1 43 -21 82 -14 30 -31 55 -36 55 -12 0 -12 -1 6 -43 8 -20
15 -49 14 -64 0 -25 -1 -26 -9 -8 -5 11 -11 36 -15 56 -6 42 -39 89 -61 89
-12 0 -12 -4 2 -27 l16 -28 -20 24 c-11 14 -18 31 -15 38 3 7 -1 14 -8 14 -8
1 -20 2 -28 3 -17 1 -28 26 -11 26 6 0 8 -5 4 -12 -5 -7 -2 -9 8 -6 8 4 28 -2
43 -12 16 -11 34 -16 39 -13 6 3 8 3 4 -2 -10 -11 11 -37 24 -29 5 3 -3 21
-17 40 -33 43 -55 96 -55 131 0 35 25 73 48 72 14 0 14 -2 2 -6 -35 -12 -56
-82 -30 -98 6 -3 10 -15 10 -26 0 -10 5 -18 11 -17 6 2 13 -5 14 -16 2 -10 19
-42 38 -70 62 -93 90 -156 76 -172 -6 -7 -15 -12 -19 -9 -5 3 -11 1 -15 -4 -7
-13 35 -5 49 9 7 7 7 20 -2 43 -11 32 -11 32 6 9 16 -21 18 -21 32 -5 32 38
50 73 50 98 0 31 17 33 22 3 3 -18 13 -4 43 57 40 80 40 80 40 202 0 67 2 120
4 118 2 -2 6 -39 10 -82 7 -91 15 -97 88 -62 26 13 59 23 73 24 34 2 57 13 65
33 4 11 -3 8 -21 -8 -24 -22 -26 -22 -19 -5 22 57 28 118 16 183 -15 80 -24
98 -78 155 -61 65 -121 90 -219 95 l-82 4 -41 -37z m22 -32 c-7 -2 -21 -2 -30
0 -10 3 -4 5 12 5 17 0 24 -2 18 -5z m123 -9 c10 -8 13 -12 6 -9 -8 4 -26 11
-40 15 -22 7 -23 8 -6 9 11 1 29 -6 40 -15z m-109 -20 c-3 -3 -12 -4 -19 -1
-8 3 -5 6 6 6 11 1 17 -2 13 -5z m169 -10 c18 -14 18 -14 -6 -3 -31 14 -36 19
-24 19 6 0 19 -7 30 -16z m-289 -1 c-4 -3 -10 -3 -14 0 -3 4 0 7 7 7 7 0 10
-3 7 -7z m160 0 c-4 -3 -10 -3 -14 0 -3 4 0 7 7 7 7 0 10 -3 7 -7z m43 -13 c8
-5 11 -10 5 -10 -5 0 -17 5 -25 10 -8 5 -10 10 -5 10 6 0 17 -5 25 -10z m75
-10 c3 -5 4 -10 1 -10 -3 0 -8 5 -11 10 -3 6 -4 10 -1 10 3 0 8 -4 11 -10z
m-165 -15 c32 -18 25 -18 -25 0 -22 8 -31 14 -20 14 11 0 31 -6 45 -14z m67
-19 c-4 -9 -16 -16 -27 -16 -13 0 -18 4 -15 11 4 6 14 8 22 5 12 -5 14 -1 10
15 -4 16 -3 19 5 11 6 -6 8 -18 5 -26z m64 17 c13 -16 12 -17 -3 -4 -10 7 -18
15 -18 17 0 8 8 3 21 -13z m56 0 c-4 -3 1 -16 10 -27 18 -21 18 -21 -4 -2 -20
16 -23 36 -6 36 4 0 3 -3 0 -7z m-22 -23 c3 -5 4 -10 1 -10 -3 0 -8 5 -11 10
-3 6 -4 10 -1 10 3 0 8 -4 11 -10z m134 -24 c-3 -3 -11 5 -18 17 -13 21 -12
21 5 5 10 -10 16 -20 13 -22z m36 24 c3 -5 4 -10 1 -10 -3 0 -8 5 -11 10 -3 6
-4 10 -1 10 3 0 8 -4 11 -10z m-538 -17 c-4 -3 -10 -3 -14 0 -3 4 0 7 7 7 7 0
10 -3 7 -7z m269 -34 c3 -6 -5 -3 -20 6 -14 10 -26 19 -26 22 0 7 39 -17 46
-28z m-196 12 c16 -5 2 -8 -43 -7 -38 0 -60 4 -50 7 23 10 61 9 93 0z m386
-63 c3 -10 10 -16 15 -12 6 3 8 13 5 23 -5 13 -4 13 8 -2 11 -14 15 -15 19 -3
3 8 3 24 0 35 -3 12 -1 21 4 21 11 0 10 -56 -1 -68 -4 -4 -13 -7 -19 -7 -7 0
-12 -14 -12 -32 0 -17 -3 -29 -7 -26 -5 2 -8 13 -8 24 0 26 -16 56 -49 94
l-26 30 32 -29 c18 -16 35 -38 39 -48z m-19 65 c-4 -3 -10 -3 -14 0 -3 4 0 7
7 7 7 0 10 -3 7 -7z m23 -7 c0 -3 -5 -8 -12 -12 -7 -4 -8 -3 -4 4 7 12 16 16
16 8z m-513 -13 c-4 -3 -10 -3 -14 0 -3 4 0 7 7 7 7 0 10 -3 7 -7z m180 0 c-4
-3 -10 -3 -14 0 -3 4 0 7 7 7 7 0 10 -3 7 -7z m238 -3 c3 -5 4 -10 1 -10 -3 0
-8 5 -11 10 -3 6 -4 10 -1 10 3 0 8 -4 11 -10z m59 -74 c22 -64 18 -148 -8
-174 -9 -9 -16 -12 -16 -5 0 7 5 15 11 18 6 4 8 14 5 22 -3 8 -1 11 4 8 17
-11 11 68 -9 128 -11 32 -17 57 -13 57 5 0 16 -24 26 -54z m146 -22 c0 -23 -5
-46 -11 -49 -6 -4 -8 -14 -4 -23 3 -9 3 -13 -1 -9 -4 4 -14 1 -23 -6 -9 -7 -7
2 7 24 24 40 31 110 10 105 -7 -1 -10 -1 -5 1 4 3 4 10 0 16 -4 7 1 6 10 -2
11 -9 17 -28 17 -57z m-200 12 c0 -12 -5 -7 -19 24 -11 24 -11 24 3 6 9 -11
16 -24 16 -30z m-16 -142 c1 -62 -13 -94 -40 -94 -10 0 -8 6 6 20 25 25 27 94
5 166 -21 69 -18 78 7 19 12 -30 21 -74 22 -111z m43 134 c-3 -8 -6 -5 -6 6
-1 11 2 17 5 13 3 -3 4 -12 1 -19z m10 -40 c-3 -8 -6 -5 -6 6 -1 11 2 17 5 13
3 -3 4 -12 1 -19z m-550 -45 c-4 -3 -10 -3 -14 0 -3 4 0 7 7 7 7 0 10 -3 7 -7z
m280 -70 c22 -16 53 -44 70 -63 50 -60 103 -139 89 -134 -7 3 -23 22 -35 43
-34 61 -112 142 -156 162 -22 10 -33 19 -24 19 9 0 34 -12 56 -27z m-220 -20
c-20 -2 -52 -2 -70 0 -17 2 0 4 38 4 39 0 53 -2 32 -4z m60 -10 c-4 -3 -10 -3
-14 0 -3 4 0 7 7 7 7 0 10 -3 7 -7z m-197 -48 c0 -8 22 -11 73 -8 58 3 80 0
112 -17 22 -11 31 -18 20 -14 -11 3 -59 8 -107 11 l-87 6 11 -35 c10 -32 15
-36 64 -47 46 -11 126 -59 124 -75 0 -4 7 -20 16 -37 8 -17 13 -33 11 -35 -2
-3 -10 9 -17 26 -16 38 -81 98 -115 105 -14 3 -36 7 -50 10 -18 4 -25 1 -25
-9 0 -8 12 -16 28 -19 25 -4 25 -4 -5 -6 -30 -1 -33 2 -33 29 0 16 -11 60 -24
97 -14 38 -19 60 -10 49 7 -11 14 -25 14 -31z m273 25 c-3 -12 -8 -19 -11 -16
-5 6 5 36 12 36 2 0 2 -9 -1 -20z m72 10 c3 -5 4 -10 1 -10 -3 0 -8 5 -11 10
-3 6 -4 10 -1 10 3 0 8 -4 11 -10z m130 -10 c3 -6 -1 -7 -9 -4 -18 7 -21 14
-7 14 6 0 13 -4 16 -10z m-90 -20 c3 -5 4 -10 1 -10 -3 0 -8 5 -11 10 -3 6 -4
10 -1 10 3 0 8 -4 11 -10z m22 -27 c-4 -3 -7 0 -7 7 0 7 3 10 7 7 3 -4 3 -10
0 -14z m20 -20 c-4 -3 -7 0 -7 7 0 7 3 10 7 7 3 -4 3 -10 0 -14z m-280 -19
c-3 -3 -12 -4 -19 -1 -8 3 -5 6 6 6 11 1 17 -2 13 -5z m242 -139 c0 -5 -8 6
-19 25 -11 19 -19 40 -19 45 0 6 8 -6 19 -25 11 -19 19 -39 19 -45z m-274 45
c3 -6 -1 -7 -9 -4 -18 7 -21 14 -7 14 6 0 13 -4 16 -10z m-55 -23 c12 -4 11
-6 -2 -6 -11 -1 -18 -9 -18 -22 0 -11 4 -18 9 -15 5 3 20 -3 34 -14 28 -22 42
-26 31 -9 -3 6 8 3 25 -5 17 -9 31 -22 31 -28 0 -6 -9 -3 -20 7 -29 26 -36 11
-11 -21 11 -15 21 -33 21 -41 0 -8 4 -12 8 -9 5 3 6 -9 3 -27 l-5 -32 -8 40
c-9 46 -64 119 -80 109 -6 -4 -8 -2 -5 3 4 6 0 13 -8 17 -20 7 -19 -3 6 -59
13 -30 17 -51 11 -57 -6 -6 -12 4 -17 28 -4 21 -13 51 -21 66 -14 27 -20 113
-6 92 4 -6 14 -14 22 -17z m208 6 c-1 -5 4 -21 10 -36 19 -45 12 -56 -7 -12
-16 36 -18 55 -5 55 2 0 3 -3 2 -7z m-82 -55 c36 -34 60 -97 42 -113 -8 -7 -9
-6 -4 2 14 26 -44 109 -99 142 -18 11 -18 11 5 5 14 -3 39 -19 56 -36z m61
-70 c-3 -7 -5 -2 -5 12 0 14 2 19 5 13 2 -7 2 -19 0 -25z m50 15 c-4 -3 -7 0
-7 7 0 7 3 10 7 7 3 -4 3 -10 0 -14z m-195 -138 c9 -20 9 -20 -6 -1 -9 11 -16
27 -15 35 0 14 1 14 6 1 3 -8 10 -24 15 -35z"/>
<path d="M2870 2096 c0 -18 29 -29 45 -16 7 6 21 8 31 4 18 -5 18 -5 0 10 -25
20 -76 21 -76 2z"/>
<path d="M667 2029 c-37 -38 -37 -40 -9 -25 28 14 71 66 55 66 -5 0 -25 -18
-46 -41z"/>
<path d="M2766 2061 c-4 -5 -2 -12 3 -15 5 -4 12 -2 15 3 4 5 2 12 -3 15 -5 4
-12 2 -15 -3z"/>
<path d="M2560 2040 c0 -16 6 -20 30 -20 21 0 30 5 30 16 0 8 -4 12 -10 9 -5
-3 -19 -1 -30 5 -17 9 -20 8 -20 -10z"/>
<path d="M3152 2025 c-19 -41 -15 -89 9 -111 12 -10 30 -37 40 -59 17 -36 19
-37 19 -14 0 14 -12 44 -26 65 -35 51 -46 91 -33 116 6 11 9 22 6 24 -2 2 -9
-7 -15 -21z"/>
<path d="M2970 2020 c0 -7 3 -10 7 -7 3 4 3 10 0 14 -4 3 -7 0 -7 -7z"/>
<path d="M820 1990 c0 -7 3 -10 7 -7 3 4 3 10 0 14 -4 3 -7 0 -7 -7z"/>
<path d="M2785 1980 c3 -5 10 -10 16 -10 5 0 9 5 9 10 0 6 -7 10 -16 10 -8 0
-12 -4 -9 -10z"/>
<path d="M2840 1969 c0 -11 5 -19 12 -17 17 6 19 38 2 38 -8 0 -14 -9 -14 -21z"/>
<path d="M810 1960 c0 -7 3 -10 7 -7 3 4 3 10 0 14 -4 3 -7 0 -7 -7z"/>
<path d="M1697 1943 c-3 -5 -2 -16 2 -25 5 -15 8 -13 18 7 9 20 8 25 -2 25 -8
0 -16 -3 -18 -7z"/>
<path d="M3022 1939 c2 -6 8 -10 13 -10 5 0 11 4 13 10 2 6 -4 11 -13 11 -9 0
-15 -5 -13 -11z"/>
<path d="M3386 1933 c-19 -19 -46 -100 -46 -139 0 -54 12 -86 50 -132 31 -37
40 -81 18 -84 -7 0 -17 -2 -23 -2 -40 -5 -46 -51 -14 -103 12 -19 23 -32 26
-30 2 3 -5 19 -15 37 -23 37 -18 67 12 76 44 14 50 68 10 105 -31 28 -54 77
-54 116 0 15 14 57 30 91 17 35 30 66 30 68 0 7 -16 5 -24 -3z"/>
<path d="M1731 1898 c5 -18 10 -46 10 -63 1 -19 3 -23 6 -11 7 25 -6 106 -17
106 -5 0 -4 -15 1 -32z"/>
<path d="M2900 1920 c0 -5 5 -10 11 -10 5 0 7 5 4 10 -3 6 -8 10 -11 10 -2 0
-4 -4 -4 -10z"/>
<path d="M1716 1865 c8 -37 14 -45 14 -19 0 10 -5 26 -10 34 -8 11 -9 7 -4
-15z"/>
<path d="M3140 1824 c0 -14 -8 -16 -50 -11 -45 5 -50 4 -50 -13 0 -14 7 -20
23 -21 66 -5 109 -18 124 -38 10 -14 11 -13 6 7 -3 12 -15 30 -27 40 -12 9
-20 25 -18 35 2 9 1 17 -2 17 -3 0 -6 -7 -6 -16z"/>
<path d="M3010 1810 c0 -7 3 -10 7 -7 3 4 3 10 0 14 -4 3 -7 0 -7 -7z"/>
<path d="M1742 1770 c0 -19 2 -27 5 -17 2 9 2 25 0 35 -3 9 -5 1 -5 -18z"/>
<path d="M2650 1759 c-6 -11 -10 -27 -8 -35 2 -8 8 1 14 20 12 40 10 46 -6 15z"/>
<path d="M2960 1770 c0 -7 3 -10 7 -7 3 4 3 10 0 14 -4 3 -7 0 -7 -7z"/>
<path d="M1720 1760 c0 -7 3 -10 7 -7 3 4 3 10 0 14 -4 3 -7 0 -7 -7z"/>
<path d="M3090 1755 c-11 -13 -10 -14 4 -9 9 3 16 10 16 15 0 13 -6 11 -20 -6z"/>
<path d="M1710 1720 c0 -7 3 -10 7 -7 3 4 3 10 0 14 -4 3 -7 0 -7 -7z"/>
<path d="M1730 1720 c0 -7 3 -10 7 -7 3 4 3 10 0 14 -4 3 -7 0 -7 -7z"/>
<path d="M3010 1710 c0 -7 3 -10 7 -7 3 4 3 10 0 14 -4 3 -7 0 -7 -7z"/>
<path d="M3054 1708 c-4 -7 -3 -8 4 -4 7 4 12 9 12 12 0 8 -9 4 -16 -8z"/>
<path d="M3187 1680 c-4 -14 -6 -38 -6 -55 l1 -30 9 34 c6 18 9 43 7 55 -3 20
-4 19 -11 -4z"/>
<path d="M2641 1681 c-9 -6 -10 -11 -2 -15 6 -4 11 -2 11 4 0 6 5 8 11 5 6 -4
8 -13 5 -21 -3 -9 0 -11 11 -7 10 4 14 2 10 -4 -9 -14 22 -21 53 -12 24 7 24
7 -4 8 -17 1 -41 12 -56 26 -16 16 -30 21 -39 16z"/>
<path d="M3260 1654 c0 -10 3 -43 7 -73 5 -48 7 -52 16 -30 23 61 23 73 0 98
-21 22 -23 22 -23 5z"/>
<path d="M315 1640 c-4 -12 -5 -24 -2 -27 3 -2 8 5 12 17 4 12 5 24 2 27 -3 2
-8 -5 -12 -17z"/>
<path d="M2898 1653 c7 -3 16 -2 19 1 4 3 -2 6 -13 5 -11 0 -14 -3 -6 -6z"/>
<path d="M2833 1643 c4 -3 10 -3 14 0 3 4 0 7 -7 7 -7 0 -10 -3 -7 -7z"/>
<path d="M790 1626 c0 -2 8 -10 18 -17 15 -13 16 -12 3 4 -13 16 -21 21 -21
13z"/>
<path d="M2215 1620 c-13 -5 -14 -9 -5 -9 8 0 24 4 35 9 13 5 14 9 5 9 -8 0
-24 -4 -35 -9z"/>
<path d="M3337 1623 c-4 -3 -7 -11 -7 -17 0 -6 5 -5 12 2 6 6 9 14 7 17 -3 3
-9 2 -12 -2z"/>
<path d="M1980 1600 c0 -7 3 -10 7 -7 3 4 3 10 0 14 -4 3 -7 0 -7 -7z"/>
<path d="M1604 1526 c-42 -18 -64 -53 -63 -96 l1 -35 9 41 c11 48 30 68 85 88
22 9 31 15 19 15 -11 0 -34 -6 -51 -13z"/>
<path d="M2025 1530 c-3 -5 -1 -10 4 -10 6 0 11 5 11 10 0 6 -2 10 -4 10 -3 0
-8 -4 -11 -10z"/>
<path d="M2680 1520 c0 -5 5 -10 10 -10 6 0 10 5 10 10 0 6 -4 10 -10 10 -5 0
-10 -4 -10 -10z"/>
<path d="M2680 1480 c0 -7 3 -10 7 -7 3 4 3 10 0 14 -4 3 -7 0 -7 -7z"/>
<path d="M2686 1453 c-11 -11 -6 -23 9 -23 8 0 15 4 15 9 0 13 -16 22 -24 14z"/>
<path d="M3501 1402 c4 -26 11 -65 14 -88 6 -35 3 -47 -21 -84 -16 -23 -38
-57 -49 -75 -11 -18 -55 -62 -98 -97 -88 -74 -141 -132 -151 -168 -7 -23 -6
-22 12 5 25 39 76 86 127 118 56 35 202 179 215 211 16 43 12 91 -10 119 -11
14 -20 39 -20 55 0 16 -6 34 -13 40 -11 9 -12 3 -6 -36z"/>
<path d="M3173 1423 c4 -3 10 -3 14 0 3 4 0 7 -7 7 -7 0 -10 -3 -7 -7z"/>
<path d="M3050 1350 c0 -7 3 -10 7 -7 3 4 3 10 0 14 -4 3 -7 0 -7 -7z"/>
<path d="M2810 1290 c0 -7 3 -10 7 -7 3 4 3 10 0 14 -4 3 -7 0 -7 -7z"/>
<path d="M391 1279 c0 -8 -12 -30 -26 -49 -13 -18 -22 -36 -20 -41 3 -4 1 -9
-5 -11 -20 -7 3 -45 45 -71 65 -41 70 -51 70 -132 0 -90 27 -148 102 -214 29
-26 66 -72 83 -102 16 -29 30 -46 30 -36 0 25 -45 110 -79 149 -32 38 -61 90
-67 123 -5 28 29 73 65 86 23 9 24 12 10 22 -9 7 -20 23 -24 37 -4 14 -12 32
-19 40 -6 8 -1 6 12 -4 12 -11 22 -27 22 -37 0 -25 16 -33 24 -12 11 29 -27
68 -63 66 -22 -2 -33 3 -41 18 -10 17 -8 21 9 26 27 7 27 9 -12 52 -27 29 -37
35 -50 27 -21 -13 -54 16 -60 53 -2 14 -5 19 -6 10z"/>
<path d="M3092 1218 c4 -63 28 -80 28 -20 0 46 -8 72 -22 72 -5 0 -8 -23 -6
-52z"/>
<path d="M2020 1250 c0 -5 5 -10 10 -10 6 0 10 5 10 10 0 6 -4 10 -10 10 -5 0
-10 -4 -10 -10z"/>
<path d="M1555 1240 c-3 -5 -1 -10 4 -10 6 0 11 5 11 10 0 6 -2 10 -4 10 -3 0
-8 -4 -11 -10z"/>
<path d="M2097 1233 c-10 -10 -8 -33 2 -33 6 0 9 9 8 20 -1 23 -1 22 -10 13z"/>
<path d="M2146 1231 c-4 -7 -5 -15 -2 -18 9 -9 19 4 14 18 -4 11 -6 11 -12 0z"/>
<path d="M1521 1201 c-6 -10 -7 -21 -4 -25 9 -8 33 14 33 30 0 20 -18 17 -29
-5z"/>
<path d="M1815 1195 c-31 -30 -32 -64 -3 -100 19 -24 26 -27 62 -22 46 6 66
28 66 71 0 37 -7 49 -37 65 -34 17 -62 13 -88 -14z"/>
<path d="M2988 1199 c-10 -5 -18 -17 -18 -24 0 -23 14 -17 27 10 6 14 10 25
10 25 -1 0 -10 -5 -19 -11z"/>
<path d="M1660 1180 c0 -5 5 -10 10 -10 6 0 10 5 10 10 0 6 -4 10 -10 10 -5 0
-10 -4 -10 -10z"/>
<path d="M2075 1181 c-3 -5 -1 -12 5 -16 12 -7 30 2 30 16 0 12 -27 12 -35 0z"/>
<path d="M2130 1180 c0 -5 5 -10 10 -10 6 0 10 5 10 10 0 6 -4 10 -10 10 -5 0
-10 -4 -10 -10z"/>
<path d="M2107 1153 c-4 -3 -7 -11 -7 -17 0 -6 5 -5 12 2 6 6 9 14 7 17 -3 3
-9 2 -12 -2z"/>
<path d="M2920 1115 c0 -14 5 -25 10 -25 6 0 10 11 10 25 0 14 -4 25 -10 25
-5 0 -10 -11 -10 -25z"/>
<path d="M1294 1105 c-9 -14 -14 -28 -10 -32 3 -3 6 -1 6 5 0 6 10 20 22 32
12 11 17 20 10 20 -6 0 -19 -11 -28 -25z"/>
<path d="M3000 1120 c0 -7 3 -10 7 -7 3 4 3 10 0 14 -4 3 -7 0 -7 -7z"/>
<path d="M3060 1099 c0 -11 5 -17 10 -14 6 3 10 13 10 21 0 8 -4 14 -10 14 -5
0 -10 -9 -10 -21z"/>
<path d="M2003 1083 c4 -3 10 -3 14 0 3 4 0 7 -7 7 -7 0 -10 -3 -7 -7z"/>
<path d="M2075 1070 c-3 -6 1 -7 9 -4 18 7 21 14 7 14 -6 0 -13 -4 -16 -10z"/>
<path d="M3050 1060 c0 -7 3 -10 7 -7 3 4 3 10 0 14 -4 3 -7 0 -7 -7z"/>
<path d="M1756 1037 c3 -10 9 -15 12 -12 3 3 0 11 -7 18 -10 9 -11 8 -5 -6z"/>
<path d="M2000 1040 c0 -7 3 -10 7 -7 3 4 3 10 0 14 -4 3 -7 0 -7 -7z"/>
<path d="M3396 1031 c-4 -5 -2 -12 3 -15 5 -4 12 -2 15 3 4 5 2 12 -3 15 -5 4
-12 2 -15 -3z"/>
<path d="M2009 1019 c-10 -6 -11 -11 -3 -19 11 -11 44 -4 44 10 0 13 -26 19
-41 9z"/>
<path d="M1570 990 c0 -5 5 -10 10 -10 6 0 10 5 10 10 0 6 -4 10 -10 10 -5 0
-10 -4 -10 -10z"/>
<path d="M3345 990 c-27 -11 -80 -68 -72 -77 4 -3 17 3 30 14 12 11 37 28 55
39 48 27 39 46 -13 24z"/>
<path d="M2081 964 c0 -11 3 -14 6 -6 3 7 2 16 -1 19 -3 4 -6 -2 -5 -13z"/>
<path d="M2106 964 c-4 -10 -2 -22 3 -27 14 -14 43 0 39 20 -4 24 -34 28 -42
7z"/>
<path d="M622 939 c3 -8 18 -15 34 -17 33 -4 24 11 -15 23 -17 5 -22 4 -19 -6z"/>
<path d="M3070 938 c0 -7 4 -19 9 -27 11 -17 25 3 17 24 -7 18 -26 20 -26 3z"/>
<path d="M1155 900 c-20 -9 -20 -9 0 -9 11 0 27 4 35 9 13 9 13 10 0 9 -8 0
-24 -4 -35 -9z"/>
<path d="M1696 901 c-4 -5 3 -7 14 -4 23 6 26 13 6 13 -8 0 -17 -4 -20 -9z"/>
<path d="M3270 865 c-7 -9 -10 -18 -7 -22 8 -7 37 15 37 28 0 14 -16 11 -30
-6z"/>
<path d="M1645 835 c-38 -24 -38 -25 -10 -19 39 9 65 22 65 34 0 15 -12 12
-55 -15z"/>
<path d="M710 841 c0 -11 25 -21 52 -21 17 0 18 3 8 15 -13 16 -60 21 -60 6z"/>
<path d="M804 806 c11 -9 31 -16 45 -15 24 1 24 2 -5 8 -17 4 -37 11 -45 15
-8 4 -5 0 5 -8z"/>
<path d="M720 762 c0 -6 11 -24 25 -39 17 -20 24 -23 25 -12 0 8 -11 26 -25
39 -14 13 -25 18 -25 12z"/>
<path d="M1060 732 c0 -5 14 -12 30 -14 19 -3 29 -1 27 6 -4 14 -57 21 -57 8z"/>
<path d="M800 717 c0 -11 38 -37 55 -37 15 0 1 18 -25 33 -24 15 -30 15 -30 4z"/>
<path d="M1990 720 c0 -5 5 -10 11 -10 5 0 7 5 4 10 -3 6 -8 10 -11 10 -2 0
-4 -4 -4 -10z"/>
<path d="M1818 699 c-10 -5 -18 -14 -18 -19 0 -14 28 -1 34 16 6 16 6 16 -16
3z"/>
<path d="M744 672 c38 -73 205 -147 272 -122 26 10 34 53 12 66 -7 4 -54 11
-105 15 -64 5 -100 12 -112 23 -10 9 -22 16 -28 16 -6 0 -16 7 -23 15 -21 25
-31 17 -16 -13z"/>
<path d="M1067 679 c18 -5 40 -21 49 -34 20 -30 54 -34 54 -6 0 30 -38 51 -90
50 -45 -1 -45 -1 -13 -10z"/>
<path d="M1460 670 c0 -7 3 -10 7 -7 3 4 3 10 0 14 -4 3 -7 0 -7 -7z"/>
<path d="M1664 660 c-48 -7 -164 -52 -164 -64 0 -3 11 -1 24 4 14 5 53 10 88
12 l63 3 -2 -27 c-2 -32 -1 -33 36 -14 30 16 54 58 45 81 -7 16 -12 16 -90 5z"/>
<path d="M2162 654 c-46 -32 -12 -97 44 -86 42 8 51 61 16 90 -21 16 -33 15
-60 -4z"/>
<path d="M495 620 c3 -5 8 -10 11 -10 3 0 2 5 -1 10 -3 6 -8 10 -11 10 -3 0
-2 -4 1 -10z"/>
<path d="M3340 610 c0 -7 3 -10 7 -7 3 4 3 10 0 14 -4 3 -7 0 -7 -7z"/>
<path d="M3363 585 c0 -22 2 -30 4 -17 2 12 2 30 0 40 -3 9 -5 -1 -4 -23z"/>
<path d="M575 590 c3 -5 8 -10 11 -10 3 0 2 5 -1 10 -3 6 -8 10 -11 10 -3 0
-2 -4 1 -10z"/>
<path d="M1626 591 c-4 -5 1 -8 9 -7 21 3 31 16 12 16 -9 0 -18 -4 -21 -9z"/>
<path d="M2340 585 c0 -9 5 -15 11 -13 6 2 11 8 11 13 0 5 -5 11 -11 13 -6 2
-11 -4 -11 -13z"/>
<path d="M530 576 c0 -20 57 -66 83 -66 l20 0 -21 23 c-11 12 -35 30 -51 40
-26 15 -31 16 -31 3z"/>
<path d="M1213 583 c-14 -5 -18 -23 -5 -23 5 0 17 7 28 15 14 11 15 14 4 14
-8 0 -21 -3 -27 -6z"/>
<path d="M1150 560 c-8 -5 -10 -10 -5 -10 6 0 17 5 25 10 8 5 11 10 5 10 -5 0
-17 -5 -25 -10z"/>
<path d="M660 550 c0 -7 3 -10 7 -7 3 4 3 10 0 14 -4 3 -7 0 -7 -7z"/>
<path d="M1980 540 c0 -5 5 -10 10 -10 6 0 10 5 10 10 0 6 -4 10 -10 10 -5 0
-10 -4 -10 -10z"/>
<path d="M3323 533 c4 -3 10 -3 14 0 3 4 0 7 -7 7 -7 0 -10 -3 -7 -7z"/>
<path d="M678 510 c-28 -23 -16 -50 27 -62 16 -4 43 -23 61 -42 39 -43 110
-61 244 -61 110 0 184 18 291 69 93 44 82 46 -19 4 -70 -30 -87 -33 -177 -33
-79 0 -113 5 -163 23 -67 24 -101 40 -117 58 -21 23 -73 53 -98 58 -17 3 -35
-2 -49 -14z"/>
<path d="M2450 520 c0 -5 4 -10 9 -10 6 0 13 5 16 10 3 6 -1 10 -9 10 -9 0
-16 -4 -16 -10z"/>
<path d="M2393 513 c4 -3 10 -3 14 0 3 4 0 7 -7 7 -7 0 -10 -3 -7 -7z"/>
<path d="M845 481 c17 -17 36 -31 43 -31 20 0 6 16 -35 40 l-38 22 30 -31z"/>
<path d="M1468 483 c6 -2 18 -2 25 0 6 3 1 5 -13 5 -14 0 -19 -2 -12 -5z"/>
<path d="M1850 484 c0 -2 5 -15 12 -29 9 -21 18 -25 54 -25 68 0 88 -34 62
-106 -9 -26 -9 -41 2 -73 15 -46 44 -81 66 -81 13 0 13 4 -1 30 -22 42 -19 69
10 82 26 11 26 25 4 86 -12 31 -12 32 9 32 36 0 -106 69 -161 78 -31 5 -57 8
-57 6z"/>
<path d="M1403 470 c-34 -14 -28 -21 7 -9 17 6 30 13 30 15 0 6 -12 4 -37 -6z"/>
<path d="M1674 449 c20 -17 41 -29 47 -27 6 2 -7 16 -30 31 -54 36 -60 34 -17
-4z"/>
<path d="M3441 454 c0 -11 3 -14 6 -6 3 7 2 16 -1 19 -3 4 -6 -2 -5 -13z"/>
<path d="M3035 450 c3 -5 8 -10 11 -10 2 0 4 5 4 10 0 6 -5 10 -11 10 -5 0 -7
-4 -4 -10z"/>
<path d="M926 442 c-12 -20 115 -30 144 -12 11 7 5 10 -25 10 -22 0 -56 3 -76
6 -20 4 -39 2 -43 -4z"/>
<path d="M2412 420 c-16 -26 -15 -30 3 -30 8 0 15 4 15 9 0 5 3 16 6 25 9 23
-9 20 -24 -4z"/>
<path d="M3090 423 c0 -4 5 -15 10 -23 8 -13 10 -13 10 2 0 9 -4 20 -10 23 -5
3 -10 3 -10 -2z"/>
<path d="M1962 396 c7 -8 15 -12 17 -11 5 6 -10 25 -20 25 -5 0 -4 -6 3 -14z"/>
<path d="M2213 383 c4 -3 10 -3 14 0 3 4 0 7 -7 7 -7 0 -10 -3 -7 -7z"/>
<path d="M1966 355 c-9 -26 -7 -32 5 -12 6 10 9 21 6 23 -2 3 -7 -2 -11 -11z"/>
<path d="M2300 341 c0 -6 5 -13 10 -16 6 -3 10 1 10 9 0 9 -4 16 -10 16 -5 0
-10 -4 -10 -9z"/>
<path d="M2423 343 c4 -3 10 -3 14 0 3 4 0 7 -7 7 -7 0 -10 -3 -7 -7z"/>
<path d="M3024 327 c3 -10 6 -48 6 -84 0 -37 3 -63 7 -59 11 11 4 126 -8 145
-9 14 -10 14 -5 -2z"/>
<path d="M1522 320 c50 -5 77 -14 108 -35 22 -15 43 -26 46 -23 8 8 -45 43
-85 56 -19 7 -57 11 -85 11 -49 -2 -49 -2 16 -9z"/>
<path d="M2380 320 c0 -5 7 -10 15 -10 8 0 15 5 15 10 0 6 -7 10 -15 10 -8 0
-15 -4 -15 -10z"/>
<path d="M1950 310 c0 -7 3 -10 7 -7 3 4 3 10 0 14 -4 3 -7 0 -7 -7z"/>
<path d="M2469 295 c-1 -8 -2 -20 -3 -27 -1 -6 9 -13 22 -14 12 -2 22 1 22 7
0 5 -4 7 -10 4 -6 -4 -10 5 -10 19 0 27 -19 37 -21 11z"/>
<path d="M2171 286 c-16 -19 -11 -29 8 -17 7 5 12 14 9 21 -3 9 -8 7 -17 -4z"/>
<path d="M2413 270 c-1 -11 2 -20 5 -20 4 0 8 9 9 20 1 11 -2 20 -5 20 -4 0
-8 -9 -9 -20z"/>
<path d="M1441 276 c2 -2 31 -6 64 -9 36 -3 52 -2 40 3 -19 8 -113 14 -104 6z"/>
<path d="M1580 251 c0 -6 6 -11 13 -11 31 0 137 -145 137 -188 0 -6 5 -14 11
-18 20 -12 -1 58 -32 107 -31 48 -57 76 -101 104 -17 10 -28 13 -28 6z"/>
<path d="M2106 248 c5 -7 23 -33 42 -57 21 -27 32 -52 29 -63 -5 -16 -3 -17
10 -6 13 10 15 9 12 -7 -3 -11 -11 -21 -19 -22 -8 -1 -37 -5 -65 -9 l-50 -7
50 -8 c38 -6 56 -15 75 -39 32 -39 67 -41 72 -2 2 20 8 27 25 27 13 0 30 8 39
17 16 15 15 19 -3 55 -17 32 -28 41 -79 57 -32 11 -61 22 -64 26 -11 13 -81
49 -74 38z"/>
<path d="M1730 226 c0 -14 64 -105 71 -100 11 6 1 32 -29 72 -21 28 -42 42
-42 28z"/>
<path d="M1163 203 c9 -2 25 -2 35 0 9 3 1 5 -18 5 -19 0 -27 -2 -17 -5z"/>
<path d="M2425 200 c3 -5 8 -10 11 -10 2 0 4 5 4 10 0 6 -5 10 -11 10 -5 0 -7
-4 -4 -10z"/>
<path d="M3643 193 c4 -3 10 -3 14 0 3 4 0 7 -7 7 -7 0 -10 -3 -7 -7z"/>
<path d="M3379 173 c-13 -16 -12 -17 4 -4 16 13 21 21 13 21 -2 0 -10 -8 -17
-17z"/>
<path d="M3132 150 c0 -14 2 -19 5 -12 2 6 2 18 0 25 -3 6 -5 1 -5 -13z"/>
<path d="M1455 140 c3 -5 8 -10 11 -10 2 0 4 5 4 10 0 6 -5 10 -11 10 -5 0 -7
-4 -4 -10z"/>
<path d="M2423 113 c4 -3 10 -3 14 0 3 4 0 7 -7 7 -7 0 -10 -3 -7 -7z"/>
<path d="M1810 78 c0 -14 50 -81 57 -75 4 5 -46 87 -53 87 -2 0 -4 -5 -4 -12z"/>
<path d="M2474 8 c-4 -7 -3 -8 4 -4 12 7 16 16 8 16 -3 0 -8 -5 -12 -12z"/>
</g>
</svg>
